{"glyphs":{"0":{"ha":881,"x_min":85,"x_max":796,"o":"m 794 368 q 703 91 792 196 q 440 -14 615 -14 q 177 91 265 -14 q 86 368 89 196 l 85 486 l 86 603 q 177 881 89 775 q 440 986 265 986 q 703 881 615 986 q 794 603 792 775 q 796 486 796 561 q 794 368 796 410 m 440 111 q 664 368 658 111 q 665 486 665 410 q 664 603 665 561 q 440 861 658 861 q 217 603 222 861 l 215 486 l 217 368 q 440 111 222 111 z "},"1":{"ha":585,"x_min":31,"x_max":482,"o":"m 482 38 q 471 11 482 22 q 444 0 460 0 l 388 0 q 361 11 372 0 q 350 38 350 22 l 350 803 l 125 632 q 101 624 115 624 q 72 638 83 624 l 39 681 q 31 704 31 692 q 46 733 31 722 l 343 961 q 388 972 358 972 l 444 972 q 471 961 460 972 q 482 935 482 950 l 482 38 z "},"2":{"ha":808,"x_min":67,"x_max":740,"o":"m 504 511 q 568 590 549 551 q 588 689 588 629 q 543 814 588 767 q 408 861 499 861 q 275 815 319 861 q 211 689 231 768 q 197 665 207 674 q 175 657 188 657 l 111 657 q 90 666 99 657 q 81 688 81 675 q 123 828 83 758 q 236 942 163 897 q 408 986 310 986 q 577 947 507 986 q 683 840 647 907 q 719 689 719 772 q 690 540 719 601 q 588 414 660 478 l 278 125 l 703 125 q 729 114 718 125 q 740 88 740 103 l 740 38 q 729 11 740 22 q 703 0 718 0 l 104 0 q 78 11 89 0 q 67 38 67 22 l 67 88 q 73 113 67 103 q 97 140 79 124 l 504 511 z "},"3":{"ha":826,"x_min":57,"x_max":763,"o":"m 417 111 q 570 156 510 111 q 631 288 631 201 q 573 410 631 372 q 417 449 515 449 l 301 449 q 275 460 286 449 q 264 486 264 471 l 264 536 q 269 556 264 547 q 286 578 275 565 l 536 847 l 136 847 q 110 858 121 847 q 99 885 99 869 l 99 935 q 110 961 99 950 q 136 972 121 972 l 683 972 q 710 961 699 972 q 721 935 721 950 l 721 885 q 696 838 721 865 l 450 572 q 676 493 590 569 q 763 288 763 417 q 716 127 763 196 q 591 22 669 58 q 417 -14 513 -14 q 218 22 299 -14 q 99 113 138 57 q 57 233 60 169 q 66 255 57 246 q 88 264 75 264 l 151 264 q 174 255 165 264 q 188 235 183 246 q 253 144 206 178 q 417 111 301 111 z "},"4":{"ha":847,"x_min":40,"x_max":803,"o":"m 551 0 q 525 11 536 0 q 514 38 514 22 l 514 229 l 78 229 q 51 240 63 229 q 40 267 40 251 l 40 317 q 46 340 40 326 q 60 364 51 353 l 499 939 q 553 972 524 972 l 608 972 q 635 961 624 972 q 646 935 646 950 l 646 354 l 765 354 q 792 343 781 354 q 803 317 803 332 l 803 267 q 792 240 803 251 q 765 229 781 229 l 646 229 l 646 38 q 635 11 646 22 q 608 0 624 0 l 551 0 m 514 746 l 213 354 l 514 354 l 514 746 z "},"5":{"ha":825,"x_min":60,"x_max":764,"o":"m 411 111 q 569 163 507 111 q 632 313 632 215 q 569 462 632 410 q 411 514 507 514 q 322 501 354 514 q 258 465 290 488 q 230 447 242 453 q 203 440 218 440 l 132 440 q 110 449 119 440 q 101 471 101 458 l 143 935 q 154 961 143 950 q 181 972 165 972 l 671 972 q 697 961 686 972 q 708 935 708 950 l 708 885 q 697 858 708 869 q 671 847 686 847 l 267 847 l 244 607 q 411 639 315 639 q 590 599 510 639 q 717 485 669 560 q 764 313 764 411 q 717 140 764 214 q 590 26 669 65 q 411 -14 510 -14 q 239 20 319 -14 q 110 115 158 54 q 60 253 61 176 q 69 274 60 265 q 90 283 78 283 l 154 283 q 176 275 167 283 q 190 253 186 267 q 269 150 208 189 q 411 111 331 111 z "},"6":{"ha":831,"x_min":63,"x_max":782,"o":"m 372 649 q 422 656 393 656 q 607 612 525 656 q 735 491 689 568 q 782 321 782 414 q 735 151 782 228 q 607 30 689 74 q 422 -14 525 -14 q 238 30 319 -14 q 109 151 156 74 q 63 321 63 228 q 88 447 63 393 q 164 572 114 500 l 417 944 q 424 955 418 947 q 440 967 431 963 q 460 972 449 972 l 539 972 q 559 963 551 972 q 567 942 567 954 q 560 924 567 935 l 372 649 m 422 111 q 542 140 490 111 q 622 217 594 169 q 650 321 650 265 q 622 424 650 376 q 542 501 594 472 q 422 531 490 531 q 302 501 354 531 q 222 424 250 472 q 194 321 194 376 q 222 217 194 265 q 302 140 250 169 q 422 111 354 111 z "},"7":{"ha":715,"x_min":38,"x_max":678,"o":"m 640 972 q 667 961 656 972 q 678 935 678 950 l 678 885 q 663 829 678 865 l 354 33 q 314 0 340 0 l 250 0 q 226 10 236 0 q 217 33 217 19 q 221 50 217 40 l 531 847 l 75 847 q 49 858 60 847 q 38 885 38 869 l 38 935 q 49 961 38 950 q 75 972 60 972 l 640 972 z "},"8":{"ha":847,"x_min":75,"x_max":772,"o":"m 210 508 q 130 599 158 546 q 101 714 101 653 q 144 850 101 788 q 260 949 186 913 q 424 986 333 986 q 588 949 514 986 q 705 850 663 913 q 747 714 747 788 q 718 600 747 653 q 638 508 689 547 q 737 406 701 467 q 772 276 772 346 q 728 131 772 197 q 603 25 683 64 q 424 -14 524 -14 q 244 25 324 -14 q 119 131 164 64 q 75 276 75 197 q 110 408 75 347 q 210 508 146 468 m 424 567 q 560 610 504 567 q 615 714 615 653 q 560 818 615 775 q 424 861 504 861 q 288 818 343 861 q 233 714 233 775 q 288 610 233 653 q 424 567 343 567 m 424 111 q 535 133 486 111 q 613 193 585 156 q 640 276 640 231 q 613 360 640 322 q 535 419 585 397 q 424 442 486 442 q 312 419 361 442 q 235 360 263 397 q 207 276 207 322 q 235 193 207 231 q 312 133 263 156 q 424 111 361 111 z "},"9":{"ha":804,"x_min":50,"x_max":747,"o":"m 436 333 q 399 331 419 331 q 228 369 308 331 q 99 483 149 408 q 50 658 50 558 q 98 825 50 750 q 226 943 146 900 q 399 986 306 986 q 583 944 504 986 q 705 827 663 901 q 747 658 747 753 q 717 536 747 597 q 636 400 686 475 l 383 28 q 376 17 382 25 q 360 5 369 10 q 340 0 351 0 l 261 0 q 241 9 249 0 q 233 31 233 18 q 240 49 233 39 l 436 333 m 399 861 q 242 803 303 861 q 182 658 182 746 q 242 513 182 571 q 399 456 303 456 q 555 513 494 456 q 615 658 615 571 q 555 803 615 746 q 399 861 494 861 z "},"\r":{"ha":403,"x_min":0,"x_max":0,"o":""}," ":{"ha":339,"x_min":0,"x_max":0,"o":""},"A":{"ha":944,"x_min":22,"x_max":921,"o":"m 231 219 l 158 35 q 104 0 146 0 l 53 0 q 31 9 40 0 q 22 31 22 18 q 28 50 22 38 l 368 926 q 431 972 386 972 l 514 972 q 576 926 558 972 l 915 50 q 921 31 921 38 q 912 9 921 18 q 890 0 903 0 l 839 0 q 785 35 797 0 l 713 219 l 231 219 m 664 344 l 472 840 l 279 344 l 664 344 z "},"Á":{"ha":944,"x_min":22,"x_max":921,"o":"m 231 219 l 158 35 q 104 0 146 0 l 53 0 q 31 9 40 0 q 22 31 22 18 q 28 50 22 38 l 368 926 q 431 972 386 972 l 514 972 q 576 926 558 972 l 915 50 q 921 31 921 38 q 912 9 921 18 q 890 0 903 0 l 839 0 q 785 35 797 0 l 713 219 l 231 219 m 664 344 l 472 840 l 279 344 l 664 344 m 517 1210 q 542 1231 532 1226 q 568 1236 551 1236 l 678 1236 q 697 1228 690 1236 q 704 1208 704 1221 q 697 1192 704 1199 l 543 1065 q 516 1047 528 1053 q 485 1042 504 1042 l 426 1042 q 404 1064 404 1042 q 411 1082 404 1075 l 517 1210 z "},"Ă":{"ha":944,"x_min":22,"x_max":921,"o":"m 231 219 l 158 35 q 104 0 146 0 l 53 0 q 31 9 40 0 q 22 31 22 18 q 28 50 22 38 l 368 926 q 431 972 386 972 l 514 972 q 576 926 558 972 l 915 50 q 921 31 921 38 q 912 9 921 18 q 890 0 903 0 l 839 0 q 785 35 797 0 l 713 219 l 231 219 m 664 344 l 472 840 l 279 344 l 664 344 m 293 1210 q 300 1228 293 1221 q 319 1236 307 1236 l 364 1236 q 383 1228 376 1236 q 390 1210 390 1221 q 413 1150 390 1174 q 472 1126 435 1126 q 532 1150 510 1126 q 554 1210 554 1174 q 561 1228 554 1221 q 581 1236 568 1236 l 625 1236 q 644 1228 638 1236 q 651 1210 651 1221 q 606 1087 651 1139 q 472 1035 560 1035 q 339 1087 385 1035 q 293 1210 293 1139 z "},"Â":{"ha":944,"x_min":22,"x_max":921,"o":"m 231 219 l 158 35 q 104 0 146 0 l 53 0 q 31 9 40 0 q 22 31 22 18 q 28 50 22 38 l 368 926 q 431 972 386 972 l 514 972 q 576 926 558 972 l 915 50 q 921 31 921 38 q 912 9 921 18 q 890 0 903 0 l 839 0 q 785 35 797 0 l 713 219 l 231 219 m 664 344 l 472 840 l 279 344 l 664 344 m 493 1236 q 519 1231 508 1236 q 544 1210 531 1225 l 672 1082 q 679 1064 679 1075 q 657 1042 679 1042 l 621 1042 q 600 1045 608 1042 q 578 1057 592 1049 l 472 1128 l 367 1057 q 344 1045 353 1049 q 324 1042 336 1042 l 288 1042 q 265 1064 265 1042 q 272 1082 265 1075 l 400 1210 q 425 1231 414 1225 q 451 1236 436 1236 l 493 1236 z "},"Ä":{"ha":944,"x_min":22,"x_max":921,"o":"m 231 219 l 158 35 q 104 0 146 0 l 53 0 q 31 9 40 0 q 22 31 22 18 q 28 50 22 38 l 368 926 q 431 972 386 972 l 514 972 q 576 926 558 972 l 915 50 q 921 31 921 38 q 912 9 921 18 q 890 0 903 0 l 839 0 q 785 35 797 0 l 713 219 l 231 219 m 664 344 l 472 840 l 279 344 l 664 344 m 403 1079 q 392 1053 403 1064 q 365 1042 381 1042 l 286 1042 q 260 1053 271 1042 q 249 1079 249 1064 l 249 1158 q 260 1185 249 1174 q 286 1196 271 1196 l 365 1196 q 392 1185 381 1196 q 403 1158 403 1174 l 403 1079 m 696 1079 q 685 1053 696 1064 q 658 1042 674 1042 l 579 1042 q 553 1053 564 1042 q 542 1079 542 1064 l 542 1158 q 553 1185 542 1174 q 579 1196 564 1196 l 658 1196 q 685 1185 674 1196 q 696 1158 696 1174 l 696 1079 z "},"À":{"ha":944,"x_min":22,"x_max":921,"o":"m 231 219 l 158 35 q 104 0 146 0 l 53 0 q 31 9 40 0 q 22 31 22 18 q 28 50 22 38 l 368 926 q 431 972 386 972 l 514 972 q 576 926 558 972 l 915 50 q 921 31 921 38 q 912 9 921 18 q 890 0 903 0 l 839 0 q 785 35 797 0 l 713 219 l 231 219 m 664 344 l 472 840 l 279 344 l 664 344 m 531 1082 q 538 1064 538 1075 q 515 1042 538 1042 l 457 1042 q 426 1047 438 1042 q 399 1065 414 1053 l 244 1192 q 238 1208 238 1199 q 244 1228 238 1221 q 264 1236 251 1236 l 374 1236 q 400 1231 390 1236 q 425 1210 410 1226 l 531 1082 z "},"Ā":{"ha":944,"x_min":22,"x_max":921,"o":"m 231 219 l 158 35 q 104 0 146 0 l 53 0 q 31 9 40 0 q 22 31 22 18 q 28 50 22 38 l 368 926 q 431 972 386 972 l 514 972 q 576 926 558 972 l 915 50 q 921 31 921 38 q 912 9 921 18 q 890 0 903 0 l 839 0 q 785 35 797 0 l 713 219 l 231 219 m 664 344 l 472 840 l 279 344 l 664 344 m 314 1042 q 288 1053 299 1042 q 276 1079 276 1064 l 276 1129 q 288 1156 276 1144 q 314 1167 299 1167 l 632 1167 q 658 1156 647 1167 q 669 1129 669 1144 l 669 1079 q 658 1053 669 1064 q 632 1042 647 1042 l 314 1042 z "},"Ą":{"ha":944,"x_min":22,"x_max":921,"o":"m 846 -306 q 703 -252 758 -306 q 647 -103 647 -199 q 678 16 647 -32 q 764 86 710 64 l 713 219 l 231 219 l 158 35 q 104 0 146 0 l 53 0 q 31 9 40 0 q 22 31 22 18 q 28 50 22 38 l 368 926 q 431 972 386 972 l 514 972 q 576 926 558 972 l 915 50 q 921 31 921 38 q 912 9 921 18 q 890 0 903 0 l 851 0 q 783 -25 806 0 q 760 -103 760 -50 q 783 -181 760 -156 q 851 -206 806 -206 l 872 -206 q 894 -214 886 -206 q 903 -236 903 -222 l 903 -275 q 894 -297 903 -289 q 872 -306 886 -306 l 846 -306 m 664 344 l 472 840 l 279 344 l 664 344 z "},"Å":{"ha":944,"x_min":22,"x_max":921,"o":"m 231 219 l 158 35 q 104 0 146 0 l 53 0 q 31 9 40 0 q 22 31 22 18 q 28 50 22 38 l 368 926 q 431 972 386 972 l 514 972 q 576 926 558 972 l 915 50 q 921 31 921 38 q 912 9 921 18 q 890 0 903 0 l 839 0 q 785 35 797 0 l 713 219 l 231 219 m 664 344 l 472 840 l 279 344 l 664 344 m 472 1250 q 556 1219 522 1250 q 590 1139 590 1188 q 556 1059 590 1090 q 472 1028 522 1028 q 388 1059 422 1028 q 354 1139 354 1090 q 388 1219 354 1188 q 472 1250 422 1250 m 472 1097 q 502 1109 490 1097 q 514 1139 514 1121 q 502 1169 514 1157 q 472 1181 490 1181 q 442 1169 454 1181 q 431 1139 431 1157 q 442 1109 431 1121 q 472 1097 454 1097 z "},"Ã":{"ha":944,"x_min":22,"x_max":921,"o":"m 231 219 l 158 35 q 104 0 146 0 l 53 0 q 31 9 40 0 q 22 31 22 18 q 28 50 22 38 l 368 926 q 431 972 386 972 l 514 972 q 576 926 558 972 l 915 50 q 921 31 921 38 q 912 9 921 18 q 890 0 903 0 l 839 0 q 785 35 797 0 l 713 219 l 231 219 m 664 344 l 472 840 l 279 344 l 664 344 m 403 1079 q 380 1074 388 1079 q 367 1058 372 1068 q 356 1046 361 1050 q 343 1042 351 1042 l 292 1042 q 272 1049 279 1042 q 265 1068 265 1057 q 278 1124 265 1093 q 318 1178 292 1156 q 385 1201 344 1201 q 438 1194 417 1201 q 485 1175 458 1188 q 515 1161 501 1165 q 543 1157 528 1157 q 566 1163 558 1157 q 579 1178 574 1168 q 590 1190 585 1186 q 603 1194 594 1194 l 654 1194 q 674 1187 667 1194 q 681 1168 681 1179 q 667 1112 681 1143 q 628 1058 654 1081 q 561 1035 601 1035 q 507 1042 529 1035 q 460 1061 485 1049 q 431 1074 446 1068 q 403 1079 417 1079 z "},"Æ":{"ha":1332,"x_min":1,"x_max":1265,"o":"m 1228 125 q 1254 114 1243 125 q 1265 88 1265 103 l 1265 38 q 1254 11 1265 22 q 1228 0 1243 0 l 667 0 q 640 11 651 0 q 629 38 629 22 l 629 219 l 257 219 l 149 35 q 94 0 128 0 l 32 0 q 10 9 19 0 q 1 31 1 18 q 7 47 1 38 l 526 926 q 551 960 539 949 q 589 972 564 972 l 1217 972 q 1243 961 1232 972 q 1254 935 1254 950 l 1254 885 q 1243 858 1254 869 q 1217 847 1232 847 l 761 847 l 761 554 l 1186 554 q 1213 543 1201 554 q 1224 517 1224 532 l 1224 467 q 1213 440 1224 451 q 1186 429 1201 429 l 761 429 l 761 125 l 1228 125 m 629 847 l 332 344 l 629 344 l 629 847 z "},"Ǽ":{"ha":1332,"x_min":1,"x_max":1265,"o":"m 1228 125 q 1254 114 1243 125 q 1265 88 1265 103 l 1265 38 q 1254 11 1265 22 q 1228 0 1243 0 l 667 0 q 640 11 651 0 q 629 38 629 22 l 629 219 l 257 219 l 149 35 q 94 0 128 0 l 32 0 q 10 9 19 0 q 1 31 1 18 q 7 47 1 38 l 526 926 q 551 960 539 949 q 589 972 564 972 l 1217 972 q 1243 961 1232 972 q 1254 935 1254 950 l 1254 885 q 1243 858 1254 869 q 1217 847 1232 847 l 761 847 l 761 554 l 1186 554 q 1213 543 1201 554 q 1224 517 1224 532 l 1224 467 q 1213 440 1224 451 q 1186 429 1201 429 l 761 429 l 761 125 l 1228 125 m 629 847 l 332 344 l 629 344 l 629 847 m 733 1210 q 758 1231 749 1226 q 785 1236 768 1236 l 894 1236 q 914 1228 907 1236 q 921 1208 921 1221 q 914 1192 921 1199 l 760 1065 q 733 1047 744 1053 q 701 1042 721 1042 l 643 1042 q 621 1064 621 1042 q 628 1082 621 1075 l 733 1210 z "},"B":{"ha":926,"x_min":119,"x_max":854,"o":"m 119 935 q 131 961 119 950 q 157 972 142 972 l 529 972 q 707 930 639 972 q 804 828 775 888 q 833 711 833 768 q 796 585 833 633 q 722 515 758 538 q 817 416 781 476 q 854 282 854 356 q 819 145 854 210 q 714 40 783 81 q 549 0 644 0 l 157 0 q 131 11 142 0 q 119 38 119 22 l 119 935 m 251 567 l 515 567 q 654 603 607 567 q 701 707 701 639 q 654 811 701 775 q 515 847 607 847 l 251 847 l 251 567 m 251 125 l 535 125 q 673 170 624 125 q 722 282 722 215 q 675 396 722 350 q 535 442 628 442 l 251 442 l 251 125 z "},"C":{"ha":926,"x_min":82,"x_max":864,"o":"m 215 369 q 287 181 219 251 q 475 111 354 111 q 656 164 597 111 q 733 300 714 217 q 747 322 736 314 q 769 331 757 331 l 833 331 q 855 322 846 331 q 864 300 864 313 q 819 159 861 232 q 691 36 778 86 q 475 -14 604 -14 q 271 35 358 -14 q 135 169 183 83 q 83 363 88 254 q 82 486 82 404 q 83 610 82 568 q 135 803 88 718 q 271 938 183 889 q 475 986 358 986 q 691 936 604 986 q 819 813 778 886 q 864 672 861 740 q 855 651 864 660 q 833 642 846 642 l 769 642 q 747 650 757 642 q 733 672 736 658 q 656 808 714 756 q 475 861 597 861 q 287 791 354 861 q 215 603 219 721 q 214 486 214 561 q 215 369 214 411 z "},"Ć":{"ha":926,"x_min":82,"x_max":864,"o":"m 215 369 q 287 181 219 251 q 475 111 354 111 q 656 164 597 111 q 733 300 714 217 q 747 322 736 314 q 769 331 757 331 l 833 331 q 855 322 846 331 q 864 300 864 313 q 819 159 861 232 q 691 36 778 86 q 475 -14 604 -14 q 271 35 358 -14 q 135 169 183 83 q 83 363 88 254 q 82 486 82 404 q 83 610 82 568 q 135 803 88 718 q 271 938 183 889 q 475 986 358 986 q 691 936 604 986 q 819 813 778 886 q 864 672 861 740 q 855 651 864 660 q 833 642 846 642 l 769 642 q 747 650 757 642 q 733 672 736 658 q 656 808 714 756 q 475 861 597 861 q 287 791 354 861 q 215 603 219 721 q 214 486 214 561 q 215 369 214 411 m 508 1210 q 533 1231 524 1226 q 560 1236 543 1236 l 669 1236 q 689 1228 682 1236 q 696 1208 696 1221 q 689 1192 696 1199 l 535 1065 q 508 1047 519 1053 q 476 1042 496 1042 l 418 1042 q 396 1064 396 1042 q 403 1082 396 1075 l 508 1210 z "},"Č":{"ha":926,"x_min":82,"x_max":864,"o":"m 215 369 q 287 181 219 251 q 475 111 354 111 q 656 164 597 111 q 733 300 714 217 q 747 322 736 314 q 769 331 757 331 l 833 331 q 855 322 846 331 q 864 300 864 313 q 819 159 861 232 q 691 36 778 86 q 475 -14 604 -14 q 271 35 358 -14 q 135 169 183 83 q 83 363 88 254 q 82 486 82 404 q 83 610 82 568 q 135 803 88 718 q 271 938 183 889 q 475 986 358 986 q 691 936 604 986 q 819 813 778 886 q 864 672 861 740 q 855 651 864 660 q 833 642 846 642 l 769 642 q 747 650 757 642 q 733 672 736 658 q 656 808 714 756 q 475 861 597 861 q 287 791 354 861 q 215 603 219 721 q 214 486 214 561 q 215 369 214 411 m 451 1042 q 425 1047 436 1042 q 400 1068 414 1053 l 272 1196 q 265 1214 265 1203 q 288 1236 265 1236 l 324 1236 q 344 1233 336 1236 q 367 1221 353 1229 l 472 1150 l 578 1221 q 600 1233 592 1229 q 621 1236 608 1236 l 657 1236 q 679 1214 679 1236 q 672 1196 679 1203 l 544 1068 q 519 1047 531 1053 q 493 1042 508 1042 l 451 1042 z "},"Ç":{"ha":926,"x_min":82,"x_max":864,"o":"m 215 369 q 287 181 219 251 q 475 111 354 111 q 656 164 597 111 q 733 300 714 217 q 747 322 736 314 q 769 331 757 331 l 833 331 q 855 322 846 331 q 864 300 864 313 q 820 161 861 233 q 694 38 779 89 q 482 -14 608 -12 l 453 -78 q 501 -67 471 -67 q 577 -100 547 -67 q 607 -183 607 -133 q 573 -272 607 -237 q 469 -306 539 -306 q 393 -286 429 -306 q 357 -247 357 -267 q 363 -235 357 -240 l 382 -217 q 400 -208 393 -208 q 426 -222 407 -208 q 469 -235 446 -235 q 529 -186 529 -235 q 469 -137 529 -137 q 435 -144 451 -137 q 413 -150 418 -150 q 394 -140 404 -150 l 371 -115 q 365 -101 365 -110 q 374 -74 365 -90 l 401 -8 q 172 115 257 14 q 83 363 88 215 q 82 486 82 404 q 83 610 82 568 q 135 803 88 718 q 271 938 183 889 q 475 986 358 986 q 691 936 604 986 q 819 813 778 886 q 864 672 861 740 q 855 651 864 660 q 833 642 846 642 l 769 642 q 747 650 757 642 q 733 672 736 658 q 656 808 714 756 q 475 861 597 861 q 287 791 354 861 q 215 603 219 721 q 214 486 214 561 q 215 369 214 411 z "},"Ĉ":{"ha":926,"x_min":82,"x_max":864,"o":"m 215 369 q 287 181 219 251 q 475 111 354 111 q 656 164 597 111 q 733 300 714 217 q 747 322 736 314 q 769 331 757 331 l 833 331 q 855 322 846 331 q 864 300 864 313 q 819 159 861 232 q 691 36 778 86 q 475 -14 604 -14 q 271 35 358 -14 q 135 169 183 83 q 83 363 88 254 q 82 486 82 404 q 83 610 82 568 q 135 803 88 718 q 271 938 183 889 q 475 986 358 986 q 691 936 604 986 q 819 813 778 886 q 864 672 861 740 q 855 651 864 660 q 833 642 846 642 l 769 642 q 747 650 757 642 q 733 672 736 658 q 656 808 714 756 q 475 861 597 861 q 287 791 354 861 q 215 603 219 721 q 214 486 214 561 q 215 369 214 411 m 493 1236 q 519 1231 508 1236 q 544 1210 531 1225 l 672 1082 q 679 1064 679 1075 q 657 1042 679 1042 l 621 1042 q 600 1045 608 1042 q 578 1057 592 1049 l 472 1128 l 367 1057 q 344 1045 353 1049 q 324 1042 336 1042 l 288 1042 q 265 1064 265 1042 q 272 1082 265 1075 l 400 1210 q 425 1231 414 1225 q 451 1236 436 1236 l 493 1236 z "},"Ċ":{"ha":926,"x_min":82,"x_max":864,"o":"m 215 369 q 287 181 219 251 q 475 111 354 111 q 656 164 597 111 q 733 300 714 217 q 747 322 736 314 q 769 331 757 331 l 833 331 q 855 322 846 331 q 864 300 864 313 q 819 159 861 232 q 691 36 778 86 q 475 -14 604 -14 q 271 35 358 -14 q 135 169 183 83 q 83 363 88 254 q 82 486 82 404 q 83 610 82 568 q 135 803 88 718 q 271 938 183 889 q 475 986 358 986 q 691 936 604 986 q 819 813 778 886 q 864 672 861 740 q 855 651 864 660 q 833 642 846 642 l 769 642 q 747 650 757 642 q 733 672 736 658 q 656 808 714 756 q 475 861 597 861 q 287 791 354 861 q 215 603 219 721 q 214 486 214 561 q 215 369 214 411 m 542 1079 q 531 1053 542 1064 q 504 1042 519 1042 l 425 1042 q 399 1053 410 1042 q 388 1079 388 1064 l 388 1158 q 399 1185 388 1174 q 425 1196 410 1196 l 504 1196 q 531 1185 519 1196 q 542 1158 542 1174 l 542 1079 z "},"D":{"ha":956,"x_min":119,"x_max":875,"o":"m 874 376 q 822 176 872 261 q 685 45 772 90 q 483 0 597 0 l 157 0 q 131 11 142 0 q 119 38 119 22 l 119 935 q 131 961 119 950 q 157 972 142 972 l 475 972 q 680 927 590 972 q 821 797 769 882 q 874 596 872 711 q 875 486 875 554 q 874 376 875 418 m 251 847 l 251 125 l 476 125 q 677 197 615 125 q 742 383 739 269 q 743 486 743 425 q 742 589 743 547 q 674 774 739 701 q 469 847 608 847 l 251 847 z "},"Ð":{"ha":975,"x_min":21,"x_max":894,"o":"m 893 376 q 842 176 892 261 q 704 45 792 90 q 503 0 617 0 l 176 0 q 150 11 161 0 q 139 38 139 22 l 139 433 l 58 433 q 32 444 43 433 q 21 471 21 456 l 21 514 q 32 540 21 529 q 58 551 43 551 l 139 551 l 139 935 q 150 961 139 950 q 176 972 161 972 l 494 972 q 699 927 610 972 q 840 797 789 882 q 893 596 892 711 q 894 486 894 554 q 893 376 894 418 m 271 847 l 271 551 l 458 551 q 485 540 474 551 q 496 514 496 529 l 496 471 q 485 444 496 456 q 458 433 474 433 l 271 433 l 271 125 l 496 125 q 697 197 635 125 q 761 383 758 269 q 763 486 763 425 q 761 589 763 547 q 693 774 758 701 q 489 847 628 847 l 271 847 z "},"Ď":{"ha":956,"x_min":119,"x_max":875,"o":"m 874 376 q 822 176 872 261 q 685 45 772 90 q 483 0 597 0 l 157 0 q 131 11 142 0 q 119 38 119 22 l 119 935 q 131 961 119 950 q 157 972 142 972 l 475 972 q 680 927 590 972 q 821 797 769 882 q 874 596 872 711 q 875 486 875 554 q 874 376 875 418 m 251 847 l 251 125 l 476 125 q 677 197 615 125 q 742 383 739 269 q 743 486 743 425 q 742 589 743 547 q 674 774 739 701 q 469 847 608 847 l 251 847 m 435 1042 q 408 1047 419 1042 q 383 1068 397 1053 l 256 1196 q 249 1214 249 1203 q 271 1236 249 1236 l 307 1236 q 328 1233 319 1236 q 350 1221 336 1229 l 456 1150 l 561 1221 q 583 1233 575 1229 q 604 1236 592 1236 l 640 1236 q 663 1214 663 1236 q 656 1196 663 1203 l 528 1068 q 503 1047 514 1053 q 476 1042 492 1042 l 435 1042 z "},"Đ":{"ha":975,"x_min":21,"x_max":894,"o":"m 893 376 q 842 176 892 261 q 704 45 792 90 q 503 0 617 0 l 176 0 q 150 11 161 0 q 139 38 139 22 l 139 433 l 58 433 q 32 444 43 433 q 21 471 21 456 l 21 514 q 32 540 21 529 q 58 551 43 551 l 139 551 l 139 935 q 150 961 139 950 q 176 972 161 972 l 494 972 q 699 927 610 972 q 840 797 789 882 q 893 596 892 711 q 894 486 894 554 q 893 376 894 418 m 271 847 l 271 551 l 458 551 q 485 540 474 551 q 496 514 496 529 l 496 471 q 485 444 496 456 q 458 433 474 433 l 271 433 l 271 125 l 496 125 q 697 197 635 125 q 761 383 758 269 q 763 486 763 425 q 761 589 763 547 q 693 774 758 701 q 489 847 628 847 l 271 847 z "},"E":{"ha":822,"x_min":119,"x_max":756,"o":"m 251 429 l 676 429 q 703 440 692 429 q 714 467 714 451 l 714 517 q 703 543 714 532 q 676 554 692 554 l 251 554 l 251 847 l 707 847 q 733 858 722 847 q 744 885 744 869 l 744 935 q 733 961 744 950 q 707 972 722 972 l 157 972 q 131 961 142 972 q 119 935 119 950 l 119 38 q 131 11 119 22 q 157 0 142 0 l 718 0 q 744 11 733 0 q 756 38 756 22 l 756 88 q 744 114 756 103 q 718 125 733 125 l 251 125 l 251 429 z "},"É":{"ha":822,"x_min":119,"x_max":756,"o":"m 251 429 l 676 429 q 703 440 692 429 q 714 467 714 451 l 714 517 q 703 543 714 532 q 676 554 692 554 l 251 554 l 251 847 l 707 847 q 733 858 722 847 q 744 885 744 869 l 744 935 q 733 961 744 950 q 707 972 722 972 l 157 972 q 131 961 142 972 q 119 935 119 950 l 119 38 q 131 11 119 22 q 157 0 142 0 l 718 0 q 744 11 733 0 q 756 38 756 22 l 756 88 q 744 114 756 103 q 718 125 733 125 l 251 125 l 251 429 m 460 1210 q 485 1231 475 1226 q 511 1236 494 1236 l 621 1236 q 640 1228 633 1236 q 647 1208 647 1221 q 640 1192 647 1199 l 486 1065 q 459 1047 471 1053 q 428 1042 447 1042 l 369 1042 q 347 1064 347 1042 q 354 1082 347 1075 l 460 1210 z "},"Ĕ":{"ha":822,"x_min":119,"x_max":756,"o":"m 251 429 l 676 429 q 703 440 692 429 q 714 467 714 451 l 714 517 q 703 543 714 532 q 676 554 692 554 l 251 554 l 251 847 l 707 847 q 733 858 722 847 q 744 885 744 869 l 744 935 q 733 961 744 950 q 707 972 722 972 l 157 972 q 131 961 142 972 q 119 935 119 950 l 119 38 q 131 11 119 22 q 157 0 142 0 l 718 0 q 744 11 733 0 q 756 38 756 22 l 756 88 q 744 114 756 103 q 718 125 733 125 l 251 125 l 251 429 m 258 1210 q 265 1228 258 1221 q 285 1236 272 1236 l 329 1236 q 349 1228 342 1236 q 356 1210 356 1221 q 378 1150 356 1174 q 438 1126 400 1126 q 497 1150 475 1126 q 519 1210 519 1174 q 526 1228 519 1221 q 546 1236 533 1236 l 590 1236 q 610 1228 603 1236 q 617 1210 617 1221 q 571 1087 617 1139 q 438 1035 525 1035 q 304 1087 350 1035 q 258 1210 258 1139 z "},"Ě":{"ha":822,"x_min":119,"x_max":756,"o":"m 251 429 l 676 429 q 703 440 692 429 q 714 467 714 451 l 714 517 q 703 543 714 532 q 676 554 692 554 l 251 554 l 251 847 l 707 847 q 733 858 722 847 q 744 885 744 869 l 744 935 q 733 961 744 950 q 707 972 722 972 l 157 972 q 131 961 142 972 q 119 935 119 950 l 119 38 q 131 11 119 22 q 157 0 142 0 l 718 0 q 744 11 733 0 q 756 38 756 22 l 756 88 q 744 114 756 103 q 718 125 733 125 l 251 125 l 251 429 m 417 1042 q 390 1047 401 1042 q 365 1068 379 1053 l 238 1196 q 231 1214 231 1203 q 253 1236 231 1236 l 289 1236 q 310 1233 301 1236 q 332 1221 318 1229 l 438 1150 l 543 1221 q 565 1233 557 1229 q 586 1236 574 1236 l 622 1236 q 644 1214 644 1236 q 638 1196 644 1203 l 510 1068 q 485 1047 496 1053 q 458 1042 474 1042 l 417 1042 z "},"Ê":{"ha":822,"x_min":119,"x_max":756,"o":"m 251 429 l 676 429 q 703 440 692 429 q 714 467 714 451 l 714 517 q 703 543 714 532 q 676 554 692 554 l 251 554 l 251 847 l 707 847 q 733 858 722 847 q 744 885 744 869 l 744 935 q 733 961 744 950 q 707 972 722 972 l 157 972 q 131 961 142 972 q 119 935 119 950 l 119 38 q 131 11 119 22 q 157 0 142 0 l 718 0 q 744 11 733 0 q 756 38 756 22 l 756 88 q 744 114 756 103 q 718 125 733 125 l 251 125 l 251 429 m 458 1236 q 485 1231 474 1236 q 510 1210 496 1225 l 638 1082 q 644 1064 644 1075 q 622 1042 644 1042 l 586 1042 q 565 1045 574 1042 q 543 1057 557 1049 l 438 1128 l 332 1057 q 310 1045 318 1049 q 289 1042 301 1042 l 253 1042 q 231 1064 231 1042 q 238 1082 231 1075 l 365 1210 q 390 1231 379 1225 q 417 1236 401 1236 l 458 1236 z "},"Ë":{"ha":822,"x_min":119,"x_max":756,"o":"m 251 429 l 676 429 q 703 440 692 429 q 714 467 714 451 l 714 517 q 703 543 714 532 q 676 554 692 554 l 251 554 l 251 847 l 707 847 q 733 858 722 847 q 744 885 744 869 l 744 935 q 733 961 744 950 q 707 972 722 972 l 157 972 q 131 961 142 972 q 119 935 119 950 l 119 38 q 131 11 119 22 q 157 0 142 0 l 718 0 q 744 11 733 0 q 756 38 756 22 l 756 88 q 744 114 756 103 q 718 125 733 125 l 251 125 l 251 429 m 368 1079 q 357 1053 368 1064 q 331 1042 346 1042 l 251 1042 q 225 1053 236 1042 q 214 1079 214 1064 l 214 1158 q 225 1185 214 1174 q 251 1196 236 1196 l 331 1196 q 357 1185 346 1196 q 368 1158 368 1174 l 368 1079 m 661 1079 q 650 1053 661 1064 q 624 1042 639 1042 l 544 1042 q 518 1053 529 1042 q 507 1079 507 1064 l 507 1158 q 518 1185 507 1174 q 544 1196 529 1196 l 624 1196 q 650 1185 639 1196 q 661 1158 661 1174 l 661 1079 z "},"Ė":{"ha":822,"x_min":119,"x_max":756,"o":"m 251 429 l 676 429 q 703 440 692 429 q 714 467 714 451 l 714 517 q 703 543 714 532 q 676 554 692 554 l 251 554 l 251 847 l 707 847 q 733 858 722 847 q 744 885 744 869 l 744 935 q 733 961 744 950 q 707 972 722 972 l 157 972 q 131 961 142 972 q 119 935 119 950 l 119 38 q 131 11 119 22 q 157 0 142 0 l 718 0 q 744 11 733 0 q 756 38 756 22 l 756 88 q 744 114 756 103 q 718 125 733 125 l 251 125 l 251 429 m 515 1079 q 504 1053 515 1064 q 478 1042 493 1042 l 399 1042 q 372 1053 383 1042 q 361 1079 361 1064 l 361 1158 q 372 1185 361 1174 q 399 1196 383 1196 l 478 1196 q 504 1185 493 1196 q 515 1158 515 1174 l 515 1079 z "},"È":{"ha":822,"x_min":119,"x_max":756,"o":"m 251 429 l 676 429 q 703 440 692 429 q 714 467 714 451 l 714 517 q 703 543 714 532 q 676 554 692 554 l 251 554 l 251 847 l 707 847 q 733 858 722 847 q 744 885 744 869 l 744 935 q 733 961 744 950 q 707 972 722 972 l 157 972 q 131 961 142 972 q 119 935 119 950 l 119 38 q 131 11 119 22 q 157 0 142 0 l 718 0 q 744 11 733 0 q 756 38 756 22 l 756 88 q 744 114 756 103 q 718 125 733 125 l 251 125 l 251 429 m 497 1082 q 504 1064 504 1075 q 482 1042 504 1042 l 424 1042 q 392 1047 404 1042 q 365 1065 381 1053 l 211 1192 q 204 1208 204 1199 q 211 1228 204 1221 q 231 1236 218 1236 l 340 1236 q 367 1231 357 1236 q 392 1210 376 1226 l 497 1082 z "},"Ē":{"ha":822,"x_min":119,"x_max":756,"o":"m 251 429 l 676 429 q 703 440 692 429 q 714 467 714 451 l 714 517 q 703 543 714 532 q 676 554 692 554 l 251 554 l 251 847 l 707 847 q 733 858 722 847 q 744 885 744 869 l 744 935 q 733 961 744 950 q 707 972 722 972 l 157 972 q 131 961 142 972 q 119 935 119 950 l 119 38 q 131 11 119 22 q 157 0 142 0 l 718 0 q 744 11 733 0 q 756 38 756 22 l 756 88 q 744 114 756 103 q 718 125 733 125 l 251 125 l 251 429 m 279 1042 q 253 1053 264 1042 q 242 1079 242 1064 l 242 1129 q 253 1156 242 1144 q 279 1167 264 1167 l 597 1167 q 624 1156 613 1167 q 635 1129 635 1144 l 635 1079 q 624 1053 635 1064 q 597 1042 613 1042 l 279 1042 z "},"Ę":{"ha":822,"x_min":119,"x_max":756,"o":"m 699 -306 q 556 -252 611 -306 q 500 -103 500 -199 q 521 0 500 -42 l 157 0 q 131 11 142 0 q 119 38 119 22 l 119 935 q 131 961 119 950 q 157 972 142 972 l 707 972 q 733 961 722 972 q 744 935 744 950 l 744 885 q 733 858 744 869 q 707 847 722 847 l 251 847 l 251 554 l 676 554 q 703 543 692 554 q 714 517 714 532 l 714 467 q 703 440 714 451 q 676 429 692 429 l 251 429 l 251 125 l 718 125 q 744 114 733 125 q 756 88 756 103 l 756 38 q 744 11 756 22 q 718 0 733 0 l 704 0 q 635 -25 658 0 q 613 -103 613 -50 q 635 -181 613 -156 q 704 -206 658 -206 l 725 -206 q 747 -214 739 -206 q 756 -236 756 -222 l 756 -275 q 747 -297 756 -289 q 725 -306 739 -306 l 699 -306 z "},"F":{"ha":801,"x_min":119,"x_max":746,"o":"m 708 972 q 735 961 724 972 q 746 935 746 950 l 746 885 q 735 858 746 869 q 708 847 724 847 l 251 847 l 251 526 l 681 526 q 707 515 696 526 q 718 489 718 504 l 718 439 q 707 413 718 424 q 681 401 696 401 l 251 401 l 251 38 q 240 11 251 22 q 214 0 229 0 l 157 0 q 131 11 142 0 q 119 38 119 22 l 119 935 q 131 961 119 950 q 157 972 142 972 l 708 972 z "},"G":{"ha":950,"x_min":82,"x_max":878,"o":"m 481 986 q 685 942 599 986 q 816 835 771 899 q 864 718 861 772 q 856 697 865 706 q 833 688 846 688 l 776 688 q 736 703 744 688 q 640 821 696 781 q 481 861 583 861 q 292 795 364 861 q 215 606 219 729 q 214 490 214 564 q 215 375 214 417 q 291 178 219 244 q 481 111 363 111 q 674 174 601 111 q 746 374 746 238 l 746 413 l 546 413 q 519 424 531 413 q 508 450 508 435 l 508 500 q 519 526 508 515 q 546 538 531 538 l 840 538 q 867 526 856 538 q 878 500 878 515 l 878 368 q 831 170 878 257 q 694 35 783 83 q 481 -14 604 -14 q 189 92 289 -14 q 83 368 89 199 q 82 490 82 410 q 83 613 82 571 q 131 803 88 719 q 263 937 175 888 q 481 986 351 986 z "},"Ğ":{"ha":950,"x_min":82,"x_max":878,"o":"m 481 986 q 685 942 599 986 q 816 835 771 899 q 864 718 861 772 q 856 697 865 706 q 833 688 846 688 l 776 688 q 736 703 744 688 q 640 821 696 781 q 481 861 583 861 q 292 795 364 861 q 215 606 219 729 q 214 490 214 564 q 215 375 214 417 q 291 178 219 244 q 481 111 363 111 q 674 174 601 111 q 746 374 746 238 l 746 413 l 546 413 q 519 424 531 413 q 508 450 508 435 l 508 500 q 519 526 508 515 q 546 538 531 538 l 840 538 q 867 526 856 538 q 878 500 878 515 l 878 368 q 831 170 878 257 q 694 35 783 83 q 481 -14 604 -14 q 189 92 289 -14 q 83 368 89 199 q 82 490 82 410 q 83 613 82 571 q 131 803 88 719 q 263 937 175 888 q 481 986 351 986 m 300 1210 q 307 1228 300 1221 q 326 1236 314 1236 l 371 1236 q 390 1228 383 1236 q 397 1210 397 1221 q 419 1150 397 1174 q 479 1126 442 1126 q 539 1150 517 1126 q 561 1210 561 1174 q 568 1228 561 1221 q 588 1236 575 1236 l 632 1236 q 651 1228 644 1236 q 658 1210 658 1221 q 613 1087 658 1139 q 479 1035 567 1035 q 346 1087 392 1035 q 300 1210 300 1139 z "},"Ĝ":{"ha":950,"x_min":82,"x_max":878,"o":"m 481 986 q 685 942 599 986 q 816 835 771 899 q 864 718 861 772 q 856 697 865 706 q 833 688 846 688 l 776 688 q 736 703 744 688 q 640 821 696 781 q 481 861 583 861 q 292 795 364 861 q 215 606 219 729 q 214 490 214 564 q 215 375 214 417 q 291 178 219 244 q 481 111 363 111 q 674 174 601 111 q 746 374 746 238 l 746 413 l 546 413 q 519 424 531 413 q 508 450 508 435 l 508 500 q 519 526 508 515 q 546 538 531 538 l 840 538 q 867 526 856 538 q 878 500 878 515 l 878 368 q 831 170 878 257 q 694 35 783 83 q 481 -14 604 -14 q 189 92 289 -14 q 83 368 89 199 q 82 490 82 410 q 83 613 82 571 q 131 803 88 719 q 263 937 175 888 q 481 986 351 986 m 500 1236 q 526 1231 515 1236 q 551 1210 538 1225 l 679 1082 q 686 1064 686 1075 q 664 1042 686 1042 l 628 1042 q 607 1045 615 1042 q 585 1057 599 1049 l 479 1128 l 374 1057 q 351 1045 360 1049 q 331 1042 343 1042 l 294 1042 q 272 1064 272 1042 q 279 1082 272 1075 l 407 1210 q 432 1231 421 1225 q 458 1236 443 1236 l 500 1236 z "},"Ģ":{"ha":950,"x_min":82,"x_max":878,"o":"m 481 986 q 685 942 599 986 q 816 835 771 899 q 864 718 861 772 q 856 697 865 706 q 833 688 846 688 l 776 688 q 736 703 744 688 q 640 821 696 781 q 481 861 583 861 q 292 795 364 861 q 215 606 219 729 q 214 490 214 564 q 215 375 214 417 q 291 178 219 244 q 481 111 363 111 q 674 174 601 111 q 746 374 746 238 l 746 413 l 546 413 q 519 424 531 413 q 508 450 508 435 l 508 500 q 519 526 508 515 q 546 538 531 538 l 840 538 q 867 526 856 538 q 878 500 878 515 l 878 368 q 831 170 878 257 q 694 35 783 83 q 481 -14 604 -14 q 189 92 289 -14 q 83 368 89 199 q 82 490 82 410 q 83 613 82 571 q 131 803 88 719 q 263 937 175 888 q 481 986 351 986 m 389 -124 q 408 -85 393 -101 q 449 -69 422 -69 l 529 -69 q 551 -78 542 -69 q 560 -100 560 -87 q 558 -110 560 -106 l 483 -303 q 424 -347 467 -347 l 390 -347 q 369 -338 378 -347 q 360 -317 360 -329 l 360 -314 l 389 -124 z "},"Ġ":{"ha":950,"x_min":82,"x_max":878,"o":"m 481 986 q 685 942 599 986 q 816 835 771 899 q 864 718 861 772 q 856 697 865 706 q 833 688 846 688 l 776 688 q 736 703 744 688 q 640 821 696 781 q 481 861 583 861 q 292 795 364 861 q 215 606 219 729 q 214 490 214 564 q 215 375 214 417 q 291 178 219 244 q 481 111 363 111 q 674 174 601 111 q 746 374 746 238 l 746 413 l 546 413 q 519 424 531 413 q 508 450 508 435 l 508 500 q 519 526 508 515 q 546 538 531 538 l 840 538 q 867 526 856 538 q 878 500 878 515 l 878 368 q 831 170 878 257 q 694 35 783 83 q 481 -14 604 -14 q 189 92 289 -14 q 83 368 89 199 q 82 490 82 410 q 83 613 82 571 q 131 803 88 719 q 263 937 175 888 q 481 986 351 986 m 557 1079 q 546 1053 557 1064 q 519 1042 535 1042 l 440 1042 q 414 1053 425 1042 q 403 1079 403 1064 l 403 1158 q 414 1185 403 1174 q 440 1196 425 1196 l 519 1196 q 546 1185 535 1196 q 557 1158 557 1174 l 557 1079 z "},"H":{"ha":992,"x_min":119,"x_max":872,"o":"m 835 972 q 861 961 850 972 q 872 935 872 950 l 872 38 q 861 11 872 22 q 835 0 850 0 l 778 0 q 751 11 763 0 q 740 38 740 22 l 740 429 l 251 429 l 251 38 q 240 11 251 22 q 214 0 229 0 l 157 0 q 131 10 142 0 q 119 38 119 21 l 119 935 q 131 961 119 950 q 157 972 142 972 l 214 972 q 240 961 229 972 q 251 935 251 950 l 251 554 l 740 554 l 740 935 q 751 961 740 950 q 778 972 763 972 l 835 972 z "},"Ħ":{"ha":1011,"x_min":32,"x_max":979,"o":"m 844 972 q 871 961 860 972 q 882 935 882 950 l 882 825 l 942 825 q 968 814 957 825 q 979 788 979 803 l 979 738 q 968 711 979 722 q 942 700 957 700 l 882 700 l 882 38 q 871 11 882 22 q 844 0 860 0 l 788 0 q 761 11 772 0 q 750 38 750 22 l 750 429 l 261 429 l 261 38 q 250 11 261 22 q 224 0 239 0 l 167 0 q 140 10 151 0 q 129 38 129 21 l 129 700 l 69 700 q 43 711 54 700 q 32 738 32 722 l 32 788 q 43 814 32 803 q 69 825 54 825 l 129 825 l 129 935 q 140 961 129 950 q 167 972 151 972 l 224 972 q 250 961 239 972 q 261 935 261 950 l 261 825 l 750 825 l 750 935 q 761 961 750 950 q 788 972 772 972 l 844 972 m 750 700 l 261 700 l 261 554 l 750 554 l 750 700 z "},"Ĥ":{"ha":992,"x_min":119,"x_max":872,"o":"m 835 972 q 861 961 850 972 q 872 935 872 950 l 872 38 q 861 11 872 22 q 835 0 850 0 l 778 0 q 751 11 763 0 q 740 38 740 22 l 740 429 l 251 429 l 251 38 q 240 11 251 22 q 214 0 229 0 l 157 0 q 131 10 142 0 q 119 38 119 21 l 119 935 q 131 961 119 950 q 157 972 142 972 l 214 972 q 240 961 229 972 q 251 935 251 950 l 251 554 l 740 554 l 740 935 q 751 961 740 950 q 778 972 763 972 l 835 972 m 517 1236 q 543 1231 532 1236 q 568 1210 554 1225 l 696 1082 q 703 1064 703 1075 q 681 1042 703 1042 l 644 1042 q 624 1045 632 1042 q 601 1057 615 1049 l 496 1128 l 390 1057 q 368 1045 376 1049 q 347 1042 360 1042 l 311 1042 q 289 1064 289 1042 q 296 1082 289 1075 l 424 1210 q 449 1231 438 1225 q 475 1236 460 1236 l 517 1236 z "},"I":{"ha":371,"x_min":119,"x_max":251,"o":"m 157 0 q 131 11 142 0 q 119 38 119 22 l 119 935 q 131 961 119 950 q 157 972 142 972 l 214 972 q 240 961 229 972 q 251 935 251 950 l 251 38 q 240 11 251 22 q 214 0 229 0 l 157 0 z "},"Ĳ":{"ha":868,"x_min":119,"x_max":757,"o":"m 157 0 q 131 11 142 0 q 119 38 119 22 l 119 935 q 131 961 119 950 q 157 972 142 972 l 214 972 q 240 961 229 972 q 251 935 251 950 l 251 38 q 240 11 251 22 q 214 0 229 0 l 157 0 m 400 111 q 570 173 517 111 q 625 354 624 235 l 625 935 q 636 961 625 950 q 663 972 647 972 l 719 972 q 746 961 735 972 q 757 935 757 950 l 757 340 q 664 83 757 179 q 400 -14 571 -14 q 374 -3 385 -14 q 363 24 363 8 l 363 74 q 374 100 363 89 q 400 111 385 111 z "},"Í":{"ha":371,"x_min":118,"x_max":418,"o":"m 157 0 q 131 11 142 0 q 119 38 119 22 l 119 935 q 131 961 119 950 q 157 972 142 972 l 214 972 q 240 961 229 972 q 251 935 251 950 l 251 38 q 240 11 251 22 q 214 0 229 0 l 157 0 m 231 1210 q 256 1231 246 1226 q 282 1236 265 1236 l 392 1236 q 411 1228 404 1236 q 418 1208 418 1221 q 411 1192 418 1199 l 257 1065 q 230 1047 242 1053 q 199 1042 218 1042 l 140 1042 q 118 1064 118 1042 q 125 1082 118 1075 l 231 1210 z "},"Ĭ":{"ha":371,"x_min":6,"x_max":364,"o":"m 157 0 q 131 11 142 0 q 119 38 119 22 l 119 935 q 131 961 119 950 q 157 972 142 972 l 214 972 q 240 961 229 972 q 251 935 251 950 l 251 38 q 240 11 251 22 q 214 0 229 0 l 157 0 m 6 1210 q 13 1228 6 1221 q 32 1236 19 1236 l 76 1236 q 96 1228 89 1236 q 103 1210 103 1221 q 125 1150 103 1174 q 185 1126 147 1126 q 244 1150 222 1126 q 267 1210 267 1174 q 274 1228 267 1221 q 293 1236 281 1236 l 338 1236 q 357 1228 350 1236 q 364 1210 364 1221 q 318 1087 364 1139 q 185 1035 272 1035 q 51 1087 97 1035 q 6 1210 6 1139 z "},"Î":{"ha":371,"x_min":-22,"x_max":392,"o":"m 157 0 q 131 11 142 0 q 119 38 119 22 l 119 935 q 131 961 119 950 q 157 972 142 972 l 214 972 q 240 961 229 972 q 251 935 251 950 l 251 38 q 240 11 251 22 q 214 0 229 0 l 157 0 m 206 1236 q 232 1231 221 1236 q 257 1210 243 1225 l 385 1082 q 392 1064 392 1075 q 369 1042 392 1042 l 333 1042 q 313 1045 321 1042 q 290 1057 304 1049 l 185 1128 l 79 1057 q 57 1045 65 1049 q 36 1042 49 1042 l 0 1042 q -22 1064 -22 1042 q -15 1082 -22 1075 l 113 1210 q 138 1231 126 1225 q 164 1236 149 1236 l 206 1236 z "},"Ï":{"ha":371,"x_min":-39,"x_max":408,"o":"m 157 0 q 131 11 142 0 q 119 38 119 22 l 119 935 q 131 961 119 950 q 157 972 142 972 l 214 972 q 240 961 229 972 q 251 935 251 950 l 251 38 q 240 11 251 22 q 214 0 229 0 l 157 0 m 115 1079 q 104 1053 115 1064 q 78 1042 93 1042 l -1 1042 q -28 1053 -17 1042 q -39 1079 -39 1064 l -39 1158 q -28 1185 -39 1174 q -1 1196 -17 1196 l 78 1196 q 104 1185 93 1196 q 115 1158 115 1174 l 115 1079 m 408 1079 q 397 1053 408 1064 q 371 1042 386 1042 l 292 1042 q 265 1053 276 1042 q 254 1079 254 1064 l 254 1158 q 265 1185 254 1174 q 292 1196 276 1196 l 371 1196 q 397 1185 386 1196 q 408 1158 408 1174 l 408 1079 z "},"İ":{"ha":371,"x_min":108,"x_max":263,"o":"m 157 0 q 131 11 142 0 q 119 38 119 22 l 119 935 q 131 961 119 950 q 157 972 142 972 l 214 972 q 240 961 229 972 q 251 935 251 950 l 251 38 q 240 11 251 22 q 214 0 229 0 l 157 0 m 263 1079 q 251 1053 263 1064 q 225 1042 240 1042 l 146 1042 q 119 1053 131 1042 q 108 1079 108 1064 l 108 1158 q 119 1185 108 1174 q 146 1196 131 1196 l 225 1196 q 251 1185 240 1196 q 263 1158 263 1174 l 263 1079 z "},"Ì":{"ha":371,"x_min":-51,"x_max":251,"o":"m 157 0 q 131 11 142 0 q 119 38 119 22 l 119 935 q 131 961 119 950 q 157 972 142 972 l 214 972 q 240 961 229 972 q 251 935 251 950 l 251 38 q 240 11 251 22 q 214 0 229 0 l 157 0 m 242 1082 q 249 1064 249 1075 q 226 1042 249 1042 l 168 1042 q 137 1047 149 1042 q 110 1065 125 1053 l -44 1192 q -51 1208 -51 1199 q -44 1228 -51 1221 q -25 1236 -37 1236 l 85 1236 q 111 1231 101 1236 q 136 1210 121 1226 l 242 1082 z "},"Ī":{"ha":371,"x_min":-11,"x_max":382,"o":"m 157 0 q 131 11 142 0 q 119 38 119 22 l 119 935 q 131 961 119 950 q 157 972 142 972 l 214 972 q 240 961 229 972 q 251 935 251 950 l 251 38 q 240 11 251 22 q 214 0 229 0 l 157 0 m 26 1042 q 0 1053 11 1042 q -11 1079 -11 1064 l -11 1129 q 0 1156 -11 1144 q 26 1167 11 1167 l 344 1167 q 371 1156 360 1167 q 382 1129 382 1144 l 382 1079 q 371 1053 382 1064 q 344 1042 360 1042 l 26 1042 z "},"Į":{"ha":396,"x_min":21,"x_max":276,"o":"m 215 0 q 133 -103 133 -4 q 156 -181 133 -156 q 225 -206 179 -206 l 246 -206 q 268 -214 260 -206 q 276 -236 276 -222 l 276 -275 q 268 -297 276 -289 q 246 -306 260 -306 l 219 -306 q 76 -252 132 -306 q 21 -103 21 -199 q 54 19 21 -29 q 144 88 88 68 l 144 935 q 156 961 144 950 q 182 972 167 972 l 239 972 q 265 961 254 972 q 276 935 276 950 l 276 38 q 265 11 276 22 q 239 0 254 0 l 215 0 z "},"Ĩ":{"ha":371,"x_min":-22,"x_max":393,"o":"m 157 0 q 131 11 142 0 q 119 38 119 22 l 119 935 q 131 961 119 950 q 157 972 142 972 l 214 972 q 240 961 229 972 q 251 935 251 950 l 251 38 q 240 11 251 22 q 214 0 229 0 l 157 0 m 115 1079 q 92 1074 100 1079 q 79 1058 85 1068 q 69 1046 74 1050 q 56 1042 64 1042 l 4 1042 q -15 1049 -8 1042 q -22 1068 -22 1057 q -9 1124 -22 1093 q 31 1178 4 1156 q 97 1201 57 1201 q 150 1194 129 1201 q 197 1175 171 1188 q 227 1161 214 1165 q 256 1157 240 1157 q 278 1163 271 1157 q 292 1178 286 1168 q 302 1190 297 1186 q 315 1194 307 1194 l 367 1194 q 386 1187 379 1194 q 393 1168 393 1179 q 380 1112 393 1143 q 340 1058 367 1081 q 274 1035 314 1035 q 219 1042 242 1035 q 172 1061 197 1049 q 144 1074 158 1068 q 115 1079 129 1079 z "},"J":{"ha":874,"x_min":47,"x_max":763,"o":"m 763 340 q 669 83 763 179 q 406 -14 576 -14 q 217 28 297 -14 q 93 138 136 69 q 47 286 50 207 q 56 308 47 299 q 78 317 65 317 l 149 317 q 179 286 172 317 q 249 160 194 208 q 406 111 304 111 q 577 174 524 111 q 631 356 631 236 l 631 847 l 151 847 q 125 858 136 847 q 114 885 114 869 l 114 935 q 125 961 114 950 q 151 972 136 972 l 725 972 q 751 961 740 972 q 763 935 763 950 l 763 340 z "},"Ĵ":{"ha":874,"x_min":47,"x_max":763,"o":"m 763 340 q 669 83 763 179 q 406 -14 576 -14 q 217 28 297 -14 q 93 138 136 69 q 47 286 50 207 q 56 308 47 299 q 78 317 65 317 l 149 317 q 179 286 172 317 q 249 160 194 208 q 406 111 304 111 q 577 174 524 111 q 631 356 631 236 l 631 847 l 151 847 q 125 858 136 847 q 114 885 114 869 l 114 935 q 125 961 114 950 q 151 972 136 972 l 725 972 q 751 961 740 972 q 763 935 763 950 l 763 340 m 471 1236 q 497 1231 486 1236 q 522 1210 508 1225 l 650 1082 q 657 1064 657 1075 q 635 1042 657 1042 l 599 1042 q 578 1045 586 1042 q 556 1057 569 1049 l 450 1128 l 344 1057 q 322 1045 331 1049 q 301 1042 314 1042 l 265 1042 q 243 1064 243 1042 q 250 1082 243 1075 l 378 1210 q 403 1231 392 1225 q 429 1236 414 1236 l 471 1236 z "},"K":{"ha":832,"x_min":119,"x_max":811,"o":"m 797 56 q 811 31 811 42 q 802 9 811 18 q 781 0 793 0 l 694 0 q 644 21 665 0 l 251 396 l 251 38 q 240 11 251 22 q 214 0 229 0 l 157 0 q 131 11 142 0 q 119 38 119 22 l 119 935 q 131 961 119 950 q 157 972 142 972 l 214 972 q 240 961 229 972 q 251 935 251 950 l 251 611 l 622 951 q 672 972 643 972 l 753 972 q 774 963 765 972 q 783 942 783 954 q 769 917 783 931 l 324 507 l 797 56 z "},"Ķ":{"ha":832,"x_min":119,"x_max":811,"o":"m 797 56 q 811 31 811 42 q 802 9 811 18 q 781 0 793 0 l 694 0 q 644 21 665 0 l 251 396 l 251 38 q 240 11 251 22 q 214 0 229 0 l 157 0 q 131 11 142 0 q 119 38 119 22 l 119 935 q 131 961 119 950 q 157 972 142 972 l 214 972 q 240 961 229 972 q 251 935 251 950 l 251 611 l 622 951 q 672 972 643 972 l 753 972 q 774 963 765 972 q 783 942 783 954 q 769 917 783 931 l 324 507 l 797 56 m 319 -124 q 338 -85 324 -101 q 379 -69 353 -69 l 460 -69 q 481 -78 472 -69 q 490 -100 490 -87 q 489 -110 490 -106 l 414 -303 q 354 -347 397 -347 l 321 -347 q 299 -338 308 -347 q 290 -317 290 -329 l 290 -314 l 319 -124 z "},"L":{"ha":786,"x_min":119,"x_max":760,"o":"m 722 125 q 749 114 738 125 q 760 88 760 103 l 760 38 q 749 11 760 22 q 722 0 738 0 l 157 0 q 131 11 142 0 q 119 38 119 22 l 119 935 q 131 961 119 950 q 157 972 142 972 l 214 972 q 240 961 229 972 q 251 935 251 950 l 251 125 l 722 125 z "},"Ĺ":{"ha":786,"x_min":117,"x_max":760,"o":"m 722 125 q 749 114 738 125 q 760 88 760 103 l 760 38 q 749 11 760 22 q 722 0 738 0 l 157 0 q 131 11 142 0 q 119 38 119 22 l 119 935 q 131 961 119 950 q 157 972 142 972 l 214 972 q 240 961 229 972 q 251 935 251 950 l 251 125 l 722 125 m 229 1210 q 254 1231 244 1226 q 281 1236 264 1236 l 390 1236 q 410 1228 403 1236 q 417 1208 417 1221 q 410 1192 417 1199 l 256 1065 q 228 1047 240 1053 q 197 1042 217 1042 l 139 1042 q 117 1064 117 1042 q 124 1082 117 1075 l 229 1210 z "},"Ľ":{"ha":786,"x_min":119,"x_max":760,"o":"m 722 125 q 749 114 738 125 q 760 88 760 103 l 760 38 q 749 11 760 22 q 722 0 738 0 l 157 0 q 131 11 142 0 q 119 38 119 22 l 119 935 q 131 961 119 950 q 157 972 142 972 l 214 972 q 240 961 229 972 q 251 935 251 950 l 251 125 l 722 125 m 446 931 q 465 969 450 953 q 506 985 479 985 l 586 985 q 608 976 599 985 q 617 954 617 967 q 615 944 617 949 l 540 751 q 481 707 524 707 l 447 707 q 426 716 435 707 q 417 738 417 725 l 417 740 l 446 931 z "},"Ļ":{"ha":786,"x_min":119,"x_max":760,"o":"m 722 125 q 749 114 738 125 q 760 88 760 103 l 760 38 q 749 11 760 22 q 722 0 738 0 l 157 0 q 131 11 142 0 q 119 38 119 22 l 119 935 q 131 961 119 950 q 157 972 142 972 l 214 972 q 240 961 229 972 q 251 935 251 950 l 251 125 l 722 125 m 357 -124 q 376 -85 361 -101 q 417 -69 390 -69 l 497 -69 q 519 -78 510 -69 q 528 -100 528 -87 q 526 -110 528 -106 l 451 -303 q 392 -347 435 -347 l 358 -347 q 337 -338 346 -347 q 328 -317 328 -329 l 328 -314 l 357 -124 z "},"Ŀ":{"ha":786,"x_min":119,"x_max":760,"o":"m 722 125 q 749 114 738 125 q 760 88 760 103 l 760 38 q 749 11 760 22 q 722 0 738 0 l 157 0 q 131 11 142 0 q 119 38 119 22 l 119 935 q 131 961 119 950 q 157 972 142 972 l 214 972 q 240 961 229 972 q 251 935 251 950 l 251 125 l 722 125 m 567 461 q 556 435 567 446 q 529 424 544 424 l 450 424 q 424 435 435 424 q 413 461 413 446 l 413 540 q 424 567 413 556 q 450 578 435 578 l 529 578 q 556 567 544 578 q 567 540 567 556 l 567 461 z "},"Ł":{"ha":804,"x_min":26,"x_max":778,"o":"m 740 125 q 767 114 756 125 q 778 88 778 103 l 778 38 q 767 11 778 22 q 740 0 756 0 l 175 0 q 149 11 160 0 q 138 38 138 22 l 138 374 l 71 349 q 56 344 61 344 q 35 353 43 344 q 26 374 26 361 l 26 413 q 33 442 26 432 q 57 458 40 453 l 138 489 l 138 935 q 149 961 138 950 q 175 972 160 972 l 232 972 q 258 961 247 972 q 269 935 269 950 l 269 540 l 481 624 q 496 628 490 628 q 517 619 508 628 q 525 599 525 611 l 525 560 q 518 531 525 542 q 494 514 511 521 l 269 425 l 269 125 l 740 125 z "},"M":{"ha":1103,"x_min":119,"x_max":983,"o":"m 832 928 q 893 972 854 972 l 946 972 q 972 961 961 972 q 983 935 983 950 l 983 38 q 972 11 983 22 q 946 0 961 0 l 889 0 q 863 11 874 0 q 851 38 851 22 l 851 696 l 635 278 q 610 244 624 256 q 578 233 597 233 l 525 233 q 492 244 506 233 q 468 278 479 256 l 251 696 l 251 38 q 240 11 251 22 q 214 0 229 0 l 157 0 q 131 11 142 0 q 119 38 119 22 l 119 935 q 131 961 119 950 q 157 972 142 972 l 210 972 q 271 928 249 972 l 551 385 l 832 928 z "},"N":{"ha":964,"x_min":119,"x_max":844,"o":"m 758 0 q 728 11 740 0 q 703 42 715 22 l 251 721 l 251 38 q 240 11 251 22 q 214 0 229 0 l 157 0 q 131 11 142 0 q 119 38 119 22 l 119 935 q 131 961 119 950 q 157 972 142 972 l 206 972 q 236 961 224 972 q 261 931 249 950 l 713 251 l 713 935 q 724 961 713 950 q 750 972 735 972 l 807 972 q 833 961 822 972 q 844 935 844 950 l 844 38 q 833 11 844 22 q 807 0 822 0 l 758 0 z "},"Ń":{"ha":964,"x_min":119,"x_max":844,"o":"m 758 0 q 728 11 740 0 q 703 42 715 22 l 251 721 l 251 38 q 240 11 251 22 q 214 0 229 0 l 157 0 q 131 11 142 0 q 119 38 119 22 l 119 935 q 131 961 119 950 q 157 972 142 972 l 206 972 q 236 961 224 972 q 261 931 249 950 l 713 251 l 713 935 q 724 961 713 950 q 750 972 735 972 l 807 972 q 833 961 822 972 q 844 935 844 950 l 844 38 q 833 11 844 22 q 807 0 822 0 l 758 0 m 528 1210 q 553 1231 543 1226 q 579 1236 563 1236 l 689 1236 q 708 1228 701 1236 q 715 1208 715 1221 q 708 1192 715 1199 l 554 1065 q 527 1047 539 1053 q 496 1042 515 1042 l 438 1042 q 415 1064 415 1042 q 422 1082 415 1075 l 528 1210 z "},"Ň":{"ha":964,"x_min":119,"x_max":844,"o":"m 758 0 q 728 11 740 0 q 703 42 715 22 l 251 721 l 251 38 q 240 11 251 22 q 214 0 229 0 l 157 0 q 131 11 142 0 q 119 38 119 22 l 119 935 q 131 961 119 950 q 157 972 142 972 l 206 972 q 236 961 224 972 q 261 931 249 950 l 713 251 l 713 935 q 724 961 713 950 q 750 972 735 972 l 807 972 q 833 961 822 972 q 844 935 844 950 l 844 38 q 833 11 844 22 q 807 0 822 0 l 758 0 m 461 1042 q 435 1047 446 1042 q 410 1068 424 1053 l 282 1196 q 275 1214 275 1203 q 297 1236 275 1236 l 333 1236 q 354 1233 346 1236 q 376 1221 363 1229 l 482 1150 l 588 1221 q 610 1233 601 1229 q 631 1236 618 1236 l 667 1236 q 689 1214 689 1236 q 682 1196 689 1203 l 554 1068 q 529 1047 540 1053 q 503 1042 518 1042 l 461 1042 z "},"Ņ":{"ha":964,"x_min":119,"x_max":844,"o":"m 758 0 q 728 11 740 0 q 703 42 715 22 l 251 721 l 251 38 q 240 11 251 22 q 214 0 229 0 l 157 0 q 131 11 142 0 q 119 38 119 22 l 119 935 q 131 961 119 950 q 157 972 142 972 l 206 972 q 236 961 224 972 q 261 931 249 950 l 713 251 l 713 935 q 724 961 713 950 q 750 972 735 972 l 807 972 q 833 961 822 972 q 844 935 844 950 l 844 38 q 833 11 844 22 q 807 0 822 0 l 758 0 m 399 -124 q 417 -85 403 -101 q 458 -69 432 -69 l 539 -69 q 560 -78 551 -69 q 569 -100 569 -87 q 568 -110 569 -106 l 493 -303 q 433 -347 476 -347 l 400 -347 q 378 -338 388 -347 q 369 -317 369 -329 l 369 -314 l 399 -124 z "},"Ŋ":{"ha":964,"x_min":119,"x_max":844,"o":"m 251 721 l 251 38 q 240 11 251 22 q 214 0 229 0 l 157 0 q 131 11 142 0 q 119 38 119 22 l 119 935 q 131 961 119 950 q 157 972 142 972 l 206 972 q 236 961 224 972 q 261 931 249 950 l 713 251 l 713 935 q 724 961 713 950 q 750 972 735 972 l 807 972 q 833 961 822 972 q 844 935 844 950 l 844 -64 q 789 -250 844 -187 q 615 -312 733 -312 l 583 -312 q 557 -301 568 -312 q 546 -275 546 -290 l 546 -225 q 557 -199 546 -210 q 583 -187 568 -187 l 596 -187 q 688 -156 664 -187 q 713 -64 713 -124 l 713 26 l 251 721 z "},"Ñ":{"ha":964,"x_min":119,"x_max":844,"o":"m 758 0 q 728 11 740 0 q 703 42 715 22 l 251 721 l 251 38 q 240 11 251 22 q 214 0 229 0 l 157 0 q 131 11 142 0 q 119 38 119 22 l 119 935 q 131 961 119 950 q 157 972 142 972 l 206 972 q 236 961 224 972 q 261 931 249 950 l 713 251 l 713 935 q 724 961 713 950 q 750 972 735 972 l 807 972 q 833 961 822 972 q 844 935 844 950 l 844 38 q 833 11 844 22 q 807 0 822 0 l 758 0 m 413 1079 q 390 1074 397 1079 q 376 1058 382 1068 q 366 1046 371 1050 q 353 1042 361 1042 l 301 1042 q 282 1049 289 1042 q 275 1068 275 1057 q 288 1124 275 1093 q 328 1178 301 1156 q 394 1201 354 1201 q 447 1194 426 1201 q 494 1175 468 1188 q 524 1161 511 1165 q 553 1157 538 1157 q 576 1163 568 1157 q 589 1178 583 1168 q 599 1190 594 1186 q 613 1194 604 1194 l 664 1194 q 683 1187 676 1194 q 690 1168 690 1179 q 677 1112 690 1143 q 638 1058 664 1081 q 571 1035 611 1035 q 517 1042 539 1035 q 469 1061 494 1049 q 441 1074 456 1068 q 413 1079 426 1079 z "},"O":{"ha":933,"x_min":82,"x_max":853,"o":"m 467 986 q 671 936 585 986 q 802 801 757 886 q 850 610 847 715 q 853 486 853 526 q 850 363 853 446 q 801 172 846 257 q 670 36 756 86 q 467 -14 585 -14 q 263 36 349 -14 q 133 172 178 86 q 83 363 88 257 q 82 486 82 404 q 83 610 82 568 q 131 801 86 715 q 263 936 176 886 q 467 986 349 986 m 467 861 q 288 796 356 861 q 215 603 219 731 q 214 486 214 561 q 215 369 214 411 q 288 176 219 242 q 467 111 356 111 q 646 176 578 111 q 718 369 714 242 q 721 486 721 453 q 718 603 721 519 q 646 796 714 731 q 467 861 578 861 z "},"Ó":{"ha":933,"x_min":82,"x_max":853,"o":"m 467 986 q 671 936 585 986 q 802 801 757 886 q 850 610 847 715 q 853 486 853 526 q 850 363 853 446 q 801 172 846 257 q 670 36 756 86 q 467 -14 585 -14 q 263 36 349 -14 q 133 172 178 86 q 83 363 88 257 q 82 486 82 404 q 83 610 82 568 q 131 801 86 715 q 263 936 176 886 q 467 986 349 986 m 467 861 q 288 796 356 861 q 215 603 219 731 q 214 486 214 561 q 215 369 214 411 q 288 176 219 242 q 467 111 356 111 q 646 176 578 111 q 718 369 714 242 q 721 486 721 453 q 718 603 721 519 q 646 796 714 731 q 467 861 578 861 m 517 1210 q 542 1231 532 1226 q 568 1236 551 1236 l 678 1236 q 697 1228 690 1236 q 704 1208 704 1221 q 697 1192 704 1199 l 543 1065 q 516 1047 528 1053 q 485 1042 504 1042 l 426 1042 q 404 1064 404 1042 q 411 1082 404 1075 l 517 1210 z "},"Ŏ":{"ha":933,"x_min":82,"x_max":853,"o":"m 467 986 q 671 936 585 986 q 802 801 757 886 q 850 610 847 715 q 853 486 853 526 q 850 363 853 446 q 801 172 846 257 q 670 36 756 86 q 467 -14 585 -14 q 263 36 349 -14 q 133 172 178 86 q 83 363 88 257 q 82 486 82 404 q 83 610 82 568 q 131 801 86 715 q 263 936 176 886 q 467 986 349 986 m 467 861 q 288 796 356 861 q 215 603 219 731 q 214 486 214 561 q 215 369 214 411 q 288 176 219 242 q 467 111 356 111 q 646 176 578 111 q 718 369 714 242 q 721 486 721 453 q 718 603 721 519 q 646 796 714 731 q 467 861 578 861 m 288 1210 q 294 1228 288 1221 q 314 1236 301 1236 l 358 1236 q 378 1228 371 1236 q 385 1210 385 1221 q 407 1150 385 1174 q 467 1126 429 1126 q 526 1150 504 1126 q 549 1210 549 1174 q 556 1228 549 1221 q 575 1236 563 1236 l 619 1236 q 639 1228 632 1236 q 646 1210 646 1221 q 600 1087 646 1139 q 467 1035 554 1035 q 333 1087 379 1035 q 288 1210 288 1139 z "},"Ô":{"ha":933,"x_min":82,"x_max":853,"o":"m 467 986 q 671 936 585 986 q 802 801 757 886 q 850 610 847 715 q 853 486 853 526 q 850 363 853 446 q 801 172 846 257 q 670 36 756 86 q 467 -14 585 -14 q 263 36 349 -14 q 133 172 178 86 q 83 363 88 257 q 82 486 82 404 q 83 610 82 568 q 131 801 86 715 q 263 936 176 886 q 467 986 349 986 m 467 861 q 288 796 356 861 q 215 603 219 731 q 214 486 214 561 q 215 369 214 411 q 288 176 219 242 q 467 111 356 111 q 646 176 578 111 q 718 369 714 242 q 721 486 721 453 q 718 603 721 519 q 646 796 714 731 q 467 861 578 861 m 488 1236 q 514 1231 503 1236 q 539 1210 525 1225 l 667 1082 q 674 1064 674 1075 q 651 1042 674 1042 l 615 1042 q 594 1045 603 1042 q 572 1057 586 1049 l 467 1128 l 361 1057 q 339 1045 347 1049 q 318 1042 331 1042 l 282 1042 q 260 1064 260 1042 q 267 1082 260 1075 l 394 1210 q 419 1231 408 1225 q 446 1236 431 1236 l 488 1236 z "},"Ö":{"ha":933,"x_min":82,"x_max":853,"o":"m 467 986 q 671 936 585 986 q 802 801 757 886 q 850 610 847 715 q 853 486 853 526 q 850 363 853 446 q 801 172 846 257 q 670 36 756 86 q 467 -14 585 -14 q 263 36 349 -14 q 133 172 178 86 q 83 363 88 257 q 82 486 82 404 q 83 610 82 568 q 131 801 86 715 q 263 936 176 886 q 467 986 349 986 m 467 861 q 288 796 356 861 q 215 603 219 731 q 214 486 214 561 q 215 369 214 411 q 288 176 219 242 q 467 111 356 111 q 646 176 578 111 q 718 369 714 242 q 721 486 721 453 q 718 603 721 519 q 646 796 714 731 q 467 861 578 861 m 397 1079 q 386 1053 397 1064 q 360 1042 375 1042 l 281 1042 q 254 1053 265 1042 q 243 1079 243 1064 l 243 1158 q 254 1185 243 1174 q 281 1196 265 1196 l 360 1196 q 386 1185 375 1196 q 397 1158 397 1174 l 397 1079 m 690 1079 q 679 1053 690 1064 q 653 1042 668 1042 l 574 1042 q 547 1053 558 1042 q 536 1079 536 1064 l 536 1158 q 547 1185 536 1174 q 574 1196 558 1196 l 653 1196 q 679 1185 668 1196 q 690 1158 690 1174 l 690 1079 z "},"Ò":{"ha":933,"x_min":82,"x_max":853,"o":"m 467 986 q 671 936 585 986 q 802 801 757 886 q 850 610 847 715 q 853 486 853 526 q 850 363 853 446 q 801 172 846 257 q 670 36 756 86 q 467 -14 585 -14 q 263 36 349 -14 q 133 172 178 86 q 83 363 88 257 q 82 486 82 404 q 83 610 82 568 q 131 801 86 715 q 263 936 176 886 q 467 986 349 986 m 467 861 q 288 796 356 861 q 215 603 219 731 q 214 486 214 561 q 215 369 214 411 q 288 176 219 242 q 467 111 356 111 q 646 176 578 111 q 718 369 714 242 q 721 486 721 453 q 718 603 721 519 q 646 796 714 731 q 467 861 578 861 m 526 1082 q 533 1064 533 1075 q 511 1042 533 1042 l 453 1042 q 422 1047 433 1042 q 394 1065 410 1053 l 240 1192 q 233 1208 233 1199 q 240 1228 233 1221 q 260 1236 247 1236 l 369 1236 q 396 1231 386 1236 q 421 1210 406 1226 l 526 1082 z "},"Ő":{"ha":933,"x_min":82,"x_max":853,"o":"m 467 986 q 671 936 585 986 q 802 801 757 886 q 850 610 847 715 q 853 486 853 526 q 850 363 853 446 q 801 172 846 257 q 670 36 756 86 q 467 -14 585 -14 q 263 36 349 -14 q 133 172 178 86 q 83 363 88 257 q 82 486 82 404 q 83 610 82 568 q 131 801 86 715 q 263 936 176 886 q 467 986 349 986 m 467 861 q 288 796 356 861 q 215 603 219 731 q 214 486 214 561 q 215 369 214 411 q 288 176 219 242 q 467 111 356 111 q 646 176 578 111 q 718 369 714 242 q 721 486 721 453 q 718 603 721 519 q 646 796 714 731 q 467 861 578 861 m 336 1210 q 355 1230 343 1224 q 388 1236 367 1236 l 490 1236 q 510 1229 503 1236 q 518 1210 518 1222 q 510 1192 518 1200 l 389 1061 q 342 1042 372 1042 l 296 1042 q 274 1064 274 1042 q 281 1085 274 1071 l 336 1210 m 589 1210 q 608 1230 596 1224 q 640 1236 619 1236 l 743 1236 q 763 1229 756 1236 q 771 1210 771 1222 q 763 1192 771 1200 l 642 1061 q 594 1042 625 1042 l 549 1042 q 526 1064 526 1042 q 533 1085 526 1071 l 589 1210 z "},"Ō":{"ha":933,"x_min":82,"x_max":853,"o":"m 467 986 q 671 936 585 986 q 802 801 757 886 q 850 610 847 715 q 853 486 853 526 q 850 363 853 446 q 801 172 846 257 q 670 36 756 86 q 467 -14 585 -14 q 263 36 349 -14 q 133 172 178 86 q 83 363 88 257 q 82 486 82 404 q 83 610 82 568 q 131 801 86 715 q 263 936 176 886 q 467 986 349 986 m 467 861 q 288 796 356 861 q 215 603 219 731 q 214 486 214 561 q 215 369 214 411 q 288 176 219 242 q 467 111 356 111 q 646 176 578 111 q 718 369 714 242 q 721 486 721 453 q 718 603 721 519 q 646 796 714 731 q 467 861 578 861 m 308 1042 q 282 1053 293 1042 q 271 1079 271 1064 l 271 1129 q 282 1156 271 1144 q 308 1167 293 1167 l 626 1167 q 653 1156 642 1167 q 664 1129 664 1144 l 664 1079 q 653 1053 664 1064 q 626 1042 642 1042 l 308 1042 z "},"Ø":{"ha":957,"x_min":11,"x_max":944,"o":"m 479 986 q 729 905 632 986 q 853 690 826 824 l 900 708 q 915 713 910 713 q 936 704 928 713 q 944 683 944 696 l 944 644 q 938 616 944 626 q 914 599 931 606 l 863 579 q 865 475 865 507 q 863 369 865 444 q 813 173 858 260 q 683 36 768 86 q 479 -14 597 -14 q 230 67 326 -14 q 106 282 133 147 l 56 263 q 40 258 46 258 q 19 267 28 258 q 11 288 11 275 l 11 326 q 18 356 11 346 q 42 372 25 367 l 94 393 l 93 479 q 96 603 93 514 q 144 799 99 713 q 274 936 189 886 q 479 986 360 986 m 728 640 q 647 805 714 749 q 479 861 581 861 q 300 796 368 861 q 228 603 232 731 q 225 444 225 546 l 728 640 m 231 331 q 310 167 243 222 q 479 111 376 111 q 658 176 590 111 q 731 369 726 242 q 732 482 732 410 l 732 528 l 231 331 z "},"Ǿ":{"ha":957,"x_min":11,"x_max":944,"o":"m 518 1210 q 543 1231 533 1226 q 569 1236 553 1236 l 679 1236 q 699 1228 692 1236 q 706 1208 706 1221 q 699 1192 706 1199 l 544 1065 q 517 1047 529 1053 q 486 1042 506 1042 l 428 1042 q 406 1064 406 1042 q 413 1082 406 1075 l 518 1210 m 479 986 q 729 905 632 986 q 853 690 826 824 l 900 708 q 915 713 910 713 q 936 704 928 713 q 944 683 944 696 l 944 644 q 938 616 944 626 q 914 599 931 606 l 863 579 q 865 475 865 507 q 863 369 865 444 q 813 173 858 260 q 683 36 768 86 q 479 -14 597 -14 q 230 67 326 -14 q 106 282 133 147 l 56 263 q 40 258 46 258 q 19 267 28 258 q 11 288 11 275 l 11 326 q 18 356 11 346 q 42 372 25 367 l 94 393 l 93 479 q 96 603 93 514 q 144 799 99 713 q 274 936 189 886 q 479 986 360 986 m 728 640 q 647 805 714 749 q 479 861 581 861 q 300 796 368 861 q 228 603 232 731 q 225 444 225 546 l 728 640 m 231 331 q 310 167 243 222 q 479 111 376 111 q 658 176 590 111 q 731 369 726 242 q 732 482 732 410 l 732 528 l 231 331 z "},"Õ":{"ha":933,"x_min":82,"x_max":853,"o":"m 467 986 q 671 936 585 986 q 802 801 757 886 q 850 610 847 715 q 853 486 853 526 q 850 363 853 446 q 801 172 846 257 q 670 36 756 86 q 467 -14 585 -14 q 263 36 349 -14 q 133 172 178 86 q 83 363 88 257 q 82 486 82 404 q 83 610 82 568 q 131 801 86 715 q 263 936 176 886 q 467 986 349 986 m 467 861 q 288 796 356 861 q 215 603 219 731 q 214 486 214 561 q 215 369 214 411 q 288 176 219 242 q 467 111 356 111 q 646 176 578 111 q 718 369 714 242 q 721 486 721 453 q 718 603 721 519 q 646 796 714 731 q 467 861 578 861 m 397 1079 q 374 1074 382 1079 q 361 1058 367 1068 q 351 1046 356 1050 q 338 1042 346 1042 l 286 1042 q 267 1049 274 1042 q 260 1068 260 1057 q 273 1124 260 1093 q 313 1178 286 1156 q 379 1201 339 1201 q 432 1194 411 1201 q 479 1175 453 1188 q 509 1161 496 1165 q 538 1157 522 1157 q 560 1163 553 1157 q 574 1178 568 1168 q 584 1190 579 1186 q 597 1194 589 1194 l 649 1194 q 668 1187 661 1194 q 675 1168 675 1179 q 662 1112 675 1143 q 622 1058 649 1081 q 556 1035 596 1035 q 501 1042 524 1035 q 454 1061 479 1049 q 426 1074 440 1068 q 397 1079 411 1079 z "},"Œ":{"ha":1278,"x_min":81,"x_max":1211,"o":"m 1174 125 q 1200 114 1189 125 q 1211 88 1211 103 l 1211 38 q 1200 11 1211 22 q 1174 0 1189 0 l 472 0 q 271 45 358 0 q 133 176 183 90 q 82 376 83 261 l 81 486 l 82 596 q 135 797 83 711 q 276 927 186 882 q 481 972 365 972 l 1163 972 q 1189 961 1178 972 q 1200 935 1200 950 l 1200 885 q 1189 858 1200 869 q 1163 847 1178 847 l 707 847 l 707 554 l 1132 554 q 1158 543 1147 554 q 1169 517 1169 532 l 1169 467 q 1158 440 1169 451 q 1132 429 1147 429 l 707 429 l 707 125 l 1174 125 m 214 383 q 278 197 217 269 q 479 125 340 125 l 575 125 l 575 847 l 486 847 q 282 774 347 847 q 214 589 217 701 l 213 486 l 214 383 z "},"P":{"ha":889,"x_min":119,"x_max":842,"o":"m 507 972 q 747 897 651 972 q 842 678 842 822 q 797 513 842 581 q 676 411 751 444 q 507 378 600 378 l 251 378 l 251 38 q 240 11 251 22 q 214 0 229 0 l 157 0 q 131 11 142 0 q 119 38 119 22 l 119 935 q 131 961 119 950 q 157 972 142 972 l 507 972 m 500 503 q 656 547 601 503 q 710 678 710 590 q 500 847 710 847 l 251 847 l 251 503 l 500 503 z "},"Þ":{"ha":894,"x_min":119,"x_max":842,"o":"m 507 781 q 747 706 651 781 q 842 486 842 631 q 797 321 842 389 q 676 219 751 253 q 507 186 600 186 l 251 186 l 251 38 q 240 11 251 22 q 214 0 229 0 l 157 0 q 131 11 142 0 q 119 38 119 22 l 119 935 q 131 961 119 950 q 157 972 142 972 l 214 972 q 240 961 229 972 q 251 935 251 950 l 251 781 l 507 781 m 500 311 q 656 355 601 311 q 710 486 710 399 q 500 656 710 656 l 251 656 l 251 311 l 500 311 z "},"Q":{"ha":933,"x_min":82,"x_max":853,"o":"m 467 986 q 671 936 585 986 q 802 801 757 886 q 850 610 847 715 q 853 486 853 526 q 850 363 853 446 q 820 213 847 282 q 743 93 793 143 l 846 -47 q 850 -61 850 -56 q 842 -82 850 -74 q 822 -90 835 -90 l 757 -90 q 722 -81 735 -90 q 699 -58 708 -72 l 640 21 q 467 -14 564 -14 q 263 36 349 -14 q 133 172 178 86 q 83 363 88 257 q 82 486 82 404 q 83 610 82 568 q 131 801 86 715 q 263 936 176 886 q 467 986 349 986 m 467 861 q 288 796 356 861 q 215 603 219 731 q 214 486 214 561 q 215 369 214 411 q 288 176 219 242 q 467 111 356 111 q 646 176 578 111 q 718 369 714 242 q 721 486 721 453 q 718 603 721 519 q 646 796 714 731 q 467 861 578 861 z "},"R":{"ha":904,"x_min":119,"x_max":842,"o":"m 493 972 q 733 901 639 972 q 828 685 828 829 q 774 508 828 576 q 628 411 719 440 l 838 46 q 842 31 842 38 q 833 9 842 18 q 811 0 824 0 l 751 0 q 692 38 713 0 l 490 392 l 251 392 l 251 38 q 240 11 251 22 q 214 0 229 0 l 157 0 q 131 11 142 0 q 119 38 119 22 l 119 935 q 131 961 119 950 q 157 972 142 972 l 493 972 m 486 517 q 696 685 696 517 q 643 809 696 771 q 486 847 590 847 l 251 847 l 251 517 l 486 517 z "},"Ŕ":{"ha":904,"x_min":119,"x_max":842,"o":"m 493 972 q 733 901 639 972 q 828 685 828 829 q 774 508 828 576 q 628 411 719 440 l 838 46 q 842 31 842 38 q 833 9 842 18 q 811 0 824 0 l 751 0 q 692 38 713 0 l 490 392 l 251 392 l 251 38 q 240 11 251 22 q 214 0 229 0 l 157 0 q 131 11 142 0 q 119 38 119 22 l 119 935 q 131 961 119 950 q 157 972 142 972 l 493 972 m 486 517 q 696 685 696 517 q 643 809 696 771 q 486 847 590 847 l 251 847 l 251 517 l 486 517 m 446 1210 q 471 1231 461 1226 q 497 1236 481 1236 l 607 1236 q 626 1228 619 1236 q 633 1208 633 1221 q 626 1192 633 1199 l 472 1065 q 445 1047 457 1053 q 414 1042 433 1042 l 356 1042 q 333 1064 333 1042 q 340 1082 333 1075 l 446 1210 z "},"Ř":{"ha":904,"x_min":119,"x_max":842,"o":"m 493 972 q 733 901 639 972 q 828 685 828 829 q 774 508 828 576 q 628 411 719 440 l 838 46 q 842 31 842 38 q 833 9 842 18 q 811 0 824 0 l 751 0 q 692 38 713 0 l 490 392 l 251 392 l 251 38 q 240 11 251 22 q 214 0 229 0 l 157 0 q 131 11 142 0 q 119 38 119 22 l 119 935 q 131 961 119 950 q 157 972 142 972 l 493 972 m 486 517 q 696 685 696 517 q 643 809 696 771 q 486 847 590 847 l 251 847 l 251 517 l 486 517 m 410 1042 q 383 1047 394 1042 q 358 1068 372 1053 l 231 1196 q 224 1214 224 1203 q 246 1236 224 1236 l 282 1236 q 303 1233 294 1236 q 325 1221 311 1229 l 431 1150 l 536 1221 q 558 1233 550 1229 q 579 1236 567 1236 l 615 1236 q 638 1214 638 1236 q 631 1196 638 1203 l 503 1068 q 478 1047 489 1053 q 451 1042 467 1042 l 410 1042 z "},"Ŗ":{"ha":904,"x_min":119,"x_max":842,"o":"m 493 972 q 733 901 639 972 q 828 685 828 829 q 774 508 828 576 q 628 411 719 440 l 838 46 q 842 31 842 38 q 833 9 842 18 q 811 0 824 0 l 751 0 q 692 38 713 0 l 490 392 l 251 392 l 251 38 q 240 11 251 22 q 214 0 229 0 l 157 0 q 131 11 142 0 q 119 38 119 22 l 119 935 q 131 961 119 950 q 157 972 142 972 l 493 972 m 486 517 q 696 685 696 517 q 643 809 696 771 q 486 847 590 847 l 251 847 l 251 517 l 486 517 m 357 -124 q 376 -85 361 -101 q 417 -69 390 -69 l 497 -69 q 519 -78 510 -69 q 528 -100 528 -87 q 526 -110 528 -106 l 451 -303 q 392 -347 435 -347 l 358 -347 q 337 -338 346 -347 q 328 -317 328 -329 l 328 -314 l 357 -124 z "},"S":{"ha":858,"x_min":53,"x_max":799,"o":"m 771 735 q 763 713 772 722 q 740 704 753 704 l 683 704 q 658 710 667 704 q 640 735 650 717 q 563 819 618 778 q 418 861 508 861 q 277 824 335 861 q 219 717 219 786 q 248 640 219 669 q 334 588 276 610 q 508 536 392 567 q 733 434 667 494 q 799 269 799 374 q 752 122 799 186 q 621 22 706 58 q 425 -14 536 -14 q 238 25 322 -14 q 104 124 153 64 q 53 244 56 185 q 62 266 53 257 q 83 275 71 275 l 140 275 q 165 269 156 275 q 183 244 175 263 q 265 153 206 194 q 425 111 324 111 q 597 155 526 111 q 667 269 667 199 q 630 347 667 315 q 529 399 593 378 q 342 453 465 421 q 147 553 207 488 q 88 717 88 619 q 125 850 88 789 q 238 949 163 911 q 418 986 313 986 q 603 945 524 986 q 725 844 682 904 q 771 735 768 785 z "},"Ś":{"ha":858,"x_min":53,"x_max":799,"o":"m 771 735 q 763 713 772 722 q 740 704 753 704 l 683 704 q 658 710 667 704 q 640 735 650 717 q 563 819 618 778 q 418 861 508 861 q 277 824 335 861 q 219 717 219 786 q 248 640 219 669 q 334 588 276 610 q 508 536 392 567 q 733 434 667 494 q 799 269 799 374 q 752 122 799 186 q 621 22 706 58 q 425 -14 536 -14 q 238 25 322 -14 q 104 124 153 64 q 53 244 56 185 q 62 266 53 257 q 83 275 71 275 l 140 275 q 165 269 156 275 q 183 244 175 263 q 265 153 206 194 q 425 111 324 111 q 597 155 526 111 q 667 269 667 199 q 630 347 667 315 q 529 399 593 378 q 342 453 465 421 q 147 553 207 488 q 88 717 88 619 q 125 850 88 789 q 238 949 163 911 q 418 986 313 986 q 603 945 524 986 q 725 844 682 904 q 771 735 768 785 m 471 1210 q 496 1231 486 1226 q 522 1236 506 1236 l 632 1236 q 651 1228 644 1236 q 658 1208 658 1221 q 651 1192 658 1199 l 497 1065 q 470 1047 482 1053 q 439 1042 458 1042 l 381 1042 q 358 1064 358 1042 q 365 1082 358 1075 l 471 1210 z "},"Š":{"ha":858,"x_min":53,"x_max":799,"o":"m 771 735 q 763 713 772 722 q 740 704 753 704 l 683 704 q 658 710 667 704 q 640 735 650 717 q 563 819 618 778 q 418 861 508 861 q 277 824 335 861 q 219 717 219 786 q 248 640 219 669 q 334 588 276 610 q 508 536 392 567 q 733 434 667 494 q 799 269 799 374 q 752 122 799 186 q 621 22 706 58 q 425 -14 536 -14 q 238 25 322 -14 q 104 124 153 64 q 53 244 56 185 q 62 266 53 257 q 83 275 71 275 l 140 275 q 165 269 156 275 q 183 244 175 263 q 265 153 206 194 q 425 111 324 111 q 597 155 526 111 q 667 269 667 199 q 630 347 667 315 q 529 399 593 378 q 342 453 465 421 q 147 553 207 488 q 88 717 88 619 q 125 850 88 789 q 238 949 163 911 q 418 986 313 986 q 603 945 524 986 q 725 844 682 904 q 771 735 768 785 m 404 1042 q 378 1047 389 1042 q 353 1068 367 1053 l 225 1196 q 218 1214 218 1203 q 240 1236 218 1236 l 276 1236 q 297 1233 289 1236 q 319 1221 306 1229 l 425 1150 l 531 1221 q 553 1233 544 1229 q 574 1236 561 1236 l 610 1236 q 632 1214 632 1236 q 625 1196 632 1203 l 497 1068 q 472 1047 483 1053 q 446 1042 461 1042 l 404 1042 z "},"Ş":{"ha":858,"x_min":53,"x_max":799,"o":"m 771 735 q 763 713 772 722 q 740 704 753 704 l 683 704 q 658 710 667 704 q 640 735 650 717 q 563 819 618 778 q 418 861 508 861 q 277 824 335 861 q 219 717 219 786 q 248 640 219 669 q 334 588 276 610 q 508 536 392 567 q 733 434 667 494 q 799 269 799 374 q 753 124 799 188 q 623 23 707 60 q 429 -14 539 -14 l 400 -78 q 449 -67 418 -67 q 524 -100 494 -67 q 554 -183 554 -133 q 520 -272 554 -237 q 417 -306 486 -306 q 340 -286 376 -306 q 304 -247 304 -267 q 310 -235 304 -240 l 329 -217 q 347 -208 340 -208 q 374 -222 354 -208 q 417 -235 393 -235 q 476 -186 476 -235 q 417 -137 476 -137 q 382 -144 399 -137 q 360 -150 365 -150 q 342 -140 351 -150 l 318 -115 q 313 -101 313 -110 q 321 -74 313 -90 l 349 -7 q 198 46 265 6 q 92 140 131 86 q 53 244 54 193 q 62 266 53 257 q 83 275 71 275 l 140 275 q 165 269 156 275 q 183 244 175 263 q 265 153 206 194 q 425 111 324 111 q 597 155 526 111 q 667 269 667 199 q 630 347 667 315 q 529 399 593 378 q 342 453 465 421 q 147 553 207 488 q 88 717 88 619 q 125 850 88 789 q 238 949 163 911 q 418 986 313 986 q 603 945 524 986 q 725 844 682 904 q 771 735 768 785 z "},"Ŝ":{"ha":858,"x_min":53,"x_max":799,"o":"m 771 735 q 763 713 772 722 q 740 704 753 704 l 683 704 q 658 710 667 704 q 640 735 650 717 q 563 819 618 778 q 418 861 508 861 q 277 824 335 861 q 219 717 219 786 q 248 640 219 669 q 334 588 276 610 q 508 536 392 567 q 733 434 667 494 q 799 269 799 374 q 752 122 799 186 q 621 22 706 58 q 425 -14 536 -14 q 238 25 322 -14 q 104 124 153 64 q 53 244 56 185 q 62 266 53 257 q 83 275 71 275 l 140 275 q 165 269 156 275 q 183 244 175 263 q 265 153 206 194 q 425 111 324 111 q 597 155 526 111 q 667 269 667 199 q 630 347 667 315 q 529 399 593 378 q 342 453 465 421 q 147 553 207 488 q 88 717 88 619 q 125 850 88 789 q 238 949 163 911 q 418 986 313 986 q 603 945 524 986 q 725 844 682 904 q 771 735 768 785 m 446 1236 q 472 1231 461 1236 q 497 1210 483 1225 l 625 1082 q 632 1064 632 1075 q 610 1042 632 1042 l 574 1042 q 553 1045 561 1042 q 531 1057 544 1049 l 425 1128 l 319 1057 q 297 1045 306 1049 q 276 1042 289 1042 l 240 1042 q 218 1064 218 1042 q 225 1082 218 1075 l 353 1210 q 378 1231 367 1225 q 404 1236 389 1236 l 446 1236 z "},"Ș":{"ha":858,"x_min":53,"x_max":799,"o":"m 771 735 q 763 713 772 722 q 740 704 753 704 l 683 704 q 658 710 667 704 q 640 735 650 717 q 563 819 618 778 q 418 861 508 861 q 277 824 335 861 q 219 717 219 786 q 248 640 219 669 q 334 588 276 610 q 508 536 392 567 q 733 434 667 494 q 799 269 799 374 q 752 122 799 186 q 621 22 706 58 q 425 -14 536 -14 q 238 25 322 -14 q 104 124 153 64 q 53 244 56 185 q 62 266 53 257 q 83 275 71 275 l 140 275 q 165 269 156 275 q 183 244 175 263 q 265 153 206 194 q 425 111 324 111 q 597 155 526 111 q 667 269 667 199 q 630 347 667 315 q 529 399 593 378 q 342 453 465 421 q 147 553 207 488 q 88 717 88 619 q 125 850 88 789 q 238 949 163 911 q 418 986 313 986 q 603 945 524 986 q 725 844 682 904 q 771 735 768 785 m 338 -124 q 356 -85 342 -101 q 397 -69 371 -69 l 478 -69 q 499 -78 490 -69 q 508 -100 508 -87 q 507 -110 508 -106 l 432 -303 q 372 -347 415 -347 l 339 -347 q 317 -338 326 -347 q 308 -317 308 -329 l 308 -314 l 338 -124 z "},"T":{"ha":790,"x_min":32,"x_max":758,"o":"m 721 972 q 747 961 736 972 q 758 935 758 950 l 758 885 q 747 858 758 869 q 721 847 736 847 l 461 847 l 461 38 q 450 11 461 22 q 424 0 439 0 l 367 0 q 340 11 351 0 q 329 38 329 22 l 329 847 l 69 847 q 43 858 54 847 q 32 885 32 869 l 32 935 q 43 961 32 950 q 69 972 54 972 l 721 972 z "},"Ŧ":{"ha":804,"x_min":39,"x_max":765,"o":"m 728 972 q 754 961 743 972 q 765 935 765 950 l 765 885 q 754 858 765 869 q 728 847 743 847 l 468 847 l 468 574 l 617 574 q 643 563 632 574 q 654 536 654 551 l 654 493 q 643 467 654 478 q 617 456 632 456 l 468 456 l 468 38 q 457 11 468 22 q 431 0 446 0 l 374 0 q 347 11 358 0 q 336 38 336 22 l 336 456 l 188 456 q 161 467 172 456 q 150 493 150 478 l 150 536 q 161 563 150 551 q 188 574 172 574 l 336 574 l 336 847 l 76 847 q 50 858 61 847 q 39 885 39 869 l 39 935 q 50 961 39 950 q 76 972 61 972 l 728 972 z "},"Ť":{"ha":790,"x_min":32,"x_max":758,"o":"m 721 972 q 747 961 736 972 q 758 935 758 950 l 758 885 q 747 858 758 869 q 721 847 736 847 l 461 847 l 461 38 q 450 11 461 22 q 424 0 439 0 l 367 0 q 340 11 351 0 q 329 38 329 22 l 329 847 l 69 847 q 43 858 54 847 q 32 885 32 869 l 32 935 q 43 961 32 950 q 69 972 54 972 l 721 972 m 374 1042 q 347 1047 358 1042 q 322 1068 336 1053 l 194 1196 q 188 1214 188 1203 q 210 1236 188 1236 l 246 1236 q 267 1233 258 1236 q 289 1221 275 1229 l 394 1150 l 500 1221 q 522 1233 514 1229 q 543 1236 531 1236 l 579 1236 q 601 1214 601 1236 q 594 1196 601 1203 l 467 1068 q 442 1047 453 1053 q 415 1042 431 1042 l 374 1042 z "},"Ț":{"ha":790,"x_min":32,"x_max":758,"o":"m 721 972 q 747 961 736 972 q 758 935 758 950 l 758 885 q 747 858 758 869 q 721 847 736 847 l 461 847 l 461 38 q 450 11 461 22 q 424 0 439 0 l 367 0 q 340 11 351 0 q 329 38 329 22 l 329 847 l 69 847 q 43 858 54 847 q 32 885 32 869 l 32 935 q 43 961 32 950 q 69 972 54 972 l 721 972 m 307 -124 q 326 -85 311 -101 q 367 -69 340 -69 l 447 -69 q 469 -78 460 -69 q 478 -100 478 -87 q 476 -110 478 -106 l 401 -303 q 342 -347 385 -347 l 308 -347 q 287 -338 296 -347 q 278 -317 278 -329 l 278 -314 l 307 -124 z "},"U":{"ha":969,"x_min":111,"x_max":858,"o":"m 821 972 q 847 961 836 972 q 858 935 858 950 l 858 379 q 766 92 858 199 q 485 -14 674 -14 q 202 92 293 -14 q 111 379 111 199 l 111 935 q 122 961 111 950 q 149 972 133 972 l 206 972 q 232 961 221 972 q 243 935 243 950 l 243 372 q 306 172 243 239 q 485 104 369 104 q 664 172 600 104 q 728 372 728 239 l 728 935 q 739 961 728 950 q 765 972 750 972 l 821 972 z "},"Ú":{"ha":969,"x_min":111,"x_max":858,"o":"m 821 972 q 847 961 836 972 q 858 935 858 950 l 858 379 q 766 92 858 199 q 485 -14 674 -14 q 202 92 293 -14 q 111 379 111 199 l 111 935 q 122 961 111 950 q 149 972 133 972 l 206 972 q 232 961 221 972 q 243 935 243 950 l 243 372 q 306 172 243 239 q 485 104 369 104 q 664 172 600 104 q 728 372 728 239 l 728 935 q 739 961 728 950 q 765 972 750 972 l 821 972 m 532 1210 q 557 1231 547 1226 q 583 1236 567 1236 l 693 1236 q 713 1228 706 1236 q 719 1208 719 1221 q 713 1192 719 1199 l 558 1065 q 531 1047 543 1053 q 500 1042 519 1042 l 442 1042 q 419 1064 419 1042 q 426 1082 419 1075 l 532 1210 z "},"Ŭ":{"ha":969,"x_min":111,"x_max":858,"o":"m 821 972 q 847 961 836 972 q 858 935 858 950 l 858 379 q 766 92 858 199 q 485 -14 674 -14 q 202 92 293 -14 q 111 379 111 199 l 111 935 q 122 961 111 950 q 149 972 133 972 l 206 972 q 232 961 221 972 q 243 935 243 950 l 243 372 q 306 172 243 239 q 485 104 369 104 q 664 172 600 104 q 728 372 728 239 l 728 935 q 739 961 728 950 q 765 972 750 972 l 821 972 m 306 1210 q 313 1228 306 1221 q 332 1236 319 1236 l 376 1236 q 396 1228 389 1236 q 403 1210 403 1221 q 425 1150 403 1174 q 485 1126 447 1126 q 544 1150 522 1126 q 567 1210 567 1174 q 574 1228 567 1221 q 593 1236 581 1236 l 638 1236 q 657 1228 650 1236 q 664 1210 664 1221 q 618 1087 664 1139 q 485 1035 572 1035 q 351 1087 397 1035 q 306 1210 306 1139 z "},"Û":{"ha":969,"x_min":111,"x_max":858,"o":"m 821 972 q 847 961 836 972 q 858 935 858 950 l 858 379 q 766 92 858 199 q 485 -14 674 -14 q 202 92 293 -14 q 111 379 111 199 l 111 935 q 122 961 111 950 q 149 972 133 972 l 206 972 q 232 961 221 972 q 243 935 243 950 l 243 372 q 306 172 243 239 q 485 104 369 104 q 664 172 600 104 q 728 372 728 239 l 728 935 q 739 961 728 950 q 765 972 750 972 l 821 972 m 506 1236 q 532 1231 521 1236 q 557 1210 543 1225 l 685 1082 q 692 1064 692 1075 q 669 1042 692 1042 l 633 1042 q 613 1045 621 1042 q 590 1057 604 1049 l 485 1128 l 379 1057 q 357 1045 365 1049 q 336 1042 349 1042 l 300 1042 q 278 1064 278 1042 q 285 1082 278 1075 l 413 1210 q 438 1231 426 1225 q 464 1236 449 1236 l 506 1236 z "},"Ü":{"ha":969,"x_min":111,"x_max":858,"o":"m 821 972 q 847 961 836 972 q 858 935 858 950 l 858 379 q 766 92 858 199 q 485 -14 674 -14 q 202 92 293 -14 q 111 379 111 199 l 111 935 q 122 961 111 950 q 149 972 133 972 l 206 972 q 232 961 221 972 q 243 935 243 950 l 243 372 q 306 172 243 239 q 485 104 369 104 q 664 172 600 104 q 728 372 728 239 l 728 935 q 739 961 728 950 q 765 972 750 972 l 821 972 m 415 1079 q 404 1053 415 1064 q 378 1042 393 1042 l 299 1042 q 272 1053 283 1042 q 261 1079 261 1064 l 261 1158 q 272 1185 261 1174 q 299 1196 283 1196 l 378 1196 q 404 1185 393 1196 q 415 1158 415 1174 l 415 1079 m 708 1079 q 697 1053 708 1064 q 671 1042 686 1042 l 592 1042 q 565 1053 576 1042 q 554 1079 554 1064 l 554 1158 q 565 1185 554 1174 q 592 1196 576 1196 l 671 1196 q 697 1185 686 1196 q 708 1158 708 1174 l 708 1079 z "},"Ù":{"ha":969,"x_min":111,"x_max":858,"o":"m 821 972 q 847 961 836 972 q 858 935 858 950 l 858 379 q 766 92 858 199 q 485 -14 674 -14 q 202 92 293 -14 q 111 379 111 199 l 111 935 q 122 961 111 950 q 149 972 133 972 l 206 972 q 232 961 221 972 q 243 935 243 950 l 243 372 q 306 172 243 239 q 485 104 369 104 q 664 172 600 104 q 728 372 728 239 l 728 935 q 739 961 728 950 q 765 972 750 972 l 821 972 m 550 1082 q 557 1064 557 1075 q 535 1042 557 1042 l 476 1042 q 445 1047 457 1042 q 418 1065 433 1053 l 264 1192 q 257 1208 257 1199 q 264 1228 257 1221 q 283 1236 271 1236 l 393 1236 q 419 1231 410 1236 q 444 1210 429 1226 l 550 1082 z "},"Ű":{"ha":969,"x_min":111,"x_max":858,"o":"m 821 972 q 847 961 836 972 q 858 935 858 950 l 858 379 q 766 92 858 199 q 485 -14 674 -14 q 202 92 293 -14 q 111 379 111 199 l 111 935 q 122 961 111 950 q 149 972 133 972 l 206 972 q 232 961 221 972 q 243 935 243 950 l 243 372 q 306 172 243 239 q 485 104 369 104 q 664 172 600 104 q 728 372 728 239 l 728 935 q 739 961 728 950 q 765 972 750 972 l 821 972 m 343 1210 q 362 1230 350 1224 q 394 1236 374 1236 l 497 1236 q 517 1229 510 1236 q 525 1210 525 1222 q 517 1192 525 1200 l 396 1061 q 349 1042 379 1042 l 303 1042 q 281 1064 281 1042 q 288 1085 281 1071 l 343 1210 m 596 1210 q 615 1230 603 1224 q 647 1236 626 1236 l 750 1236 q 770 1229 763 1236 q 778 1210 778 1222 q 769 1192 778 1200 l 649 1061 q 601 1042 632 1042 l 556 1042 q 533 1064 533 1042 q 540 1085 533 1071 l 596 1210 z "},"Ū":{"ha":969,"x_min":111,"x_max":858,"o":"m 821 972 q 847 961 836 972 q 858 935 858 950 l 858 379 q 766 92 858 199 q 485 -14 674 -14 q 202 92 293 -14 q 111 379 111 199 l 111 935 q 122 961 111 950 q 149 972 133 972 l 206 972 q 232 961 221 972 q 243 935 243 950 l 243 372 q 306 172 243 239 q 485 104 369 104 q 664 172 600 104 q 728 372 728 239 l 728 935 q 739 961 728 950 q 765 972 750 972 l 821 972 m 326 1042 q 300 1053 311 1042 q 289 1079 289 1064 l 289 1129 q 300 1156 289 1144 q 326 1167 311 1167 l 644 1167 q 671 1156 660 1167 q 682 1129 682 1144 l 682 1079 q 671 1053 682 1064 q 644 1042 660 1042 l 326 1042 z "},"Ų":{"ha":969,"x_min":111,"x_max":858,"o":"m 821 972 q 847 961 836 972 q 858 935 858 950 l 858 379 q 788 122 858 224 q 575 -6 717 19 q 513 -35 532 -12 q 493 -103 493 -57 q 516 -181 493 -156 q 585 -206 539 -206 l 606 -206 q 628 -214 619 -206 q 636 -236 636 -222 l 636 -275 q 628 -297 636 -289 q 606 -306 619 -306 l 579 -306 q 436 -252 492 -306 q 381 -103 381 -199 q 399 -7 381 -53 q 181 119 251 17 q 111 379 111 221 l 111 935 q 122 961 111 950 q 149 972 133 972 l 206 972 q 232 961 221 972 q 243 935 243 950 l 243 372 q 306 172 243 239 q 485 104 369 104 q 664 172 600 104 q 728 372 728 239 l 728 935 q 739 961 728 950 q 765 972 750 972 l 821 972 z "},"Ů":{"ha":969,"x_min":111,"x_max":858,"o":"m 821 972 q 847 961 836 972 q 858 935 858 950 l 858 379 q 766 92 858 199 q 485 -14 674 -14 q 202 92 293 -14 q 111 379 111 199 l 111 935 q 122 961 111 950 q 149 972 133 972 l 206 972 q 232 961 221 972 q 243 935 243 950 l 243 372 q 306 172 243 239 q 485 104 369 104 q 664 172 600 104 q 728 372 728 239 l 728 935 q 739 961 728 950 q 765 972 750 972 l 821 972 m 485 1250 q 569 1219 535 1250 q 603 1139 603 1188 q 569 1059 603 1090 q 485 1028 535 1028 q 401 1059 435 1028 q 367 1139 367 1090 q 401 1219 367 1188 q 485 1250 435 1250 m 485 1097 q 515 1109 503 1097 q 526 1139 526 1121 q 515 1169 526 1157 q 485 1181 503 1181 q 455 1169 467 1181 q 443 1139 443 1157 q 455 1109 443 1121 q 485 1097 467 1097 z "},"Ũ":{"ha":969,"x_min":111,"x_max":858,"o":"m 821 972 q 847 961 836 972 q 858 935 858 950 l 858 379 q 766 92 858 199 q 485 -14 674 -14 q 202 92 293 -14 q 111 379 111 199 l 111 935 q 122 961 111 950 q 149 972 133 972 l 206 972 q 232 961 221 972 q 243 935 243 950 l 243 372 q 306 172 243 239 q 485 104 369 104 q 664 172 600 104 q 728 372 728 239 l 728 935 q 739 961 728 950 q 765 972 750 972 l 821 972 m 415 1079 q 392 1074 400 1079 q 379 1058 385 1068 q 369 1046 374 1050 q 356 1042 364 1042 l 304 1042 q 285 1049 292 1042 q 278 1068 278 1057 q 291 1124 278 1093 q 331 1178 304 1156 q 397 1201 357 1201 q 450 1194 429 1201 q 497 1175 471 1188 q 527 1161 514 1165 q 556 1157 540 1157 q 578 1163 571 1157 q 592 1178 586 1168 q 602 1190 597 1186 q 615 1194 607 1194 l 667 1194 q 686 1187 679 1194 q 693 1168 693 1179 q 680 1112 693 1143 q 640 1058 667 1081 q 574 1035 614 1035 q 519 1042 542 1035 q 472 1061 497 1049 q 444 1074 458 1068 q 415 1079 429 1079 z "},"V":{"ha":899,"x_min":44,"x_max":853,"o":"m 717 938 q 771 972 729 972 l 822 972 q 844 963 835 972 q 853 942 853 954 q 850 928 853 935 l 550 56 q 523 15 542 29 q 476 0 504 0 l 421 0 q 349 56 367 0 l 47 928 q 44 942 44 935 q 53 963 44 954 q 75 972 63 972 l 126 972 q 181 938 168 972 l 449 139 l 717 938 z "},"W":{"ha":1100,"x_min":56,"x_max":1044,"o":"m 774 167 l 915 935 q 931 963 919 954 q 958 972 943 972 l 1014 972 q 1035 963 1026 972 q 1044 942 1044 954 l 1043 931 l 872 72 q 850 17 864 35 q 804 0 836 0 l 749 0 q 703 19 718 0 q 678 72 688 38 l 550 536 l 422 72 q 397 19 413 38 q 351 0 382 0 l 296 0 q 250 17 264 0 q 228 72 236 35 l 57 931 l 56 942 q 65 963 56 954 q 86 972 74 972 l 142 972 q 169 963 157 972 q 185 935 181 954 l 326 167 l 479 717 q 493 744 482 731 q 526 757 504 757 l 574 757 q 607 744 596 757 q 621 717 618 731 l 774 167 z "},"Ẃ":{"ha":1100,"x_min":56,"x_max":1044,"o":"m 774 167 l 915 935 q 931 963 919 954 q 958 972 943 972 l 1014 972 q 1035 963 1026 972 q 1044 942 1044 954 l 1043 931 l 872 72 q 850 17 864 35 q 804 0 836 0 l 749 0 q 703 19 718 0 q 678 72 688 38 l 550 536 l 422 72 q 397 19 413 38 q 351 0 382 0 l 296 0 q 250 17 264 0 q 228 72 236 35 l 57 931 l 56 942 q 65 963 56 954 q 86 972 74 972 l 142 972 q 169 963 157 972 q 185 935 181 954 l 326 167 l 479 717 q 493 744 482 731 q 526 757 504 757 l 574 757 q 607 744 596 757 q 621 717 618 731 l 774 167 m 596 1210 q 621 1231 611 1226 q 647 1236 631 1236 l 757 1236 q 776 1228 769 1236 q 783 1208 783 1221 q 776 1192 783 1199 l 622 1065 q 595 1047 607 1053 q 564 1042 583 1042 l 506 1042 q 483 1064 483 1042 q 490 1082 483 1075 l 596 1210 z "},"Ŵ":{"ha":1100,"x_min":56,"x_max":1044,"o":"m 774 167 l 915 935 q 931 963 919 954 q 958 972 943 972 l 1014 972 q 1035 963 1026 972 q 1044 942 1044 954 l 1043 931 l 872 72 q 850 17 864 35 q 804 0 836 0 l 749 0 q 703 19 718 0 q 678 72 688 38 l 550 536 l 422 72 q 397 19 413 38 q 351 0 382 0 l 296 0 q 250 17 264 0 q 228 72 236 35 l 57 931 l 56 942 q 65 963 56 954 q 86 972 74 972 l 142 972 q 169 963 157 972 q 185 935 181 954 l 326 167 l 479 717 q 493 744 482 731 q 526 757 504 757 l 574 757 q 607 744 596 757 q 621 717 618 731 l 774 167 m 571 1236 q 597 1231 586 1236 q 622 1210 608 1225 l 750 1082 q 757 1064 757 1075 q 735 1042 757 1042 l 699 1042 q 678 1045 686 1042 q 656 1057 669 1049 l 550 1128 l 444 1057 q 422 1045 431 1049 q 401 1042 414 1042 l 365 1042 q 343 1064 343 1042 q 350 1082 343 1075 l 478 1210 q 503 1231 492 1225 q 529 1236 514 1236 l 571 1236 z "},"Ẅ":{"ha":1100,"x_min":56,"x_max":1044,"o":"m 774 167 l 915 935 q 931 963 919 954 q 958 972 943 972 l 1014 972 q 1035 963 1026 972 q 1044 942 1044 954 l 1043 931 l 872 72 q 850 17 864 35 q 804 0 836 0 l 749 0 q 703 19 718 0 q 678 72 688 38 l 550 536 l 422 72 q 397 19 413 38 q 351 0 382 0 l 296 0 q 250 17 264 0 q 228 72 236 35 l 57 931 l 56 942 q 65 963 56 954 q 86 972 74 972 l 142 972 q 169 963 157 972 q 185 935 181 954 l 326 167 l 479 717 q 493 744 482 731 q 526 757 504 757 l 574 757 q 607 744 596 757 q 621 717 618 731 l 774 167 m 481 1079 q 469 1053 481 1064 q 443 1042 458 1042 l 364 1042 q 338 1053 349 1042 q 326 1079 326 1064 l 326 1158 q 338 1185 326 1174 q 364 1196 349 1196 l 443 1196 q 469 1185 458 1196 q 481 1158 481 1174 l 481 1079 m 774 1079 q 763 1053 774 1064 q 736 1042 751 1042 l 657 1042 q 631 1053 642 1042 q 619 1079 619 1064 l 619 1158 q 631 1185 619 1174 q 657 1196 642 1196 l 736 1196 q 763 1185 751 1196 q 774 1158 774 1174 l 774 1079 z "},"Ẁ":{"ha":1100,"x_min":56,"x_max":1044,"o":"m 774 167 l 915 935 q 931 963 919 954 q 958 972 943 972 l 1014 972 q 1035 963 1026 972 q 1044 942 1044 954 l 1043 931 l 872 72 q 850 17 864 35 q 804 0 836 0 l 749 0 q 703 19 718 0 q 678 72 688 38 l 550 536 l 422 72 q 397 19 413 38 q 351 0 382 0 l 296 0 q 250 17 264 0 q 228 72 236 35 l 57 931 l 56 942 q 65 963 56 954 q 86 972 74 972 l 142 972 q 169 963 157 972 q 185 935 181 954 l 326 167 l 479 717 q 493 744 482 731 q 526 757 504 757 l 574 757 q 607 744 596 757 q 621 717 618 731 l 774 167 m 608 1082 q 615 1064 615 1075 q 593 1042 615 1042 l 535 1042 q 503 1047 515 1042 q 476 1065 492 1053 l 322 1192 q 315 1208 315 1199 q 322 1228 315 1221 q 342 1236 329 1236 l 451 1236 q 478 1231 468 1236 q 503 1210 488 1226 l 608 1082 z "},"X":{"ha":886,"x_min":32,"x_max":854,"o":"m 179 32 q 157 8 168 17 q 122 0 146 0 l 63 0 q 41 9 50 0 q 32 31 32 18 q 36 46 32 39 l 364 496 l 50 926 q 46 942 46 935 q 55 963 46 954 q 76 972 64 972 l 142 972 q 177 963 165 972 q 200 938 189 953 l 447 599 l 689 936 q 712 962 700 951 q 747 972 724 972 l 807 972 q 828 963 819 972 q 838 942 838 954 q 833 926 838 935 l 524 493 l 850 46 q 854 31 854 39 q 845 9 854 18 q 824 0 836 0 l 758 0 q 724 8 735 0 q 701 32 713 17 l 440 390 l 179 32 z "},"Y":{"ha":893,"x_min":42,"x_max":851,"o":"m 513 38 q 501 11 513 22 q 475 0 490 0 l 418 0 q 392 11 403 0 q 381 38 381 22 l 381 363 l 49 922 q 42 942 42 935 q 51 963 42 954 q 72 972 60 972 l 132 972 q 169 963 157 972 q 190 938 181 954 l 446 496 l 703 938 q 724 963 713 954 q 761 972 736 972 l 821 972 q 842 963 833 972 q 851 942 851 954 q 844 922 851 935 l 513 363 l 513 38 z "},"Ý":{"ha":893,"x_min":42,"x_max":851,"o":"m 513 38 q 501 11 513 22 q 475 0 490 0 l 418 0 q 392 11 403 0 q 381 38 381 22 l 381 363 l 49 922 q 42 942 42 935 q 51 963 42 954 q 72 972 60 972 l 132 972 q 169 963 157 972 q 190 938 181 954 l 446 496 l 703 938 q 724 963 713 954 q 761 972 736 972 l 821 972 q 842 963 833 972 q 851 942 851 954 q 844 922 851 935 l 513 363 l 513 38 m 489 1210 q 514 1231 504 1226 q 540 1236 524 1236 l 650 1236 q 669 1228 663 1236 q 676 1208 676 1221 q 669 1192 676 1199 l 515 1065 q 488 1047 500 1053 q 457 1042 476 1042 l 399 1042 q 376 1064 376 1042 q 383 1082 376 1075 l 489 1210 z "},"Ŷ":{"ha":893,"x_min":42,"x_max":851,"o":"m 513 38 q 501 11 513 22 q 475 0 490 0 l 418 0 q 392 11 403 0 q 381 38 381 22 l 381 363 l 49 922 q 42 942 42 935 q 51 963 42 954 q 72 972 60 972 l 132 972 q 169 963 157 972 q 190 938 181 954 l 446 496 l 703 938 q 724 963 713 954 q 761 972 736 972 l 821 972 q 842 963 833 972 q 851 942 851 954 q 844 922 851 935 l 513 363 l 513 38 m 467 1236 q 493 1231 482 1236 q 518 1210 504 1225 l 646 1082 q 653 1064 653 1075 q 631 1042 653 1042 l 594 1042 q 574 1045 582 1042 q 551 1057 565 1049 l 446 1128 l 340 1057 q 318 1045 326 1049 q 297 1042 310 1042 l 261 1042 q 239 1064 239 1042 q 246 1082 239 1075 l 374 1210 q 399 1231 388 1225 q 425 1236 410 1236 l 467 1236 z "},"Ÿ":{"ha":893,"x_min":42,"x_max":851,"o":"m 513 38 q 501 11 513 22 q 475 0 490 0 l 418 0 q 392 11 403 0 q 381 38 381 22 l 381 363 l 49 922 q 42 942 42 935 q 51 963 42 954 q 72 972 60 972 l 132 972 q 169 963 157 972 q 190 938 181 954 l 446 496 l 703 938 q 724 963 713 954 q 761 972 736 972 l 821 972 q 842 963 833 972 q 851 942 851 954 q 844 922 851 935 l 513 363 l 513 38 m 376 1079 q 365 1053 376 1064 q 339 1042 354 1042 l 260 1042 q 233 1053 244 1042 q 222 1079 222 1064 l 222 1158 q 233 1185 222 1174 q 260 1196 244 1196 l 339 1196 q 365 1185 354 1196 q 376 1158 376 1174 l 376 1079 m 669 1079 q 658 1053 669 1064 q 632 1042 647 1042 l 553 1042 q 526 1053 538 1042 q 515 1079 515 1064 l 515 1158 q 526 1185 515 1174 q 553 1196 538 1196 l 632 1196 q 658 1185 647 1196 q 669 1158 669 1174 l 669 1079 z "},"Ỳ":{"ha":893,"x_min":42,"x_max":851,"o":"m 513 38 q 501 11 513 22 q 475 0 490 0 l 418 0 q 392 11 403 0 q 381 38 381 22 l 381 363 l 49 922 q 42 942 42 935 q 51 963 42 954 q 72 972 60 972 l 132 972 q 169 963 157 972 q 190 938 181 954 l 446 496 l 703 938 q 724 963 713 954 q 761 972 736 972 l 821 972 q 842 963 833 972 q 851 942 851 954 q 844 922 851 935 l 513 363 l 513 38 m 506 1082 q 513 1064 513 1075 q 490 1042 513 1042 l 432 1042 q 401 1047 413 1042 q 374 1065 389 1053 l 219 1192 q 213 1208 213 1199 q 219 1228 213 1221 q 239 1236 226 1236 l 349 1236 q 375 1231 365 1236 q 400 1210 385 1226 l 506 1082 z "},"Z":{"ha":831,"x_min":54,"x_max":776,"o":"m 739 125 q 765 114 754 125 q 776 88 776 103 l 776 38 q 765 11 776 22 q 739 0 754 0 l 92 0 q 65 11 76 0 q 54 38 54 22 l 54 88 q 64 121 54 107 q 75 136 74 135 l 590 847 l 106 847 q 79 858 90 847 q 68 885 68 869 l 68 935 q 79 961 68 950 q 106 972 90 972 l 725 972 q 751 961 740 972 q 763 935 763 950 l 763 885 q 744 839 763 863 l 226 125 l 739 125 z "},"Ź":{"ha":831,"x_min":54,"x_max":776,"o":"m 739 125 q 765 114 754 125 q 776 88 776 103 l 776 38 q 765 11 776 22 q 739 0 754 0 l 92 0 q 65 11 76 0 q 54 38 54 22 l 54 88 q 64 121 54 107 q 75 136 74 135 l 590 847 l 106 847 q 79 858 90 847 q 68 885 68 869 l 68 935 q 79 961 68 950 q 106 972 90 972 l 725 972 q 751 961 740 972 q 763 935 763 950 l 763 885 q 744 839 763 863 l 226 125 l 739 125 m 458 1210 q 483 1231 474 1226 q 510 1236 493 1236 l 619 1236 q 639 1228 632 1236 q 646 1208 646 1221 q 639 1192 646 1199 l 485 1065 q 458 1047 469 1053 q 426 1042 446 1042 l 368 1042 q 346 1064 346 1042 q 353 1082 346 1075 l 458 1210 z "},"Ž":{"ha":831,"x_min":54,"x_max":776,"o":"m 739 125 q 765 114 754 125 q 776 88 776 103 l 776 38 q 765 11 776 22 q 739 0 754 0 l 92 0 q 65 11 76 0 q 54 38 54 22 l 54 88 q 64 121 54 107 q 75 136 74 135 l 590 847 l 106 847 q 79 858 90 847 q 68 885 68 869 l 68 935 q 79 961 68 950 q 106 972 90 972 l 725 972 q 751 961 740 972 q 763 935 763 950 l 763 885 q 744 839 763 863 l 226 125 l 739 125 m 394 1042 q 368 1047 379 1042 q 343 1068 357 1053 l 215 1196 q 208 1214 208 1203 q 231 1236 208 1236 l 267 1236 q 288 1233 279 1236 q 310 1221 296 1229 l 415 1150 l 521 1221 q 543 1233 535 1229 q 564 1236 551 1236 l 600 1236 q 622 1214 622 1236 q 615 1196 622 1203 l 488 1068 q 463 1047 474 1053 q 436 1042 451 1042 l 394 1042 z "},"Ż":{"ha":831,"x_min":54,"x_max":776,"o":"m 739 125 q 765 114 754 125 q 776 88 776 103 l 776 38 q 765 11 776 22 q 739 0 754 0 l 92 0 q 65 11 76 0 q 54 38 54 22 l 54 88 q 64 121 54 107 q 75 136 74 135 l 590 847 l 106 847 q 79 858 90 847 q 68 885 68 869 l 68 935 q 79 961 68 950 q 106 972 90 972 l 725 972 q 751 961 740 972 q 763 935 763 950 l 763 885 q 744 839 763 863 l 226 125 l 739 125 m 493 1079 q 482 1053 493 1064 q 456 1042 471 1042 l 376 1042 q 350 1053 361 1042 q 339 1079 339 1064 l 339 1158 q 350 1185 339 1174 q 376 1196 361 1196 l 456 1196 q 482 1185 471 1196 q 493 1158 493 1174 l 493 1079 z "},"a":{"ha":758,"x_min":53,"x_max":660,"o":"m 533 457 l 533 475 q 488 580 533 543 q 371 617 443 617 q 284 598 315 617 q 225 542 253 579 q 207 526 217 531 q 181 522 197 522 l 139 522 q 112 533 124 522 q 101 560 100 544 q 142 642 106 601 q 240 710 179 683 q 371 736 301 736 q 580 664 500 736 q 660 461 660 592 l 660 38 q 649 11 660 22 q 622 0 638 0 l 571 0 q 544 11 556 0 q 533 38 533 22 l 533 94 q 439 15 511 44 q 294 -14 367 -14 q 168 12 224 -14 q 83 82 113 38 q 53 182 53 126 q 131 345 53 286 q 338 425 208 404 l 533 457 m 533 346 l 369 319 q 229 274 279 306 q 179 196 179 243 q 211 133 179 161 q 308 106 243 106 q 471 163 408 106 q 533 311 533 219 l 533 346 z "},"á":{"ha":758,"x_min":53,"x_max":660,"o":"m 533 457 l 533 475 q 488 580 533 543 q 371 617 443 617 q 284 598 315 617 q 225 542 253 579 q 207 526 217 531 q 181 522 197 522 l 139 522 q 112 533 124 522 q 101 560 100 544 q 142 642 106 601 q 240 710 179 683 q 371 736 301 736 q 580 664 500 736 q 660 461 660 592 l 660 38 q 649 11 660 22 q 622 0 638 0 l 571 0 q 544 11 556 0 q 533 38 533 22 l 533 94 q 439 15 511 44 q 294 -14 367 -14 q 168 12 224 -14 q 83 82 113 38 q 53 182 53 126 q 131 345 53 286 q 338 425 208 404 l 533 457 m 533 346 l 369 319 q 229 274 279 306 q 179 196 179 243 q 211 133 179 161 q 308 106 243 106 q 471 163 408 106 q 533 311 533 219 l 533 346 m 414 994 q 439 1016 429 1011 q 465 1021 449 1021 l 568 1021 q 588 1013 581 1021 q 594 993 594 1006 q 588 976 594 983 l 433 850 q 406 832 418 838 q 375 826 394 826 l 324 826 q 301 849 301 826 q 308 867 301 860 l 414 994 z "},"ă":{"ha":758,"x_min":53,"x_max":660,"o":"m 533 457 l 533 475 q 488 580 533 543 q 371 617 443 617 q 284 598 315 617 q 225 542 253 579 q 207 526 217 531 q 181 522 197 522 l 139 522 q 112 533 124 522 q 101 560 100 544 q 142 642 106 601 q 240 710 179 683 q 371 736 301 736 q 580 664 500 736 q 660 461 660 592 l 660 38 q 649 11 660 22 q 622 0 638 0 l 571 0 q 544 11 556 0 q 533 38 533 22 l 533 94 q 439 15 511 44 q 294 -14 367 -14 q 168 12 224 -14 q 83 82 113 38 q 53 182 53 126 q 131 345 53 286 q 338 425 208 404 l 533 457 m 533 346 l 369 319 q 229 274 279 306 q 179 196 179 243 q 211 133 179 161 q 308 106 243 106 q 471 163 408 106 q 533 311 533 219 l 533 346 m 197 994 q 204 1013 197 1006 q 224 1021 211 1021 l 268 1021 q 288 1013 281 1021 q 294 994 294 1006 q 315 935 294 958 q 369 911 335 911 q 424 935 404 911 q 444 994 444 958 q 451 1013 444 1006 q 471 1021 458 1021 l 515 1021 q 535 1013 528 1021 q 542 994 542 1006 q 497 872 542 925 q 369 819 453 819 q 242 872 286 819 q 197 994 197 925 z "},"â":{"ha":758,"x_min":53,"x_max":660,"o":"m 533 457 l 533 475 q 488 580 533 543 q 371 617 443 617 q 284 598 315 617 q 225 542 253 579 q 207 526 217 531 q 181 522 197 522 l 139 522 q 112 533 124 522 q 101 560 100 544 q 142 642 106 601 q 240 710 179 683 q 371 736 301 736 q 580 664 500 736 q 660 461 660 592 l 660 38 q 649 11 660 22 q 622 0 638 0 l 571 0 q 544 11 556 0 q 533 38 533 22 l 533 94 q 439 15 511 44 q 294 -14 367 -14 q 168 12 224 -14 q 83 82 113 38 q 53 182 53 126 q 131 345 53 286 q 338 425 208 404 l 533 457 m 533 346 l 369 319 q 229 274 279 306 q 179 196 179 243 q 211 133 179 161 q 308 106 243 106 q 471 163 408 106 q 533 311 533 219 l 533 346 m 383 1021 q 410 1015 399 1021 q 435 994 421 1010 l 563 867 q 569 849 569 860 q 547 826 569 826 l 518 826 q 497 830 506 826 q 475 842 489 833 l 369 913 l 264 842 q 242 830 250 833 q 221 826 233 826 l 192 826 q 169 849 169 826 q 176 867 169 860 l 304 994 q 329 1015 318 1010 q 356 1021 340 1021 l 383 1021 z "},"ä":{"ha":758,"x_min":53,"x_max":660,"o":"m 533 457 l 533 475 q 488 580 533 543 q 371 617 443 617 q 284 598 315 617 q 225 542 253 579 q 207 526 217 531 q 181 522 197 522 l 139 522 q 112 533 124 522 q 101 560 100 544 q 142 642 106 601 q 240 710 179 683 q 371 736 301 736 q 580 664 500 736 q 660 461 660 592 l 660 38 q 649 11 660 22 q 622 0 638 0 l 571 0 q 544 11 556 0 q 533 38 533 22 l 533 94 q 439 15 511 44 q 294 -14 367 -14 q 168 12 224 -14 q 83 82 113 38 q 53 182 53 126 q 131 345 53 286 q 338 425 208 404 l 533 457 m 533 346 l 369 319 q 229 274 279 306 q 179 196 179 243 q 211 133 179 161 q 308 106 243 106 q 471 163 408 106 q 533 311 533 219 l 533 346 m 321 871 q 310 844 321 856 q 283 833 299 833 l 204 833 q 178 844 189 833 q 167 871 167 856 l 167 950 q 178 976 167 965 q 204 988 189 988 l 283 988 q 310 976 299 988 q 321 950 321 965 l 321 871 m 572 871 q 561 844 572 856 q 535 833 550 833 l 456 833 q 429 844 440 833 q 418 871 418 856 l 418 950 q 429 976 418 965 q 456 988 440 988 l 535 988 q 561 976 550 988 q 572 950 572 965 l 572 871 z "},"à":{"ha":758,"x_min":53,"x_max":660,"o":"m 533 457 l 533 475 q 488 580 533 543 q 371 617 443 617 q 284 598 315 617 q 225 542 253 579 q 207 526 217 531 q 181 522 197 522 l 139 522 q 112 533 124 522 q 101 560 100 544 q 142 642 106 601 q 240 710 179 683 q 371 736 301 736 q 580 664 500 736 q 660 461 660 592 l 660 38 q 649 11 660 22 q 622 0 638 0 l 571 0 q 544 11 556 0 q 533 38 533 22 l 533 94 q 439 15 511 44 q 294 -14 367 -14 q 168 12 224 -14 q 83 82 113 38 q 53 182 53 126 q 131 345 53 286 q 338 425 208 404 l 533 457 m 533 346 l 369 319 q 229 274 279 306 q 179 196 179 243 q 211 133 179 161 q 308 106 243 106 q 471 163 408 106 q 533 311 533 219 l 533 346 m 433 867 q 440 849 440 860 q 418 826 440 826 l 367 826 q 335 832 347 826 q 308 850 324 838 l 154 976 q 147 993 147 983 q 154 1013 147 1006 q 174 1021 161 1021 l 276 1021 q 303 1016 293 1021 q 328 994 313 1011 l 433 867 z "},"ā":{"ha":758,"x_min":53,"x_max":660,"o":"m 533 457 l 533 475 q 488 580 533 543 q 371 617 443 617 q 284 598 315 617 q 225 542 253 579 q 207 526 217 531 q 181 522 197 522 l 139 522 q 112 533 124 522 q 101 560 100 544 q 142 642 106 601 q 240 710 179 683 q 371 736 301 736 q 580 664 500 736 q 660 461 660 592 l 660 38 q 649 11 660 22 q 622 0 638 0 l 571 0 q 544 11 556 0 q 533 38 533 22 l 533 94 q 439 15 511 44 q 294 -14 367 -14 q 168 12 224 -14 q 83 82 113 38 q 53 182 53 126 q 131 345 53 286 q 338 425 208 404 l 533 457 m 533 346 l 369 319 q 229 274 279 306 q 179 196 179 243 q 211 133 179 161 q 308 106 243 106 q 471 163 408 106 q 533 311 533 219 l 533 346 m 218 840 q 192 851 203 840 q 181 878 181 863 l 181 922 q 192 949 181 938 q 218 960 203 960 l 522 960 q 549 949 538 960 q 560 922 560 938 l 560 878 q 549 851 560 863 q 522 840 538 840 l 218 840 z "},"ą":{"ha":758,"x_min":53,"x_max":660,"o":"m 533 457 l 533 475 q 488 580 533 543 q 371 617 443 617 q 284 598 315 617 q 225 542 253 579 q 207 526 217 531 q 181 522 197 522 l 139 522 q 112 533 124 522 q 101 560 100 544 q 142 642 106 601 q 240 710 179 683 q 371 736 301 736 q 580 664 500 736 q 660 461 660 592 l 660 28 q 647 0 660 11 q 614 -24 635 -10 q 563 -65 579 -46 q 546 -117 546 -85 q 565 -183 546 -160 q 619 -206 585 -206 l 628 -206 q 650 -214 642 -206 q 658 -236 658 -222 l 658 -275 q 650 -297 658 -289 q 628 -306 642 -306 l 614 -306 q 481 -256 529 -306 q 433 -117 433 -206 q 463 -24 433 -64 q 533 42 493 15 l 533 94 q 439 15 511 44 q 294 -14 367 -14 q 168 12 224 -14 q 83 82 113 38 q 53 182 53 126 q 131 345 53 286 q 338 425 208 404 l 533 457 m 533 346 l 369 319 q 229 274 279 306 q 179 196 179 243 q 211 133 179 161 q 308 106 243 106 q 471 163 408 106 q 533 311 533 219 l 533 346 z "},"å":{"ha":758,"x_min":53,"x_max":660,"o":"m 533 457 l 533 475 q 488 580 533 543 q 371 617 443 617 q 284 598 315 617 q 225 542 253 579 q 207 526 217 531 q 181 522 197 522 l 139 522 q 112 533 124 522 q 101 560 100 544 q 142 642 106 601 q 240 710 179 683 q 371 736 301 736 q 580 664 500 736 q 660 461 660 592 l 660 38 q 649 11 660 22 q 622 0 638 0 l 571 0 q 544 11 556 0 q 533 38 533 22 l 533 94 q 439 15 511 44 q 294 -14 367 -14 q 168 12 224 -14 q 83 82 113 38 q 53 182 53 126 q 131 345 53 286 q 338 425 208 404 l 533 457 m 533 346 l 369 319 q 229 274 279 306 q 179 196 179 243 q 211 133 179 161 q 308 106 243 106 q 471 163 408 106 q 533 311 533 219 l 533 346 m 369 1042 q 453 1010 419 1042 q 488 931 488 979 q 453 851 488 882 q 369 819 419 819 q 285 851 319 819 q 251 931 251 882 q 285 1010 251 979 q 369 1042 319 1042 m 369 889 q 399 901 388 889 q 411 931 411 913 q 399 960 411 949 q 369 972 388 972 q 340 960 351 972 q 328 931 328 949 q 340 901 328 913 q 369 889 351 889 z "},"ã":{"ha":758,"x_min":53,"x_max":660,"o":"m 533 457 l 533 475 q 488 580 533 543 q 371 617 443 617 q 284 598 315 617 q 225 542 253 579 q 207 526 217 531 q 181 522 197 522 l 139 522 q 112 533 124 522 q 101 560 100 544 q 142 642 106 601 q 240 710 179 683 q 371 736 301 736 q 580 664 500 736 q 660 461 660 592 l 660 38 q 649 11 660 22 q 622 0 638 0 l 571 0 q 544 11 556 0 q 533 38 533 22 l 533 94 q 439 15 511 44 q 294 -14 367 -14 q 168 12 224 -14 q 83 82 113 38 q 53 182 53 126 q 131 345 53 286 q 338 425 208 404 l 533 457 m 533 346 l 369 319 q 229 274 279 306 q 179 196 179 243 q 211 133 179 161 q 308 106 243 106 q 471 163 408 106 q 533 311 533 219 l 533 346 m 304 864 q 281 858 289 864 q 268 843 274 853 q 258 831 263 835 q 244 826 253 826 l 193 826 q 174 834 181 826 q 167 853 167 842 q 180 909 167 878 q 219 963 193 940 q 286 986 246 986 q 338 979 317 986 q 382 960 358 972 q 408 947 394 953 q 436 942 422 942 q 459 947 451 942 q 472 963 467 953 q 483 975 478 971 q 496 979 488 979 l 547 979 q 567 972 560 979 q 574 953 574 964 q 560 897 574 928 q 521 842 547 865 q 454 819 494 819 q 403 826 424 819 q 356 847 383 833 q 330 859 343 854 q 304 864 317 864 z "},"æ":{"ha":1240,"x_min":53,"x_max":1176,"o":"m 533 457 l 533 475 q 488 580 533 543 q 371 617 443 617 q 284 598 315 617 q 225 542 253 579 q 207 526 217 531 q 181 522 197 522 l 139 522 q 112 533 124 522 q 101 560 100 544 q 142 642 106 601 q 240 710 179 683 q 371 736 301 736 q 513 708 450 736 q 614 625 576 679 q 717 707 656 678 q 856 736 779 736 q 1090 642 1004 736 q 1176 385 1176 547 l 1176 347 q 1165 321 1176 332 q 1139 310 1154 310 l 661 310 l 661 301 q 717 158 664 210 q 856 106 771 106 q 963 124 925 106 q 1032 175 1001 142 q 1052 190 1043 186 q 1076 194 1061 194 l 1118 194 q 1146 183 1135 194 q 1156 157 1157 172 q 1115 80 1150 119 q 1013 13 1079 40 q 856 -14 947 -14 q 704 23 771 -14 q 594 126 638 60 q 472 22 542 57 q 294 -14 401 -14 q 168 12 224 -14 q 83 82 113 38 q 53 182 53 126 q 131 345 53 286 q 338 425 208 404 l 533 457 m 1051 426 l 1051 431 q 998 566 1051 515 q 856 617 944 617 q 719 565 775 617 q 661 431 663 514 l 661 426 l 1051 426 m 533 346 l 369 319 q 229 274 279 306 q 179 196 179 243 q 211 133 179 161 q 308 106 243 106 q 471 163 408 106 q 533 311 533 219 l 533 346 z "},"ǽ":{"ha":1240,"x_min":53,"x_max":1176,"o":"m 533 457 l 533 475 q 488 580 533 543 q 371 617 443 617 q 284 598 315 617 q 225 542 253 579 q 207 526 217 531 q 181 522 197 522 l 139 522 q 112 533 124 522 q 101 560 100 544 q 142 642 106 601 q 240 710 179 683 q 371 736 301 736 q 513 708 450 736 q 614 625 576 679 q 717 707 656 678 q 856 736 779 736 q 1090 642 1004 736 q 1176 385 1176 547 l 1176 347 q 1165 321 1176 332 q 1139 310 1154 310 l 661 310 l 661 301 q 717 158 664 210 q 856 106 771 106 q 963 124 925 106 q 1032 175 1001 142 q 1052 190 1043 186 q 1076 194 1061 194 l 1118 194 q 1146 183 1135 194 q 1156 157 1157 172 q 1115 80 1150 119 q 1013 13 1079 40 q 856 -14 947 -14 q 704 23 771 -14 q 594 126 638 60 q 472 22 542 57 q 294 -14 401 -14 q 168 12 224 -14 q 83 82 113 38 q 53 182 53 126 q 131 345 53 286 q 338 425 208 404 l 533 457 m 1051 426 l 1051 431 q 998 566 1051 515 q 856 617 944 617 q 719 565 775 617 q 661 431 663 514 l 661 426 l 1051 426 m 533 346 l 369 319 q 229 274 279 306 q 179 196 179 243 q 211 133 179 161 q 308 106 243 106 q 471 163 408 106 q 533 311 533 219 l 533 346 m 658 994 q 683 1016 674 1011 q 710 1021 693 1021 l 813 1021 q 832 1013 825 1021 q 839 993 839 1006 q 832 976 839 983 l 678 850 q 651 832 663 838 q 619 826 639 826 l 568 826 q 546 849 546 826 q 553 867 546 860 l 658 994 z "},"b":{"ha":831,"x_min":104,"x_max":763,"o":"m 761 407 q 763 363 763 393 q 761 317 763 331 q 715 142 757 217 q 602 26 672 67 q 446 -14 532 -14 q 231 81 301 -14 l 231 38 q 219 11 231 22 q 193 0 208 0 l 142 0 q 115 11 126 0 q 104 38 104 22 l 104 949 q 115 975 104 964 q 142 986 126 986 l 193 986 q 219 975 208 986 q 231 949 231 964 l 231 642 q 315 709 261 682 q 446 736 368 736 q 603 696 533 736 q 715 581 672 656 q 761 407 757 507 m 432 106 q 575 163 522 106 q 635 322 628 221 q 636 361 636 336 q 583 548 636 479 q 432 617 529 617 q 292 563 344 617 q 231 411 239 508 q 229 357 229 397 q 231 301 229 315 q 292 158 238 211 q 432 106 347 106 z "},"c":{"ha":771,"x_min":69,"x_max":710,"o":"m 396 106 q 583 214 535 106 q 603 243 593 235 q 629 251 613 251 l 671 251 q 697 241 686 251 q 708 217 708 231 q 671 115 708 169 q 563 24 633 61 q 396 -14 492 -14 q 225 28 297 -14 q 114 142 153 69 q 71 306 75 215 q 69 369 69 322 q 71 417 69 403 q 167 647 83 558 q 396 736 250 736 q 562 699 492 736 q 669 609 632 663 q 708 508 706 556 q 698 482 710 493 q 671 471 686 471 l 629 471 q 603 479 613 471 q 583 508 593 488 q 396 617 535 617 q 263 565 319 617 q 197 410 206 514 q 196 360 196 394 q 197 313 196 328 q 263 157 207 208 q 396 106 319 106 z "},"ć":{"ha":771,"x_min":69,"x_max":710,"o":"m 396 106 q 583 214 535 106 q 603 243 593 235 q 629 251 613 251 l 671 251 q 697 241 686 251 q 708 217 708 231 q 671 115 708 169 q 563 24 633 61 q 396 -14 492 -14 q 225 28 297 -14 q 114 142 153 69 q 71 306 75 215 q 69 369 69 322 q 71 417 69 403 q 167 647 83 558 q 396 736 250 736 q 562 699 492 736 q 669 609 632 663 q 708 508 706 556 q 698 482 710 493 q 671 471 686 471 l 629 471 q 603 479 613 471 q 583 508 593 488 q 396 617 535 617 q 263 565 319 617 q 197 410 206 514 q 196 360 196 394 q 197 313 196 328 q 263 157 207 208 q 396 106 319 106 m 438 994 q 463 1016 453 1011 q 489 1021 472 1021 l 592 1021 q 611 1013 604 1021 q 618 993 618 1006 q 611 976 618 983 l 457 850 q 430 832 442 838 q 399 826 418 826 l 347 826 q 325 849 325 826 q 332 867 325 860 l 438 994 z "},"č":{"ha":771,"x_min":69,"x_max":710,"o":"m 396 106 q 583 214 535 106 q 603 243 593 235 q 629 251 613 251 l 671 251 q 697 241 686 251 q 708 217 708 231 q 671 115 708 169 q 563 24 633 61 q 396 -14 492 -14 q 225 28 297 -14 q 114 142 153 69 q 71 306 75 215 q 69 369 69 322 q 71 417 69 403 q 167 647 83 558 q 396 736 250 736 q 562 699 492 736 q 669 609 632 663 q 708 508 706 556 q 698 482 710 493 q 671 471 686 471 l 629 471 q 603 479 613 471 q 583 508 593 488 q 396 617 535 617 q 263 565 319 617 q 197 410 206 514 q 196 360 196 394 q 197 313 196 328 q 263 157 207 208 q 396 106 319 106 m 375 826 q 349 832 360 826 q 324 853 338 838 l 196 981 q 189 999 189 988 q 211 1021 189 1021 l 240 1021 q 261 1017 253 1021 q 283 1006 269 1014 l 389 935 l 494 1006 q 517 1017 508 1014 q 538 1021 525 1021 l 567 1021 q 589 999 589 1021 q 582 981 589 988 l 454 853 q 429 832 440 838 q 403 826 418 826 l 375 826 z "},"ç":{"ha":771,"x_min":69,"x_max":710,"o":"m 396 106 q 583 214 535 106 q 603 243 593 235 q 629 251 613 251 l 671 251 q 697 241 686 251 q 708 217 708 231 q 672 117 708 169 q 567 26 636 64 q 406 -14 499 -11 l 376 -78 q 425 -67 394 -67 q 501 -100 471 -67 q 531 -183 531 -133 q 497 -272 531 -237 q 393 -306 463 -306 q 317 -286 353 -306 q 281 -247 281 -267 q 286 -235 281 -240 l 306 -217 q 324 -208 317 -208 q 350 -222 331 -208 q 393 -235 369 -235 q 453 -186 453 -235 q 393 -137 453 -137 q 358 -144 375 -137 q 336 -150 342 -150 q 318 -140 328 -150 l 294 -115 q 289 -101 289 -110 q 297 -74 289 -90 l 325 -8 q 142 98 208 13 q 71 306 76 183 q 69 369 69 322 q 71 417 69 403 q 167 647 83 558 q 396 736 250 736 q 562 699 492 736 q 669 609 632 663 q 708 508 706 556 q 698 482 710 493 q 671 471 686 471 l 629 471 q 603 479 613 471 q 583 508 593 488 q 396 617 535 617 q 263 565 319 617 q 197 410 206 514 q 196 360 196 394 q 197 313 196 328 q 263 157 207 208 q 396 106 319 106 z "},"ĉ":{"ha":771,"x_min":69,"x_max":710,"o":"m 396 106 q 583 214 535 106 q 603 243 593 235 q 629 251 613 251 l 671 251 q 697 241 686 251 q 708 217 708 231 q 671 115 708 169 q 563 24 633 61 q 396 -14 492 -14 q 225 28 297 -14 q 114 142 153 69 q 71 306 75 215 q 69 369 69 322 q 71 417 69 403 q 167 647 83 558 q 396 736 250 736 q 562 699 492 736 q 669 609 632 663 q 708 508 706 556 q 698 482 710 493 q 671 471 686 471 l 629 471 q 603 479 613 471 q 583 508 593 488 q 396 617 535 617 q 263 565 319 617 q 197 410 206 514 q 196 360 196 394 q 197 313 196 328 q 263 157 207 208 q 396 106 319 106 m 403 1021 q 429 1015 418 1021 q 454 994 440 1010 l 582 867 q 589 849 589 860 q 567 826 589 826 l 538 826 q 517 830 525 826 q 494 842 508 833 l 389 913 l 283 842 q 261 830 269 833 q 240 826 253 826 l 211 826 q 189 849 189 826 q 196 867 189 860 l 324 994 q 349 1015 338 1010 q 375 1021 360 1021 l 403 1021 z "},"ċ":{"ha":771,"x_min":69,"x_max":710,"o":"m 396 106 q 583 214 535 106 q 603 243 593 235 q 629 251 613 251 l 671 251 q 697 241 686 251 q 708 217 708 231 q 671 115 708 169 q 563 24 633 61 q 396 -14 492 -14 q 225 28 297 -14 q 114 142 153 69 q 71 306 75 215 q 69 369 69 322 q 71 417 69 403 q 167 647 83 558 q 396 736 250 736 q 562 699 492 736 q 669 609 632 663 q 708 508 706 556 q 698 482 710 493 q 671 471 686 471 l 629 471 q 603 479 613 471 q 583 508 593 488 q 396 617 535 617 q 263 565 319 617 q 197 410 206 514 q 196 360 196 394 q 197 313 196 328 q 263 157 207 208 q 396 106 319 106 m 467 871 q 456 844 467 856 q 429 833 444 833 l 350 833 q 324 844 335 833 q 313 871 313 856 l 313 950 q 324 976 313 965 q 350 988 335 988 l 429 988 q 456 976 444 988 q 467 950 467 965 l 467 871 z "},"d":{"ha":831,"x_min":68,"x_max":726,"o":"m 600 949 q 611 975 600 964 q 638 986 622 986 l 689 986 q 715 975 704 986 q 726 949 726 964 l 726 38 q 715 11 726 22 q 689 0 704 0 l 638 0 q 611 11 622 0 q 600 38 600 22 l 600 81 q 385 -14 529 -14 q 228 26 299 -14 q 116 142 158 67 q 69 317 74 217 l 68 363 l 69 407 q 116 581 74 507 q 228 696 158 656 q 385 736 297 736 q 516 709 463 736 q 600 642 569 682 l 600 949 m 600 411 q 542 563 596 508 q 399 617 488 617 q 255 558 308 617 q 196 400 201 500 l 194 361 l 196 322 q 255 164 201 222 q 399 106 308 106 q 540 159 485 106 q 600 301 596 213 q 601 357 601 315 q 600 411 601 397 z "},"ð":{"ha":776,"x_min":65,"x_max":701,"o":"m 535 619 q 458 753 508 690 l 332 703 q 317 699 322 699 q 296 707 304 699 q 288 728 288 715 l 288 767 q 294 797 288 786 q 318 813 301 807 l 381 836 q 292 914 322 889 q 268 944 268 932 q 276 965 268 957 q 296 972 283 972 l 368 972 q 418 954 396 972 q 496 882 474 904 l 636 938 q 651 942 647 942 q 672 933 664 942 q 681 913 681 925 l 681 874 q 674 845 681 856 q 650 828 667 835 l 572 797 q 669 601 638 713 q 701 319 701 490 q 660 147 701 222 q 547 28 619 71 q 383 -14 475 -14 q 219 28 292 -14 q 106 147 147 71 q 65 319 65 222 q 106 498 65 422 q 218 613 146 574 q 383 653 290 653 q 535 619 464 653 m 192 319 q 240 163 192 221 q 383 106 289 106 q 526 163 478 106 q 575 319 575 221 q 526 476 575 418 q 383 533 478 533 q 240 476 289 533 q 192 319 192 418 z "},"ď":{"ha":911,"x_min":68,"x_max":992,"o":"m 600 949 q 611 975 600 964 q 638 986 622 986 l 689 986 q 715 975 704 986 q 726 949 726 964 l 726 38 q 715 11 726 22 q 689 0 704 0 l 638 0 q 611 11 622 0 q 600 38 600 22 l 600 81 q 385 -14 529 -14 q 228 26 299 -14 q 116 142 158 67 q 69 317 74 217 l 68 363 l 69 407 q 116 581 74 507 q 228 696 158 656 q 385 736 297 736 q 516 709 463 736 q 600 642 569 682 l 600 949 m 600 411 q 542 563 596 508 q 399 617 488 617 q 255 558 308 617 q 196 400 201 500 l 194 361 l 196 322 q 255 164 201 222 q 399 106 308 106 q 540 159 485 106 q 600 301 596 213 q 601 357 601 315 q 600 411 601 397 m 829 932 q 848 970 833 954 q 889 986 863 986 l 961 986 q 983 977 974 986 q 992 956 992 968 q 990 946 992 950 l 915 753 q 856 708 899 708 l 831 708 q 809 717 818 708 q 800 739 800 726 l 800 742 l 829 932 z "},"đ":{"ha":831,"x_min":68,"x_max":838,"o":"m 600 785 l 519 785 q 497 793 506 785 q 489 815 489 801 l 489 851 q 497 874 489 865 q 519 882 506 882 l 600 882 l 600 949 q 611 975 600 964 q 638 986 622 986 l 689 986 q 715 975 704 986 q 726 949 726 964 l 726 882 l 807 882 q 829 874 821 882 q 838 851 838 865 l 838 815 q 829 793 838 801 q 807 785 821 785 l 726 785 l 726 38 q 715 11 726 22 q 689 0 704 0 l 638 0 q 611 11 622 0 q 600 38 600 22 l 600 81 q 385 -14 529 -14 q 228 26 299 -14 q 116 142 158 67 q 69 317 74 217 l 68 363 l 69 407 q 116 581 74 507 q 228 696 158 656 q 385 736 297 736 q 516 709 463 736 q 600 642 569 682 l 600 785 m 600 411 q 542 563 596 508 q 399 617 488 617 q 255 558 308 617 q 196 400 201 500 l 194 361 l 196 322 q 255 164 201 222 q 399 106 308 106 q 540 159 485 106 q 600 301 596 213 q 601 357 601 315 q 600 411 601 397 z "},"e":{"ha":774,"x_min":68,"x_max":710,"o":"m 389 736 q 624 642 538 736 q 710 385 710 547 l 710 347 q 699 321 710 332 q 672 310 688 310 l 194 310 l 194 301 q 251 158 197 210 q 389 106 304 106 q 497 124 458 106 q 565 175 535 142 q 585 190 576 186 q 610 194 594 194 l 651 194 q 679 183 668 194 q 689 157 690 172 q 648 80 683 119 q 547 13 613 40 q 389 -14 481 -14 q 231 27 300 -14 q 120 140 161 68 q 71 303 79 213 q 68 367 68 344 q 71 431 68 389 q 120 586 79 517 q 230 696 161 656 q 389 736 299 736 m 585 426 l 585 431 q 531 566 585 515 q 389 617 478 617 q 252 565 308 617 q 194 431 196 514 l 194 426 l 585 426 z "},"é":{"ha":774,"x_min":68,"x_max":710,"o":"m 389 736 q 624 642 538 736 q 710 385 710 547 l 710 347 q 699 321 710 332 q 672 310 688 310 l 194 310 l 194 301 q 251 158 197 210 q 389 106 304 106 q 497 124 458 106 q 565 175 535 142 q 585 190 576 186 q 610 194 594 194 l 651 194 q 679 183 668 194 q 689 157 690 172 q 648 80 683 119 q 547 13 613 40 q 389 -14 481 -14 q 231 27 300 -14 q 120 140 161 68 q 71 303 79 213 q 68 367 68 344 q 71 431 68 389 q 120 586 79 517 q 230 696 161 656 q 389 736 299 736 m 585 426 l 585 431 q 531 566 585 515 q 389 617 478 617 q 252 565 308 617 q 194 431 196 514 l 194 426 l 585 426 m 432 994 q 457 1016 447 1011 q 483 1021 467 1021 l 586 1021 q 606 1013 599 1021 q 613 993 613 1006 q 606 976 613 983 l 451 850 q 424 832 436 838 q 393 826 413 826 l 342 826 q 319 849 319 826 q 326 867 319 860 l 432 994 z "},"ĕ":{"ha":774,"x_min":68,"x_max":710,"o":"m 389 736 q 624 642 538 736 q 710 385 710 547 l 710 347 q 699 321 710 332 q 672 310 688 310 l 194 310 l 194 301 q 251 158 197 210 q 389 106 304 106 q 497 124 458 106 q 565 175 535 142 q 585 190 576 186 q 610 194 594 194 l 651 194 q 679 183 668 194 q 689 157 690 172 q 648 80 683 119 q 547 13 613 40 q 389 -14 481 -14 q 231 27 300 -14 q 120 140 161 68 q 71 303 79 213 q 68 367 68 344 q 71 431 68 389 q 120 586 79 517 q 230 696 161 656 q 389 736 299 736 m 585 426 l 585 431 q 531 566 585 515 q 389 617 478 617 q 252 565 308 617 q 194 431 196 514 l 194 426 l 585 426 m 215 994 q 222 1013 215 1006 q 242 1021 229 1021 l 286 1021 q 306 1013 299 1021 q 313 994 313 1006 q 333 935 313 958 q 388 911 353 911 q 442 935 422 911 q 463 994 463 958 q 469 1013 463 1006 q 489 1021 476 1021 l 533 1021 q 553 1013 546 1021 q 560 994 560 1006 q 515 872 560 925 q 388 819 471 819 q 260 872 304 819 q 215 994 215 925 z "},"ě":{"ha":774,"x_min":68,"x_max":710,"o":"m 389 736 q 624 642 538 736 q 710 385 710 547 l 710 347 q 699 321 710 332 q 672 310 688 310 l 194 310 l 194 301 q 251 158 197 210 q 389 106 304 106 q 497 124 458 106 q 565 175 535 142 q 585 190 576 186 q 610 194 594 194 l 651 194 q 679 183 668 194 q 689 157 690 172 q 648 80 683 119 q 547 13 613 40 q 389 -14 481 -14 q 231 27 300 -14 q 120 140 161 68 q 71 303 79 213 q 68 367 68 344 q 71 431 68 389 q 120 586 79 517 q 230 696 161 656 q 389 736 299 736 m 585 426 l 585 431 q 531 566 585 515 q 389 617 478 617 q 252 565 308 617 q 194 431 196 514 l 194 426 l 585 426 m 374 826 q 347 832 358 826 q 322 853 336 838 l 194 981 q 188 999 188 988 q 210 1021 188 1021 l 239 1021 q 260 1017 251 1021 q 282 1006 268 1014 l 388 935 l 493 1006 q 515 1017 507 1014 q 536 1021 524 1021 l 565 1021 q 588 999 588 1021 q 581 981 588 988 l 453 853 q 428 832 439 838 q 401 826 417 826 l 374 826 z "},"ê":{"ha":774,"x_min":68,"x_max":710,"o":"m 389 736 q 624 642 538 736 q 710 385 710 547 l 710 347 q 699 321 710 332 q 672 310 688 310 l 194 310 l 194 301 q 251 158 197 210 q 389 106 304 106 q 497 124 458 106 q 565 175 535 142 q 585 190 576 186 q 610 194 594 194 l 651 194 q 679 183 668 194 q 689 157 690 172 q 648 80 683 119 q 547 13 613 40 q 389 -14 481 -14 q 231 27 300 -14 q 120 140 161 68 q 71 303 79 213 q 68 367 68 344 q 71 431 68 389 q 120 586 79 517 q 230 696 161 656 q 389 736 299 736 m 585 426 l 585 431 q 531 566 585 515 q 389 617 478 617 q 252 565 308 617 q 194 431 196 514 l 194 426 l 585 426 m 401 1021 q 428 1015 417 1021 q 453 994 439 1010 l 581 867 q 588 849 588 860 q 565 826 588 826 l 536 826 q 515 830 524 826 q 493 842 507 833 l 388 913 l 282 842 q 260 830 268 833 q 239 826 251 826 l 210 826 q 188 849 188 826 q 194 867 188 860 l 322 994 q 347 1015 336 1010 q 374 1021 358 1021 l 401 1021 z "},"ë":{"ha":774,"x_min":68,"x_max":710,"o":"m 389 736 q 624 642 538 736 q 710 385 710 547 l 710 347 q 699 321 710 332 q 672 310 688 310 l 194 310 l 194 301 q 251 158 197 210 q 389 106 304 106 q 497 124 458 106 q 565 175 535 142 q 585 190 576 186 q 610 194 594 194 l 651 194 q 679 183 668 194 q 689 157 690 172 q 648 80 683 119 q 547 13 613 40 q 389 -14 481 -14 q 231 27 300 -14 q 120 140 161 68 q 71 303 79 213 q 68 367 68 344 q 71 431 68 389 q 120 586 79 517 q 230 696 161 656 q 389 736 299 736 m 585 426 l 585 431 q 531 566 585 515 q 389 617 478 617 q 252 565 308 617 q 194 431 196 514 l 194 426 l 585 426 m 339 871 q 328 844 339 856 q 301 833 317 833 l 222 833 q 196 844 207 833 q 185 871 185 856 l 185 950 q 196 976 185 965 q 222 988 207 988 l 301 988 q 328 976 317 988 q 339 950 339 965 l 339 871 m 590 871 q 579 844 590 856 q 553 833 568 833 l 474 833 q 447 844 458 833 q 436 871 436 856 l 436 950 q 447 976 436 965 q 474 988 458 988 l 553 988 q 579 976 568 988 q 590 950 590 965 l 590 871 z "},"ė":{"ha":774,"x_min":68,"x_max":710,"o":"m 389 736 q 624 642 538 736 q 710 385 710 547 l 710 347 q 699 321 710 332 q 672 310 688 310 l 194 310 l 194 301 q 251 158 197 210 q 389 106 304 106 q 497 124 458 106 q 565 175 535 142 q 585 190 576 186 q 610 194 594 194 l 651 194 q 679 183 668 194 q 689 157 690 172 q 648 80 683 119 q 547 13 613 40 q 389 -14 481 -14 q 231 27 300 -14 q 120 140 161 68 q 71 303 79 213 q 68 367 68 344 q 71 431 68 389 q 120 586 79 517 q 230 696 161 656 q 389 736 299 736 m 585 426 l 585 431 q 531 566 585 515 q 389 617 478 617 q 252 565 308 617 q 194 431 196 514 l 194 426 l 585 426 m 465 871 q 454 844 465 856 q 428 833 443 833 l 349 833 q 322 844 333 833 q 311 871 311 856 l 311 950 q 322 976 311 965 q 349 988 333 988 l 428 988 q 454 976 443 988 q 465 950 465 965 l 465 871 z "},"è":{"ha":774,"x_min":68,"x_max":710,"o":"m 389 736 q 624 642 538 736 q 710 385 710 547 l 710 347 q 699 321 710 332 q 672 310 688 310 l 194 310 l 194 301 q 251 158 197 210 q 389 106 304 106 q 497 124 458 106 q 565 175 535 142 q 585 190 576 186 q 610 194 594 194 l 651 194 q 679 183 668 194 q 689 157 690 172 q 648 80 683 119 q 547 13 613 40 q 389 -14 481 -14 q 231 27 300 -14 q 120 140 161 68 q 71 303 79 213 q 68 367 68 344 q 71 431 68 389 q 120 586 79 517 q 230 696 161 656 q 389 736 299 736 m 585 426 l 585 431 q 531 566 585 515 q 389 617 478 617 q 252 565 308 617 q 194 431 196 514 l 194 426 l 585 426 m 456 867 q 463 849 463 860 q 440 826 463 826 l 389 826 q 358 832 369 826 q 331 850 346 838 l 176 976 q 169 993 169 983 q 176 1013 169 1006 q 196 1021 183 1021 l 299 1021 q 325 1016 315 1021 q 350 994 335 1011 l 456 867 z "},"ē":{"ha":774,"x_min":68,"x_max":710,"o":"m 389 736 q 624 642 538 736 q 710 385 710 547 l 710 347 q 699 321 710 332 q 672 310 688 310 l 194 310 l 194 301 q 251 158 197 210 q 389 106 304 106 q 497 124 458 106 q 565 175 535 142 q 585 190 576 186 q 610 194 594 194 l 651 194 q 679 183 668 194 q 689 157 690 172 q 648 80 683 119 q 547 13 613 40 q 389 -14 481 -14 q 231 27 300 -14 q 120 140 161 68 q 71 303 79 213 q 68 367 68 344 q 71 431 68 389 q 120 586 79 517 q 230 696 161 656 q 389 736 299 736 m 585 426 l 585 431 q 531 566 585 515 q 389 617 478 617 q 252 565 308 617 q 194 431 196 514 l 194 426 l 585 426 m 236 840 q 210 851 221 840 q 199 878 199 863 l 199 922 q 210 949 199 938 q 236 960 221 960 l 540 960 q 567 949 556 960 q 578 922 578 938 l 578 878 q 567 851 578 863 q 540 840 556 840 l 236 840 z "},"ę":{"ha":774,"x_min":68,"x_max":710,"o":"m 389 736 q 624 642 538 736 q 710 385 710 547 l 710 347 q 699 321 710 332 q 672 310 688 310 l 194 310 l 194 301 q 251 158 197 210 q 389 106 304 106 q 497 124 458 106 q 565 175 535 142 q 585 190 576 186 q 610 194 594 194 l 651 194 q 679 183 668 194 q 689 157 690 172 q 653 87 683 124 q 568 23 624 50 q 435 -11 513 -4 q 370 -38 390 -19 q 350 -103 350 -57 q 373 -181 350 -156 q 442 -206 396 -206 l 463 -206 q 485 -214 476 -206 q 493 -236 493 -222 l 493 -275 q 485 -297 493 -289 q 463 -306 476 -306 l 436 -306 q 293 -252 349 -306 q 238 -103 238 -199 q 264 10 238 -39 q 131 122 182 43 q 71 303 81 200 q 68 367 68 344 q 71 431 68 389 q 120 586 79 517 q 230 696 161 656 q 389 736 299 736 m 585 426 l 585 431 q 531 566 585 515 q 389 617 478 617 q 252 565 308 617 q 194 431 196 514 l 194 426 l 585 426 z "},"f":{"ha":542,"x_min":26,"x_max":535,"o":"m 483 722 q 510 711 499 722 q 521 685 521 700 l 521 640 q 510 614 521 625 q 483 603 499 603 l 307 603 l 307 38 q 296 11 307 22 q 269 0 285 0 l 218 0 q 192 11 203 0 q 181 38 181 22 l 181 603 l 64 603 q 38 614 49 603 q 26 640 26 625 l 26 685 q 38 711 26 700 q 64 722 49 722 l 181 722 l 181 792 q 236 969 181 911 q 410 1028 292 1028 l 497 1028 q 524 1017 513 1028 q 535 990 535 1006 l 535 946 q 524 919 535 931 q 497 908 513 908 l 424 908 q 331 876 356 908 q 307 785 307 844 l 307 722 l 483 722 z "},"g":{"ha":831,"x_min":68,"x_max":726,"o":"m 385 736 q 516 709 463 736 q 600 642 569 682 l 600 685 q 611 711 600 700 q 638 722 622 722 l 689 722 q 715 711 704 722 q 726 685 726 700 l 726 10 q 643 -222 726 -137 q 399 -306 560 -306 q 224 -274 294 -306 q 119 -194 153 -242 q 82 -99 85 -147 q 92 -72 81 -83 q 119 -61 104 -61 l 161 -61 q 188 -69 178 -61 q 207 -99 197 -78 q 260 -158 221 -131 q 385 -186 299 -186 q 600 -7 600 -186 l 600 81 q 385 -14 529 -14 q 228 26 299 -14 q 116 141 158 67 q 69 315 74 215 l 68 361 l 69 407 q 116 581 74 507 q 228 696 158 656 q 385 736 297 736 m 399 617 q 255 558 308 617 q 196 400 201 500 l 194 361 l 196 322 q 255 164 201 222 q 399 106 308 106 q 542 160 488 106 q 600 311 596 215 q 601 361 601 325 q 600 411 601 397 q 542 563 596 508 q 399 617 488 617 z "},"ğ":{"ha":831,"x_min":68,"x_max":726,"o":"m 385 736 q 516 709 463 736 q 600 642 569 682 l 600 685 q 611 711 600 700 q 638 722 622 722 l 689 722 q 715 711 704 722 q 726 685 726 700 l 726 10 q 643 -222 726 -137 q 399 -306 560 -306 q 224 -274 294 -306 q 119 -194 153 -242 q 82 -99 85 -147 q 92 -72 81 -83 q 119 -61 104 -61 l 161 -61 q 188 -69 178 -61 q 207 -99 197 -78 q 260 -158 221 -131 q 385 -186 299 -186 q 600 -7 600 -186 l 600 81 q 385 -14 529 -14 q 228 26 299 -14 q 116 141 158 67 q 69 315 74 215 l 68 361 l 69 407 q 116 581 74 507 q 228 696 158 656 q 385 736 297 736 m 399 617 q 255 558 308 617 q 196 400 201 500 l 194 361 l 196 322 q 255 164 201 222 q 399 106 308 106 q 542 160 488 106 q 600 311 596 215 q 601 361 601 325 q 600 411 601 397 q 542 563 596 508 q 399 617 488 617 m 225 994 q 232 1013 225 1006 q 251 1021 239 1021 l 296 1021 q 315 1013 308 1021 q 322 994 322 1006 q 342 935 322 958 q 397 911 363 911 q 452 935 432 911 q 472 994 472 958 q 479 1013 472 1006 q 499 1021 486 1021 l 543 1021 q 563 1013 556 1021 q 569 994 569 1006 q 525 872 569 925 q 397 819 481 819 q 269 872 314 819 q 225 994 225 925 z "},"ĝ":{"ha":831,"x_min":68,"x_max":726,"o":"m 385 736 q 516 709 463 736 q 600 642 569 682 l 600 685 q 611 711 600 700 q 638 722 622 722 l 689 722 q 715 711 704 722 q 726 685 726 700 l 726 10 q 643 -222 726 -137 q 399 -306 560 -306 q 224 -274 294 -306 q 119 -194 153 -242 q 82 -99 85 -147 q 92 -72 81 -83 q 119 -61 104 -61 l 161 -61 q 188 -69 178 -61 q 207 -99 197 -78 q 260 -158 221 -131 q 385 -186 299 -186 q 600 -7 600 -186 l 600 81 q 385 -14 529 -14 q 228 26 299 -14 q 116 141 158 67 q 69 315 74 215 l 68 361 l 69 407 q 116 581 74 507 q 228 696 158 656 q 385 736 297 736 m 399 617 q 255 558 308 617 q 196 400 201 500 l 194 361 l 196 322 q 255 164 201 222 q 399 106 308 106 q 542 160 488 106 q 600 311 596 215 q 601 361 601 325 q 600 411 601 397 q 542 563 596 508 q 399 617 488 617 m 411 1021 q 438 1015 426 1021 q 463 994 449 1010 l 590 867 q 597 849 597 860 q 575 826 597 826 l 546 826 q 525 830 533 826 q 503 842 517 833 l 397 913 l 292 842 q 269 830 278 833 q 249 826 261 826 l 219 826 q 197 849 197 826 q 204 867 197 860 l 332 994 q 357 1015 346 1010 q 383 1021 368 1021 l 411 1021 z "},"ģ":{"ha":831,"x_min":68,"x_max":726,"o":"m 488 881 q 469 842 483 858 q 428 826 454 826 l 356 826 q 334 835 343 826 q 325 857 325 844 q 326 867 325 863 l 401 1060 q 461 1104 418 1104 l 486 1104 q 508 1095 499 1104 q 517 1074 517 1086 l 517 1071 l 488 881 m 385 736 q 516 709 463 736 q 600 642 569 682 l 600 685 q 611 711 600 700 q 638 722 622 722 l 689 722 q 715 711 704 722 q 726 685 726 700 l 726 10 q 643 -222 726 -137 q 399 -306 560 -306 q 224 -274 294 -306 q 119 -194 153 -242 q 82 -99 85 -147 q 92 -72 81 -83 q 119 -61 104 -61 l 161 -61 q 188 -69 178 -61 q 207 -99 197 -78 q 260 -158 221 -131 q 385 -186 299 -186 q 600 -7 600 -186 l 600 81 q 385 -14 529 -14 q 228 26 299 -14 q 116 141 158 67 q 69 315 74 215 l 68 361 l 69 407 q 116 581 74 507 q 228 696 158 656 q 385 736 297 736 m 399 617 q 255 558 308 617 q 196 400 201 500 l 194 361 l 196 322 q 255 164 201 222 q 399 106 308 106 q 542 160 488 106 q 600 311 596 215 q 601 361 601 325 q 600 411 601 397 q 542 563 596 508 q 399 617 488 617 z "},"ġ":{"ha":831,"x_min":68,"x_max":726,"o":"m 385 736 q 516 709 463 736 q 600 642 569 682 l 600 685 q 611 711 600 700 q 638 722 622 722 l 689 722 q 715 711 704 722 q 726 685 726 700 l 726 10 q 643 -222 726 -137 q 399 -306 560 -306 q 224 -274 294 -306 q 119 -194 153 -242 q 82 -99 85 -147 q 92 -72 81 -83 q 119 -61 104 -61 l 161 -61 q 188 -69 178 -61 q 207 -99 197 -78 q 260 -158 221 -131 q 385 -186 299 -186 q 600 -7 600 -186 l 600 81 q 385 -14 529 -14 q 228 26 299 -14 q 116 141 158 67 q 69 315 74 215 l 68 361 l 69 407 q 116 581 74 507 q 228 696 158 656 q 385 736 297 736 m 399 617 q 255 558 308 617 q 196 400 201 500 l 194 361 l 196 322 q 255 164 201 222 q 399 106 308 106 q 542 160 488 106 q 600 311 596 215 q 601 361 601 325 q 600 411 601 397 q 542 563 596 508 q 399 617 488 617 m 475 871 q 464 844 475 856 q 438 833 453 833 l 358 833 q 332 844 343 833 q 321 871 321 856 l 321 950 q 332 976 321 965 q 358 988 343 988 l 438 988 q 464 976 453 988 q 475 950 475 965 l 475 871 z "},"h":{"ha":843,"x_min":104,"x_max":746,"o":"m 746 38 q 735 11 746 22 q 708 0 724 0 l 657 0 q 631 11 642 0 q 619 38 619 22 l 619 404 q 568 563 619 508 q 425 617 517 617 q 283 563 335 617 q 231 404 231 508 l 231 38 q 219 11 231 22 q 193 0 208 0 l 142 0 q 115 11 126 0 q 104 38 104 22 l 104 949 q 115 975 104 964 q 142 986 126 986 l 193 986 q 219 975 208 986 q 231 949 231 964 l 231 642 q 315 709 261 682 q 446 736 368 736 q 601 699 533 736 q 708 591 669 661 q 746 425 746 521 l 746 38 z "},"ħ":{"ha":843,"x_min":-7,"x_max":746,"o":"m 746 38 q 735 11 746 22 q 708 0 724 0 l 657 0 q 631 11 642 0 q 619 38 619 22 l 619 404 q 568 563 619 508 q 425 617 517 617 q 283 563 335 617 q 231 404 231 508 l 231 38 q 219 11 231 22 q 193 0 208 0 l 142 0 q 115 11 126 0 q 104 38 104 22 l 104 785 l 24 785 q 1 793 10 785 q -7 815 -7 801 l -7 851 q 1 874 -7 865 q 24 882 10 882 l 104 882 l 104 949 q 115 975 104 964 q 142 986 126 986 l 193 986 q 219 975 208 986 q 231 949 231 964 l 231 882 l 311 882 q 333 874 325 882 q 342 851 342 865 l 342 815 q 333 793 342 801 q 311 785 325 785 l 231 785 l 231 642 q 315 709 261 682 q 446 736 368 736 q 601 699 533 736 q 708 591 669 661 q 746 425 746 521 l 746 38 z "},"ĥ":{"ha":843,"x_min":104,"x_max":746,"o":"m 746 38 q 735 11 746 22 q 708 0 724 0 l 657 0 q 631 11 642 0 q 619 38 619 22 l 619 404 q 568 563 619 508 q 425 617 517 617 q 283 563 335 617 q 231 404 231 508 l 231 38 q 219 11 231 22 q 193 0 208 0 l 142 0 q 115 11 126 0 q 104 38 104 22 l 104 949 q 115 975 104 964 q 142 986 126 986 l 193 986 q 219 975 208 986 q 231 949 231 964 l 231 642 q 315 709 261 682 q 446 736 368 736 q 601 699 533 736 q 708 591 669 661 q 746 425 746 521 l 746 38 m 439 1236 q 465 1231 454 1236 q 490 1210 476 1225 l 618 1082 q 625 1064 625 1075 q 603 1042 625 1042 l 574 1042 q 553 1045 561 1042 q 531 1057 544 1049 l 425 1128 l 319 1057 q 297 1045 306 1049 q 276 1042 289 1042 l 247 1042 q 225 1064 225 1042 q 232 1082 225 1075 l 360 1210 q 385 1231 374 1225 q 411 1236 396 1236 l 439 1236 z "},"i":{"ha":335,"x_min":90,"x_max":244,"o":"m 244 869 q 233 843 244 854 q 207 832 222 832 l 128 832 q 101 843 113 832 q 90 869 90 854 l 90 949 q 101 975 90 964 q 128 986 113 986 l 207 986 q 233 975 222 986 q 244 949 244 964 l 244 869 m 231 38 q 219 11 231 22 q 193 0 208 0 l 142 0 q 115 11 126 0 q 104 38 104 22 l 104 685 q 115 711 104 700 q 142 722 126 722 l 193 722 q 219 711 208 722 q 231 685 231 700 l 231 38 z "},"ı":{"ha":335,"x_min":104,"x_max":231,"o":"m 231 38 q 219 11 231 22 q 193 0 208 0 l 142 0 q 115 11 126 0 q 104 38 104 22 l 104 685 q 115 711 104 700 q 142 722 126 722 l 193 722 q 219 711 208 722 q 231 685 231 700 l 231 38 z "},"í":{"ha":335,"x_min":96,"x_max":389,"o":"m 231 38 q 219 11 231 22 q 193 0 208 0 l 142 0 q 115 11 126 0 q 104 38 104 22 l 104 685 q 115 711 104 700 q 142 722 126 722 l 193 722 q 219 711 208 722 q 231 685 231 700 l 231 38 m 208 994 q 233 1016 224 1011 q 260 1021 243 1021 l 363 1021 q 382 1013 375 1021 q 389 993 389 1006 q 382 976 389 983 l 228 850 q 201 832 213 838 q 169 826 189 826 l 118 826 q 96 849 96 826 q 103 867 96 860 l 208 994 z "},"ĭ":{"ha":335,"x_min":-6,"x_max":339,"o":"m 231 38 q 219 11 231 22 q 193 0 208 0 l 142 0 q 115 11 126 0 q 104 38 104 22 l 104 685 q 115 711 104 700 q 142 722 126 722 l 193 722 q 219 711 208 722 q 231 685 231 700 l 231 38 m -6 994 q 1 1013 -6 1006 q 21 1021 8 1021 l 65 1021 q 85 1013 78 1021 q 92 994 92 1006 q 112 935 92 958 q 167 911 132 911 q 222 935 201 911 q 242 994 242 958 q 249 1013 242 1006 q 268 1021 256 1021 l 313 1021 q 332 1013 325 1021 q 339 994 339 1006 q 294 872 339 925 q 167 819 250 819 q 39 872 83 819 q -6 994 -6 925 z "},"î":{"ha":335,"x_min":-33,"x_max":367,"o":"m 231 38 q 219 11 231 22 q 193 0 208 0 l 142 0 q 115 11 126 0 q 104 38 104 22 l 104 685 q 115 711 104 700 q 142 722 126 722 l 193 722 q 219 711 208 722 q 231 685 231 700 l 231 38 m 181 1021 q 207 1015 196 1021 q 232 994 218 1010 l 360 867 q 367 849 367 860 q 344 826 367 826 l 315 826 q 294 830 303 826 q 272 842 286 833 l 167 913 l 61 842 q 39 830 47 833 q 18 826 31 826 l -11 826 q -33 849 -33 826 q -26 867 -33 860 l 101 994 q 126 1015 115 1010 q 153 1021 138 1021 l 181 1021 z "},"ï":{"ha":335,"x_min":-36,"x_max":369,"o":"m 231 38 q 219 11 231 22 q 193 0 208 0 l 142 0 q 115 11 126 0 q 104 38 104 22 l 104 685 q 115 711 104 700 q 142 722 126 722 l 193 722 q 219 711 208 722 q 231 685 231 700 l 231 38 m 118 871 q 107 844 118 856 q 81 833 96 833 l 1 833 q -25 844 -14 833 q -36 871 -36 856 l -36 950 q -25 976 -36 965 q 1 988 -14 988 l 81 988 q 107 976 96 988 q 118 950 118 965 l 118 871 m 369 871 q 358 844 369 856 q 332 833 347 833 l 253 833 q 226 844 238 833 q 215 871 215 856 l 215 950 q 226 976 215 965 q 253 988 238 988 l 332 988 q 358 976 347 988 q 369 950 369 965 l 369 871 z "},"ì":{"ha":335,"x_min":-58,"x_max":235,"o":"m 231 38 q 219 11 231 22 q 193 0 208 0 l 142 0 q 115 11 126 0 q 104 38 104 22 l 104 685 q 115 711 104 700 q 142 722 126 722 l 193 722 q 219 711 208 722 q 231 685 231 700 l 231 38 m 228 867 q 235 849 235 860 q 213 826 235 826 l 161 826 q 130 832 142 826 q 103 850 118 838 l -51 976 q -58 993 -58 983 q -51 1013 -58 1006 q -32 1021 -44 1021 l 71 1021 q 97 1016 88 1021 q 122 994 107 1011 l 228 867 z "},"ĳ":{"ha":682,"x_min":90,"x_max":592,"o":"m 244 869 q 233 843 244 854 q 207 832 222 832 l 128 832 q 101 843 113 832 q 90 869 90 854 l 90 949 q 101 975 90 964 q 128 986 113 986 l 207 986 q 233 975 222 986 q 244 949 244 964 l 244 869 m 231 38 q 219 11 231 22 q 193 0 208 0 l 142 0 q 115 11 126 0 q 104 38 104 22 l 104 685 q 115 711 104 700 q 142 722 126 722 l 193 722 q 219 711 208 722 q 231 685 231 700 l 231 38 m 592 869 q 581 843 592 854 q 554 832 569 832 l 475 832 q 449 843 460 832 q 438 869 438 854 l 438 949 q 449 975 438 964 q 475 986 460 986 l 554 986 q 581 975 569 986 q 592 949 592 964 l 592 869 m 451 685 q 463 711 451 700 q 489 722 474 722 l 540 722 q 567 711 556 722 q 578 685 578 700 l 578 -21 q 522 -202 578 -140 q 349 -264 467 -264 l 322 -264 q 296 -253 307 -264 q 285 -226 285 -242 l 285 -182 q 296 -156 285 -167 q 322 -144 307 -144 l 335 -144 q 427 -112 403 -144 q 451 -21 451 -81 l 451 685 z "},"ī":{"ha":335,"x_min":-22,"x_max":357,"o":"m 231 38 q 219 11 231 22 q 193 0 208 0 l 142 0 q 115 11 126 0 q 104 38 104 22 l 104 685 q 115 711 104 700 q 142 722 126 722 l 193 722 q 219 711 208 722 q 231 685 231 700 l 231 38 m 15 840 q -11 851 0 840 q -22 878 -22 863 l -22 922 q -11 949 -22 938 q 15 960 0 960 l 319 960 q 346 949 335 960 q 357 922 357 938 l 357 878 q 346 851 357 863 q 319 840 335 840 l 15 840 z "},"į":{"ha":372,"x_min":13,"x_max":278,"o":"m 278 869 q 267 843 278 854 q 240 832 256 832 l 161 832 q 135 843 146 832 q 124 869 124 854 l 124 949 q 135 975 124 964 q 161 986 146 986 l 240 986 q 267 975 256 986 q 278 949 278 964 l 278 869 m 268 38 q 257 11 268 22 q 231 0 246 0 l 207 0 q 125 -103 125 -4 q 148 -181 125 -156 q 217 -206 171 -206 l 238 -206 q 260 -214 251 -206 q 268 -236 268 -222 l 268 -275 q 260 -297 268 -289 q 238 -306 251 -306 l 211 -306 q 68 -252 124 -306 q 13 -103 13 -199 q 47 22 13 -28 q 142 90 82 72 l 142 685 q 153 711 142 700 q 179 722 164 722 l 231 722 q 257 711 246 722 q 268 685 268 700 l 268 38 z "},"ĩ":{"ha":335,"x_min":-36,"x_max":371,"o":"m 231 38 q 219 11 231 22 q 193 0 208 0 l 142 0 q 115 11 126 0 q 104 38 104 22 l 104 685 q 115 711 104 700 q 142 722 126 722 l 193 722 q 219 711 208 722 q 231 685 231 700 l 231 38 m 101 864 q 78 858 86 864 q 65 843 71 853 q 55 831 60 835 q 42 826 50 826 l -10 826 q -29 834 -22 826 q -36 853 -36 842 q -23 909 -36 878 q 17 963 -10 940 q 83 986 43 986 q 135 979 114 986 q 179 960 156 972 q 206 947 192 953 q 233 942 219 942 q 256 947 249 942 q 269 963 264 953 q 280 975 275 971 q 293 979 285 979 l 344 979 q 364 972 357 979 q 371 953 371 964 q 358 897 371 928 q 318 842 344 865 q 251 819 292 819 q 201 826 221 819 q 153 847 181 833 q 127 859 140 854 q 101 864 114 864 z "},"j":{"ha":347,"x_min":-50,"x_max":257,"o":"m 257 869 q 246 843 257 854 q 219 832 235 832 l 140 832 q 114 843 125 832 q 103 869 103 854 l 103 949 q 114 975 103 964 q 140 986 125 986 l 219 986 q 246 975 235 986 q 257 949 257 964 l 257 869 m 117 685 q 128 711 117 700 q 154 722 139 722 l 206 722 q 232 711 221 722 q 243 685 243 700 l 243 -21 q 188 -202 243 -140 q 14 -264 132 -264 l -12 -264 q -39 -253 -28 -264 q -50 -226 -50 -242 l -50 -182 q -39 -156 -50 -167 q -12 -144 -28 -144 l 0 -144 q 92 -112 68 -144 q 117 -21 117 -81 l 117 685 z "},"ȷ":{"ha":410,"x_min":13,"x_max":306,"o":"m 64 603 q 38 614 49 603 q 26 640 26 625 l 26 685 q 38 711 26 700 q 64 722 49 722 l 268 722 q 294 711 283 722 q 306 685 306 700 l 306 -21 q 250 -202 306 -140 q 76 -264 194 -264 l 50 -264 q 24 -253 35 -264 q 13 -226 13 -242 l 13 -182 q 24 -156 13 -167 q 50 -144 35 -144 l 63 -144 q 155 -112 131 -144 q 179 -21 179 -81 l 179 603 l 64 603 z "},"ĵ":{"ha":410,"x_min":-21,"x_max":379,"o":"m 64 603 q 38 614 49 603 q 26 640 26 625 l 26 685 q 38 711 26 700 q 64 722 49 722 l 268 722 q 294 711 283 722 q 306 685 306 700 l 306 -21 q 250 -202 306 -140 q 76 -264 194 -264 l 50 -264 q 24 -253 35 -264 q 13 -226 13 -242 l 13 -182 q 24 -156 13 -167 q 50 -144 35 -144 l 63 -144 q 155 -112 131 -144 q 179 -21 179 -81 l 179 603 l 64 603 m 193 1021 q 219 1015 208 1021 q 244 994 231 1010 l 372 867 q 379 849 379 860 q 357 826 379 826 l 328 826 q 307 830 315 826 q 285 842 299 833 l 179 913 l 74 842 q 51 830 60 833 q 31 826 43 826 l 1 826 q -21 849 -21 826 q -14 867 -21 860 l 114 994 q 139 1015 128 1010 q 165 1021 150 1021 l 193 1021 z "},"k":{"ha":710,"x_min":104,"x_max":692,"o":"m 231 38 q 219 11 231 22 q 193 0 208 0 l 142 0 q 115 11 126 0 q 104 38 104 22 l 104 949 q 115 975 104 964 q 142 986 126 986 l 193 986 q 219 975 208 986 q 231 949 231 964 l 231 489 l 501 699 q 528 716 517 710 q 556 722 539 722 l 625 722 q 649 713 639 722 q 658 689 658 703 q 643 661 658 674 l 308 400 l 678 60 q 692 33 692 46 q 682 10 692 19 q 658 0 672 0 l 593 0 q 536 24 564 0 l 231 306 l 231 38 z "},"ķ":{"ha":710,"x_min":104,"x_max":692,"o":"m 231 38 q 219 11 231 22 q 193 0 208 0 l 142 0 q 115 11 126 0 q 104 38 104 22 l 104 949 q 115 975 104 964 q 142 986 126 986 l 193 986 q 219 975 208 986 q 231 949 231 964 l 231 489 l 501 699 q 528 716 517 710 q 556 722 539 722 l 625 722 q 649 713 639 722 q 658 689 658 703 q 643 661 658 674 l 308 400 l 678 60 q 692 33 692 46 q 682 10 692 19 q 658 0 672 0 l 593 0 q 536 24 564 0 l 231 306 l 231 38 m 286 -124 q 305 -85 290 -101 q 346 -69 319 -69 l 418 -69 q 440 -78 431 -69 q 449 -100 449 -87 q 447 -110 449 -106 l 372 -303 q 313 -347 356 -347 l 288 -347 q 266 -338 275 -347 q 257 -317 257 -329 l 257 -314 l 286 -124 z "},"ĸ":{"ha":711,"x_min":104,"x_max":693,"o":"m 513 699 q 567 722 539 722 l 626 722 q 650 713 640 722 q 660 689 660 703 q 644 661 660 674 l 308 367 l 679 60 q 693 33 693 49 q 683 10 693 19 q 660 0 674 0 l 586 0 q 529 24 557 0 l 231 271 l 231 38 q 219 11 231 22 q 193 0 208 0 l 142 0 q 115 11 126 0 q 104 38 104 22 l 104 685 q 115 711 104 700 q 142 722 126 722 l 193 722 q 219 711 208 722 q 231 685 231 700 l 231 454 l 513 699 z "},"l":{"ha":335,"x_min":104,"x_max":231,"o":"m 231 38 q 219 11 231 22 q 193 0 208 0 l 142 0 q 115 11 126 0 q 104 38 104 22 l 104 949 q 115 975 104 964 q 142 986 126 986 l 193 986 q 219 975 208 986 q 231 949 231 964 l 231 38 z "},"ĺ":{"ha":335,"x_min":104,"x_max":397,"o":"m 231 38 q 219 11 231 22 q 193 0 208 0 l 142 0 q 115 11 126 0 q 104 38 104 22 l 104 949 q 115 975 104 964 q 142 986 126 986 l 193 986 q 219 975 208 986 q 231 949 231 964 l 231 38 m 217 1210 q 242 1231 232 1226 q 268 1236 251 1236 l 371 1236 q 390 1228 383 1236 q 397 1208 397 1221 q 390 1192 397 1199 l 236 1065 q 209 1047 221 1053 q 178 1042 197 1042 l 126 1042 q 104 1064 104 1042 q 111 1082 104 1075 l 217 1210 z "},"ľ":{"ha":414,"x_min":104,"x_max":496,"o":"m 231 38 q 219 11 231 22 q 193 0 208 0 l 142 0 q 115 11 126 0 q 104 38 104 22 l 104 949 q 115 975 104 964 q 142 986 126 986 l 193 986 q 219 975 208 986 q 231 949 231 964 l 231 38 m 333 933 q 352 972 338 956 q 393 988 367 988 l 465 988 q 487 978 478 988 q 496 957 496 969 q 494 947 496 951 l 419 754 q 360 710 403 710 l 335 710 q 313 719 322 710 q 304 740 304 728 l 304 743 l 333 933 z "},"ļ":{"ha":335,"x_min":46,"x_max":238,"o":"m 231 38 q 219 11 231 22 q 193 0 208 0 l 142 0 q 115 11 126 0 q 104 38 104 22 l 104 949 q 115 975 104 964 q 142 986 126 986 l 193 986 q 219 975 208 986 q 231 949 231 964 l 231 38 m 75 -124 q 94 -85 79 -101 q 135 -69 108 -69 l 207 -69 q 228 -78 219 -69 q 238 -100 238 -87 q 236 -110 238 -106 l 161 -303 q 101 -347 144 -347 l 76 -347 q 55 -338 64 -347 q 46 -317 46 -329 l 46 -314 l 75 -124 z "},"ŀ":{"ha":419,"x_min":104,"x_max":454,"o":"m 231 38 q 219 11 231 22 q 193 0 208 0 l 142 0 q 115 11 126 0 q 104 38 104 22 l 104 949 q 115 975 104 964 q 142 986 126 986 l 193 986 q 219 975 208 986 q 231 949 231 964 l 231 38 m 454 463 q 443 436 454 447 q 417 425 432 425 l 338 425 q 311 436 322 425 q 300 463 300 447 l 300 542 q 311 568 300 557 q 338 579 322 579 l 417 579 q 443 568 432 579 q 454 542 454 557 l 454 463 z "},"ł":{"ha":360,"x_min":33,"x_max":326,"o":"m 282 593 q 297 597 292 597 q 318 589 310 597 q 326 568 326 581 l 326 529 q 319 501 326 511 q 296 483 313 490 l 243 463 l 243 38 q 232 11 243 22 q 206 0 221 0 l 154 0 q 128 11 139 0 q 117 38 117 22 l 117 413 l 78 397 q 63 393 67 393 q 42 401 50 393 q 33 422 33 410 l 33 461 q 40 491 33 481 q 64 507 47 501 l 117 528 l 117 949 q 128 975 117 964 q 154 986 139 986 l 206 986 q 232 975 221 986 q 243 949 243 964 l 243 578 l 282 593 z "},"m":{"ha":1236,"x_min":104,"x_max":1139,"o":"m 231 642 q 306 710 264 685 q 417 736 347 736 q 644 615 579 736 q 736 705 685 674 q 871 736 788 736 q 1073 654 1007 736 q 1139 422 1139 572 l 1139 38 q 1128 11 1139 22 q 1101 0 1117 0 l 1050 0 q 1024 11 1035 0 q 1013 38 1013 22 l 1013 408 q 849 617 1013 617 q 729 567 774 617 q 685 418 685 517 l 685 38 q 674 11 685 22 q 647 0 663 0 l 596 0 q 569 11 581 0 q 558 38 558 22 l 558 408 q 394 617 558 617 q 275 567 319 617 q 231 418 231 517 l 231 38 q 219 11 231 22 q 193 0 208 0 l 142 0 q 115 11 126 0 q 104 38 104 22 l 104 685 q 115 711 104 700 q 142 722 126 722 l 193 722 q 219 711 208 722 q 231 685 231 700 l 231 642 z "},"n":{"ha":843,"x_min":104,"x_max":746,"o":"m 746 38 q 735 11 746 22 q 708 0 724 0 l 657 0 q 631 11 642 0 q 619 38 619 22 l 619 404 q 568 563 619 508 q 425 617 517 617 q 283 563 335 617 q 231 404 231 508 l 231 38 q 219 11 231 22 q 193 0 208 0 l 142 0 q 115 11 126 0 q 104 38 104 22 l 104 685 q 115 711 104 700 q 142 722 126 722 l 193 722 q 219 711 208 722 q 231 685 231 700 l 231 642 q 315 709 261 682 q 446 736 368 736 q 601 699 533 736 q 708 591 669 661 q 746 425 746 521 l 746 38 z "},"ń":{"ha":843,"x_min":104,"x_max":746,"o":"m 746 38 q 735 11 746 22 q 708 0 724 0 l 657 0 q 631 11 642 0 q 619 38 619 22 l 619 404 q 568 563 619 508 q 425 617 517 617 q 283 563 335 617 q 231 404 231 508 l 231 38 q 219 11 231 22 q 193 0 208 0 l 142 0 q 115 11 126 0 q 104 38 104 22 l 104 685 q 115 711 104 700 q 142 722 126 722 l 193 722 q 219 711 208 722 q 231 685 231 700 l 231 642 q 315 709 261 682 q 446 736 368 736 q 601 699 533 736 q 708 591 669 661 q 746 425 746 521 l 746 38 m 469 994 q 494 1016 485 1011 q 521 1021 504 1021 l 624 1021 q 643 1013 636 1021 q 650 993 650 1006 q 643 976 650 983 l 489 850 q 462 832 474 838 q 431 826 450 826 l 379 826 q 357 849 357 826 q 364 867 357 860 l 469 994 z "},"ŉ":{"ha":843,"x_min":104,"x_max":746,"o":"m 746 38 q 735 11 746 22 q 708 0 724 0 l 657 0 q 631 11 642 0 q 619 38 619 22 l 619 404 q 568 563 619 508 q 425 617 517 617 q 283 563 335 617 q 231 404 231 508 l 231 38 q 219 11 231 22 q 193 0 208 0 l 142 0 q 115 11 126 0 q 104 38 104 22 l 104 685 q 115 711 104 700 q 142 722 126 722 l 193 722 q 219 711 208 722 q 231 685 231 700 l 231 642 q 315 709 261 682 q 446 736 368 736 q 601 699 533 736 q 708 591 669 661 q 746 425 746 521 l 746 38 m 149 1050 q 167 1088 153 1072 q 208 1104 182 1104 l 281 1104 q 302 1095 293 1104 q 311 1074 311 1086 q 310 1064 311 1068 l 235 871 q 175 826 218 826 l 150 826 q 128 835 138 826 q 119 857 119 844 l 119 860 l 149 1050 z "},"ň":{"ha":843,"x_min":104,"x_max":746,"o":"m 746 38 q 735 11 746 22 q 708 0 724 0 l 657 0 q 631 11 642 0 q 619 38 619 22 l 619 404 q 568 563 619 508 q 425 617 517 617 q 283 563 335 617 q 231 404 231 508 l 231 38 q 219 11 231 22 q 193 0 208 0 l 142 0 q 115 11 126 0 q 104 38 104 22 l 104 685 q 115 711 104 700 q 142 722 126 722 l 193 722 q 219 711 208 722 q 231 685 231 700 l 231 642 q 315 709 261 682 q 446 736 368 736 q 601 699 533 736 q 708 591 669 661 q 746 425 746 521 l 746 38 m 411 826 q 385 832 396 826 q 360 853 374 838 l 232 981 q 225 999 225 988 q 247 1021 225 1021 l 276 1021 q 297 1017 289 1021 q 319 1006 306 1014 l 425 935 l 531 1006 q 553 1017 544 1014 q 574 1021 561 1021 l 603 1021 q 625 999 625 1021 q 618 981 625 988 l 490 853 q 465 832 476 838 q 439 826 454 826 l 411 826 z "},"ņ":{"ha":843,"x_min":104,"x_max":746,"o":"m 746 38 q 735 11 746 22 q 708 0 724 0 l 657 0 q 631 11 642 0 q 619 38 619 22 l 619 404 q 568 563 619 508 q 425 617 517 617 q 283 563 335 617 q 231 404 231 508 l 231 38 q 219 11 231 22 q 193 0 208 0 l 142 0 q 115 11 126 0 q 104 38 104 22 l 104 685 q 115 711 104 700 q 142 722 126 722 l 193 722 q 219 711 208 722 q 231 685 231 700 l 231 642 q 315 709 261 682 q 446 736 368 736 q 601 699 533 736 q 708 591 669 661 q 746 425 746 521 l 746 38 m 333 -124 q 352 -85 338 -101 q 393 -69 367 -69 l 465 -69 q 487 -78 478 -69 q 496 -100 496 -87 q 494 -110 496 -106 l 419 -303 q 360 -347 403 -347 l 335 -347 q 313 -338 322 -347 q 304 -317 304 -329 l 304 -314 l 333 -124 z "},"ŋ":{"ha":843,"x_min":104,"x_max":746,"o":"m 746 -69 q 690 -251 746 -189 q 517 -312 635 -312 l 490 -312 q 464 -301 475 -312 q 453 -275 453 -290 l 453 -231 q 464 -204 453 -215 q 490 -193 475 -193 l 503 -193 q 595 -161 571 -193 q 619 -69 619 -129 l 619 404 q 568 563 619 508 q 425 617 517 617 q 283 563 335 617 q 231 404 231 508 l 231 38 q 219 11 231 22 q 193 0 208 0 l 142 0 q 115 11 126 0 q 104 38 104 22 l 104 685 q 115 711 104 700 q 142 722 126 722 l 193 722 q 219 711 208 722 q 231 685 231 700 l 231 642 q 315 709 261 682 q 446 736 368 736 q 601 699 533 736 q 708 591 669 661 q 746 425 746 521 l 746 -69 z "},"ñ":{"ha":843,"x_min":104,"x_max":746,"o":"m 746 38 q 735 11 746 22 q 708 0 724 0 l 657 0 q 631 11 642 0 q 619 38 619 22 l 619 404 q 568 563 619 508 q 425 617 517 617 q 283 563 335 617 q 231 404 231 508 l 231 38 q 219 11 231 22 q 193 0 208 0 l 142 0 q 115 11 126 0 q 104 38 104 22 l 104 685 q 115 711 104 700 q 142 722 126 722 l 193 722 q 219 711 208 722 q 231 685 231 700 l 231 642 q 315 709 261 682 q 446 736 368 736 q 601 699 533 736 q 708 591 669 661 q 746 425 746 521 l 746 38 m 360 864 q 337 858 344 864 q 324 843 329 853 q 313 831 318 835 q 300 826 308 826 l 249 826 q 229 834 236 826 q 222 853 222 842 q 235 909 222 878 q 275 963 249 940 q 342 986 301 986 q 393 979 372 986 q 438 960 414 972 q 464 947 450 953 q 492 942 478 942 q 515 947 507 942 q 528 963 522 953 q 538 975 533 971 q 551 979 543 979 l 603 979 q 622 972 615 979 q 629 953 629 964 q 616 897 629 928 q 576 842 603 865 q 510 819 550 819 q 459 826 479 819 q 411 847 439 833 q 385 859 399 854 q 360 864 372 864 z "},"o":{"ha":801,"x_min":69,"x_max":732,"o":"m 729 426 q 732 360 732 396 q 729 296 732 326 q 631 70 717 154 q 400 -14 546 -14 q 169 70 254 -14 q 71 296 83 154 q 69 360 69 311 q 71 426 69 411 q 168 652 82 568 q 400 736 254 736 q 632 652 546 736 q 729 426 718 568 m 603 419 q 544 563 594 508 q 400 617 493 617 q 256 563 307 617 q 197 419 206 508 q 196 360 196 403 q 197 303 196 318 q 256 160 206 214 q 400 106 307 106 q 544 160 493 106 q 603 303 594 214 q 606 360 606 333 q 603 419 606 386 z "},"ó":{"ha":801,"x_min":69,"x_max":732,"o":"m 729 426 q 732 360 732 396 q 729 296 732 326 q 631 70 717 154 q 400 -14 546 -14 q 169 70 254 -14 q 71 296 83 154 q 69 360 69 311 q 71 426 69 411 q 168 652 82 568 q 400 736 254 736 q 632 652 546 736 q 729 426 718 568 m 603 419 q 544 563 594 508 q 400 617 493 617 q 256 563 307 617 q 197 419 206 508 q 196 360 196 403 q 197 303 196 318 q 256 160 206 214 q 400 106 307 106 q 544 160 493 106 q 603 303 594 214 q 606 360 606 333 q 603 419 606 386 m 442 994 q 467 1016 457 1011 q 493 1021 476 1021 l 596 1021 q 615 1013 608 1021 q 622 993 622 1006 q 615 976 622 983 l 461 850 q 434 832 446 838 q 403 826 422 826 l 351 826 q 329 849 329 826 q 336 867 329 860 l 442 994 z "},"ŏ":{"ha":801,"x_min":69,"x_max":732,"o":"m 729 426 q 732 360 732 396 q 729 296 732 326 q 631 70 717 154 q 400 -14 546 -14 q 169 70 254 -14 q 71 296 83 154 q 69 360 69 311 q 71 426 69 411 q 168 652 82 568 q 400 736 254 736 q 632 652 546 736 q 729 426 718 568 m 603 419 q 544 563 594 508 q 400 617 493 617 q 256 563 307 617 q 197 419 206 508 q 196 360 196 403 q 197 303 196 318 q 256 160 206 214 q 400 106 307 106 q 544 160 493 106 q 603 303 594 214 q 606 360 606 333 q 603 419 606 386 m 228 994 q 235 1013 228 1006 q 254 1021 242 1021 l 299 1021 q 318 1013 311 1021 q 325 994 325 1006 q 345 935 325 958 q 400 911 365 911 q 455 935 435 911 q 475 994 475 958 q 482 1013 475 1006 q 501 1021 489 1021 l 546 1021 q 565 1013 558 1021 q 572 994 572 1006 q 528 872 572 925 q 400 819 483 819 q 272 872 317 819 q 228 994 228 925 z "},"ô":{"ha":801,"x_min":69,"x_max":732,"o":"m 729 426 q 732 360 732 396 q 729 296 732 326 q 631 70 717 154 q 400 -14 546 -14 q 169 70 254 -14 q 71 296 83 154 q 69 360 69 311 q 71 426 69 411 q 168 652 82 568 q 400 736 254 736 q 632 652 546 736 q 729 426 718 568 m 603 419 q 544 563 594 508 q 400 617 493 617 q 256 563 307 617 q 197 419 206 508 q 196 360 196 403 q 197 303 196 318 q 256 160 206 214 q 400 106 307 106 q 544 160 493 106 q 603 303 594 214 q 606 360 606 333 q 603 419 606 386 m 414 1021 q 440 1015 429 1021 q 465 994 451 1010 l 593 867 q 600 849 600 860 q 578 826 600 826 l 549 826 q 528 830 536 826 q 506 842 519 833 l 400 913 l 294 842 q 272 830 281 833 q 251 826 264 826 l 222 826 q 200 849 200 826 q 207 867 200 860 l 335 994 q 360 1015 349 1010 q 386 1021 371 1021 l 414 1021 z "},"ö":{"ha":801,"x_min":69,"x_max":732,"o":"m 729 426 q 732 360 732 396 q 729 296 732 326 q 631 70 717 154 q 400 -14 546 -14 q 169 70 254 -14 q 71 296 83 154 q 69 360 69 311 q 71 426 69 411 q 168 652 82 568 q 400 736 254 736 q 632 652 546 736 q 729 426 718 568 m 603 419 q 544 563 594 508 q 400 617 493 617 q 256 563 307 617 q 197 419 206 508 q 196 360 196 403 q 197 303 196 318 q 256 160 206 214 q 400 106 307 106 q 544 160 493 106 q 603 303 594 214 q 606 360 606 333 q 603 419 606 386 m 351 871 q 340 844 351 856 q 314 833 329 833 l 235 833 q 208 844 219 833 q 197 871 197 856 l 197 950 q 208 976 197 965 q 235 988 219 988 l 314 988 q 340 976 329 988 q 351 950 351 965 l 351 871 m 603 871 q 592 844 603 856 q 565 833 581 833 l 486 833 q 460 844 471 833 q 449 871 449 856 l 449 950 q 460 976 449 965 q 486 988 471 988 l 565 988 q 592 976 581 988 q 603 950 603 965 l 603 871 z "},"ò":{"ha":801,"x_min":69,"x_max":732,"o":"m 729 426 q 732 360 732 396 q 729 296 732 326 q 631 70 717 154 q 400 -14 546 -14 q 169 70 254 -14 q 71 296 83 154 q 69 360 69 311 q 71 426 69 411 q 168 652 82 568 q 400 736 254 736 q 632 652 546 736 q 729 426 718 568 m 603 419 q 544 563 594 508 q 400 617 493 617 q 256 563 307 617 q 197 419 206 508 q 196 360 196 403 q 197 303 196 318 q 256 160 206 214 q 400 106 307 106 q 544 160 493 106 q 603 303 594 214 q 606 360 606 333 q 603 419 606 386 m 464 867 q 471 849 471 860 q 449 826 471 826 l 397 826 q 366 832 378 826 q 339 850 354 838 l 185 976 q 178 993 178 983 q 185 1013 178 1006 q 204 1021 192 1021 l 307 1021 q 333 1016 324 1021 q 358 994 343 1011 l 464 867 z "},"ő":{"ha":801,"x_min":69,"x_max":732,"o":"m 729 426 q 732 360 732 396 q 729 296 732 326 q 631 70 717 154 q 400 -14 546 -14 q 169 70 254 -14 q 71 296 83 154 q 69 360 69 311 q 71 426 69 411 q 168 652 82 568 q 400 736 254 736 q 632 652 546 736 q 729 426 718 568 m 603 419 q 544 563 594 508 q 400 617 493 617 q 256 563 307 617 q 197 419 206 508 q 196 360 196 403 q 197 303 196 318 q 256 160 206 214 q 400 106 307 106 q 544 160 493 106 q 603 303 594 214 q 606 360 606 333 q 603 419 606 386 m 275 994 q 294 1015 282 1008 q 326 1021 306 1021 l 422 1021 q 442 1014 435 1021 q 450 994 450 1007 q 442 976 450 985 l 321 846 q 274 826 304 826 l 235 826 q 213 849 213 826 q 219 869 213 856 l 275 994 m 521 994 q 540 1015 528 1008 q 572 1021 551 1021 l 668 1021 q 688 1014 681 1021 q 696 994 696 1007 q 688 976 696 985 l 567 846 q 519 826 550 826 l 481 826 q 458 849 458 826 q 465 869 458 856 l 521 994 z "},"ō":{"ha":801,"x_min":69,"x_max":732,"o":"m 729 426 q 732 360 732 396 q 729 296 732 326 q 631 70 717 154 q 400 -14 546 -14 q 169 70 254 -14 q 71 296 83 154 q 69 360 69 311 q 71 426 69 411 q 168 652 82 568 q 400 736 254 736 q 632 652 546 736 q 729 426 718 568 m 603 419 q 544 563 594 508 q 400 617 493 617 q 256 563 307 617 q 197 419 206 508 q 196 360 196 403 q 197 303 196 318 q 256 160 206 214 q 400 106 307 106 q 544 160 493 106 q 603 303 594 214 q 606 360 606 333 q 603 419 606 386 m 249 840 q 222 851 233 840 q 211 878 211 863 l 211 922 q 222 949 211 938 q 249 960 233 960 l 553 960 q 579 949 568 960 q 590 922 590 938 l 590 878 q 579 851 590 863 q 553 840 568 840 l 249 840 z "},"ø":{"ha":843,"x_min":17,"x_max":826,"o":"m 782 560 q 797 564 793 564 q 818 556 810 564 q 826 535 826 547 l 826 496 q 819 467 826 478 q 796 450 813 457 l 750 432 l 751 426 q 754 360 754 396 q 751 296 754 326 q 653 70 739 154 q 422 -14 568 -14 q 230 38 308 -14 q 117 185 151 90 l 61 163 q 46 158 50 158 q 25 167 33 158 q 17 188 17 175 l 17 226 q 24 256 17 246 q 47 272 31 267 l 93 290 l 93 296 q 92 360 92 311 q 93 426 92 411 q 190 652 104 568 q 422 736 276 736 q 613 683 535 736 q 726 538 692 631 l 782 560 m 610 492 q 540 583 588 550 q 422 617 493 617 q 278 563 329 617 q 219 419 228 508 q 217 339 217 397 l 610 492 m 235 231 q 303 139 256 172 q 422 106 350 106 q 566 160 515 106 q 625 303 617 214 q 626 383 628 349 l 235 231 z "},"ǿ":{"ha":843,"x_min":17,"x_max":826,"o":"m 467 994 q 492 1016 482 1011 q 518 1021 501 1021 l 621 1021 q 640 1013 633 1021 q 647 993 647 1006 q 640 976 647 983 l 486 850 q 459 832 471 838 q 428 826 447 826 l 376 826 q 354 849 354 826 q 361 867 354 860 l 467 994 m 782 560 q 797 564 793 564 q 818 556 810 564 q 826 535 826 547 l 826 496 q 819 467 826 478 q 796 450 813 457 l 750 432 l 751 426 q 754 360 754 396 q 751 296 754 326 q 653 70 739 154 q 422 -14 568 -14 q 230 38 308 -14 q 117 185 151 90 l 61 163 q 46 158 50 158 q 25 167 33 158 q 17 188 17 175 l 17 226 q 24 256 17 246 q 47 272 31 267 l 93 290 l 93 296 q 92 360 92 311 q 93 426 92 411 q 190 652 104 568 q 422 736 276 736 q 613 683 535 736 q 726 538 692 631 l 782 560 m 610 492 q 540 583 588 550 q 422 617 493 617 q 278 563 329 617 q 219 419 228 508 q 217 339 217 397 l 610 492 m 235 231 q 303 139 256 172 q 422 106 350 106 q 566 160 515 106 q 625 303 617 214 q 626 383 628 349 l 235 231 z "},"õ":{"ha":801,"x_min":69,"x_max":732,"o":"m 729 426 q 732 360 732 396 q 729 296 732 326 q 631 70 717 154 q 400 -14 546 -14 q 169 70 254 -14 q 71 296 83 154 q 69 360 69 311 q 71 426 69 411 q 168 652 82 568 q 400 736 254 736 q 632 652 546 736 q 729 426 718 568 m 603 419 q 544 563 594 508 q 400 617 493 617 q 256 563 307 617 q 197 419 206 508 q 196 360 196 403 q 197 303 196 318 q 256 160 206 214 q 400 106 307 106 q 544 160 493 106 q 603 303 594 214 q 606 360 606 333 q 603 419 606 386 m 335 864 q 312 858 319 864 q 299 843 304 853 q 288 831 293 835 q 275 826 283 826 l 224 826 q 204 834 211 826 q 197 853 197 842 q 210 909 197 878 q 250 963 224 940 q 317 986 276 986 q 368 979 347 986 q 413 960 389 972 q 439 947 425 953 q 467 942 453 942 q 490 947 482 942 q 503 963 497 953 q 513 975 508 971 q 526 979 518 979 l 578 979 q 597 972 590 979 q 604 953 604 964 q 591 897 604 928 q 551 842 578 865 q 485 819 525 819 q 434 826 454 819 q 386 847 414 833 q 360 859 374 854 q 335 864 347 864 z "},"œ":{"ha":1313,"x_min":69,"x_max":1247,"o":"m 669 606 q 778 701 713 667 q 926 736 843 736 q 1161 642 1075 736 q 1247 385 1247 547 l 1247 347 q 1236 321 1247 332 q 1210 310 1225 310 l 732 310 l 732 301 q 788 158 735 210 q 926 106 842 106 q 1034 124 996 106 q 1103 175 1072 142 q 1123 190 1114 186 q 1147 194 1132 194 l 1189 194 q 1217 183 1206 194 q 1226 157 1228 172 q 1185 80 1221 119 q 1084 13 1150 40 q 926 -14 1018 -14 q 778 21 844 -14 q 671 118 713 56 q 560 21 628 56 q 400 -14 492 -14 q 169 70 254 -14 q 71 296 83 154 q 69 360 69 311 q 71 426 69 411 q 168 652 82 568 q 400 736 254 736 q 559 702 490 736 q 669 606 628 668 m 603 419 q 544 563 594 508 q 400 617 493 617 q 256 563 307 617 q 197 419 206 508 q 196 360 196 403 q 197 303 196 318 q 256 160 206 214 q 400 106 307 106 q 544 160 493 106 q 603 303 594 214 q 606 360 606 333 q 603 419 606 386 m 1122 426 l 1122 431 q 1069 566 1122 515 q 926 617 1015 617 q 790 565 846 617 q 732 431 733 514 l 732 426 l 1122 426 z "},"p":{"ha":831,"x_min":104,"x_max":763,"o":"m 231 -226 q 219 -253 231 -242 q 193 -264 208 -264 l 142 -264 q 115 -253 126 -264 q 104 -226 104 -242 l 104 685 q 115 711 104 700 q 142 722 126 722 l 193 722 q 219 711 208 722 q 231 685 231 700 l 231 642 q 446 736 301 736 q 602 696 532 736 q 715 581 672 656 q 761 406 757 506 q 763 361 763 392 q 761 315 763 329 q 715 141 757 215 q 603 26 672 67 q 446 -14 533 -14 q 315 13 368 -14 q 231 81 261 40 l 231 -226 m 231 311 q 289 160 235 214 q 432 106 343 106 q 576 164 522 106 q 635 322 629 222 q 636 361 636 336 q 635 400 636 386 q 576 558 629 500 q 432 617 522 617 q 290 563 346 617 q 231 421 235 510 l 229 367 l 231 311 z "},"þ":{"ha":832,"x_min":106,"x_max":764,"o":"m 232 -226 q 221 -253 232 -242 q 194 -264 210 -264 l 143 -264 q 117 -253 128 -264 q 106 -226 106 -242 l 106 949 q 117 975 106 964 q 143 986 128 986 l 194 986 q 221 975 210 986 q 232 949 232 964 l 232 642 q 447 736 303 736 q 603 696 533 736 q 716 581 674 656 q 763 406 758 506 q 764 361 764 392 q 763 315 764 329 q 716 141 758 215 q 604 26 674 67 q 447 -14 535 -14 q 316 13 369 -14 q 232 81 263 40 l 232 -226 m 232 311 q 290 160 236 214 q 433 106 344 106 q 577 164 524 106 q 636 322 631 222 q 638 361 638 336 q 636 400 638 386 q 577 558 631 500 q 433 617 524 617 q 292 563 347 617 q 232 421 236 510 l 231 367 l 232 311 z "},"q":{"ha":831,"x_min":68,"x_max":726,"o":"m 68 361 l 69 406 q 116 581 74 506 q 228 696 158 656 q 385 736 299 736 q 600 642 529 736 l 600 685 q 611 711 600 700 q 638 722 622 722 l 689 722 q 715 711 704 722 q 726 685 726 700 l 726 -226 q 715 -253 726 -242 q 689 -264 704 -264 l 638 -264 q 611 -253 622 -264 q 600 -226 600 -242 l 600 81 q 516 13 569 40 q 385 -14 463 -14 q 228 26 297 -14 q 116 141 158 67 q 69 315 74 215 l 68 361 m 399 617 q 255 558 308 617 q 196 400 201 500 l 194 361 l 196 322 q 255 164 201 222 q 399 106 308 106 q 542 160 488 106 q 600 311 596 214 q 601 367 601 325 q 600 421 601 407 q 540 563 596 510 q 399 617 485 617 z "},"r":{"ha":525,"x_min":104,"x_max":508,"o":"m 471 722 q 497 711 486 722 q 508 685 508 700 l 508 640 q 497 614 508 625 q 471 603 486 603 l 390 603 q 272 562 313 603 q 231 443 231 521 l 231 38 q 219 11 231 22 q 193 0 208 0 l 142 0 q 115 11 126 0 q 104 38 104 22 l 104 685 q 115 711 104 700 q 142 722 126 722 l 193 722 q 219 711 208 722 q 231 685 231 700 l 231 642 q 297 703 258 683 q 399 722 336 722 l 471 722 z "},"ŕ":{"ha":525,"x_min":104,"x_max":511,"o":"m 471 722 q 497 711 486 722 q 508 685 508 700 l 508 640 q 497 614 508 625 q 471 603 486 603 l 390 603 q 272 562 313 603 q 231 443 231 521 l 231 38 q 219 11 231 22 q 193 0 208 0 l 142 0 q 115 11 126 0 q 104 38 104 22 l 104 685 q 115 711 104 700 q 142 722 126 722 l 193 722 q 219 711 208 722 q 231 685 231 700 l 231 642 q 297 703 258 683 q 399 722 336 722 l 471 722 m 331 994 q 356 1016 346 1011 q 382 1021 365 1021 l 485 1021 q 504 1013 497 1021 q 511 993 511 1006 q 504 976 511 983 l 350 850 q 323 832 335 838 q 292 826 311 826 l 240 826 q 218 849 218 826 q 225 867 218 860 l 331 994 z "},"ř":{"ha":525,"x_min":82,"x_max":508,"o":"m 471 722 q 497 711 486 722 q 508 685 508 700 l 508 640 q 497 614 508 625 q 471 603 486 603 l 390 603 q 272 562 313 603 q 231 443 231 521 l 231 38 q 219 11 231 22 q 193 0 208 0 l 142 0 q 115 11 126 0 q 104 38 104 22 l 104 685 q 115 711 104 700 q 142 722 126 722 l 193 722 q 219 711 208 722 q 231 685 231 700 l 231 642 q 297 703 258 683 q 399 722 336 722 l 471 722 m 268 826 q 242 832 253 826 q 217 853 231 838 l 89 981 q 82 999 82 988 q 104 1021 82 1021 l 133 1021 q 154 1017 146 1021 q 176 1006 163 1014 l 282 935 l 388 1006 q 410 1017 401 1014 q 431 1021 418 1021 l 460 1021 q 482 999 482 1021 q 475 981 482 988 l 347 853 q 322 832 333 838 q 296 826 311 826 l 268 826 z "},"ŗ":{"ha":525,"x_min":54,"x_max":508,"o":"m 471 722 q 497 711 486 722 q 508 685 508 700 l 508 640 q 497 614 508 625 q 471 603 486 603 l 390 603 q 272 562 313 603 q 231 443 231 521 l 231 38 q 219 11 231 22 q 193 0 208 0 l 142 0 q 115 11 126 0 q 104 38 104 22 l 104 685 q 115 711 104 700 q 142 722 126 722 l 193 722 q 219 711 208 722 q 231 685 231 700 l 231 642 q 297 703 258 683 q 399 722 336 722 l 471 722 m 83 -124 q 102 -85 88 -101 q 143 -69 117 -69 l 215 -69 q 237 -78 228 -69 q 246 -100 246 -87 q 244 -110 246 -106 l 169 -303 q 110 -347 153 -347 l 85 -347 q 63 -338 72 -347 q 54 -317 54 -329 l 54 -314 l 83 -124 z "},"s":{"ha":703,"x_min":61,"x_max":642,"o":"m 278 321 q 75 528 75 364 q 106 632 75 585 q 197 708 136 679 q 344 736 257 736 q 493 711 431 736 q 588 649 556 686 q 621 576 621 611 q 610 552 621 563 q 583 542 599 542 l 538 542 q 496 561 511 542 q 344 617 453 617 q 241 593 281 617 q 201 528 201 569 q 221 475 201 493 q 279 446 240 457 q 417 413 318 435 q 590 332 539 386 q 642 200 642 278 q 606 94 642 143 q 505 16 571 46 q 351 -14 439 -14 q 199 13 265 -14 q 97 79 133 40 q 61 153 61 118 q 72 177 61 167 q 99 188 83 188 l 149 188 q 171 185 161 188 q 189 169 181 182 q 351 106 235 106 q 466 133 417 106 q 515 200 515 160 q 491 253 515 233 q 421 287 467 274 q 278 321 375 300 z "},"ś":{"ha":703,"x_min":61,"x_max":642,"o":"m 278 321 q 75 528 75 364 q 106 632 75 585 q 197 708 136 679 q 344 736 257 736 q 493 711 431 736 q 588 649 556 686 q 621 576 621 611 q 610 552 621 563 q 583 542 599 542 l 538 542 q 496 561 511 542 q 344 617 453 617 q 241 593 281 617 q 201 528 201 569 q 221 475 201 493 q 279 446 240 457 q 417 413 318 435 q 590 332 539 386 q 642 200 642 278 q 606 94 642 143 q 505 16 571 46 q 351 -14 439 -14 q 199 13 265 -14 q 97 79 133 40 q 61 153 61 118 q 72 177 61 167 q 99 188 83 188 l 149 188 q 171 185 161 188 q 189 169 181 182 q 351 106 235 106 q 466 133 417 106 q 515 200 515 160 q 491 253 515 233 q 421 287 467 274 q 278 321 375 300 m 403 994 q 428 1016 418 1011 q 454 1021 438 1021 l 557 1021 q 576 1013 569 1021 q 583 993 583 1006 q 576 976 583 983 l 422 850 q 395 832 407 838 q 364 826 383 826 l 313 826 q 290 849 290 826 q 297 867 290 860 l 403 994 z "},"š":{"ha":703,"x_min":61,"x_max":642,"o":"m 278 321 q 75 528 75 364 q 106 632 75 585 q 197 708 136 679 q 344 736 257 736 q 493 711 431 736 q 588 649 556 686 q 621 576 621 611 q 610 552 621 563 q 583 542 599 542 l 538 542 q 496 561 511 542 q 344 617 453 617 q 241 593 281 617 q 201 528 201 569 q 221 475 201 493 q 279 446 240 457 q 417 413 318 435 q 590 332 539 386 q 642 200 642 278 q 606 94 642 143 q 505 16 571 46 q 351 -14 439 -14 q 199 13 265 -14 q 97 79 133 40 q 61 153 61 118 q 72 177 61 167 q 99 188 83 188 l 149 188 q 171 185 161 188 q 189 169 181 182 q 351 106 235 106 q 466 133 417 106 q 515 200 515 160 q 491 253 515 233 q 421 287 467 274 q 278 321 375 300 m 336 826 q 310 832 321 826 q 285 853 299 838 l 157 981 q 150 999 150 988 q 172 1021 150 1021 l 201 1021 q 222 1017 214 1021 q 244 1006 231 1014 l 350 935 l 456 1006 q 478 1017 469 1014 q 499 1021 486 1021 l 528 1021 q 550 999 550 1021 q 543 981 550 988 l 415 853 q 390 832 401 838 q 364 826 379 826 l 336 826 z "},"ş":{"ha":701,"x_min":61,"x_max":642,"o":"m 278 321 q 75 528 75 364 q 106 632 75 585 q 197 708 136 679 q 344 736 257 736 q 493 711 431 736 q 588 649 556 686 q 621 576 621 611 q 610 552 621 563 q 583 542 599 542 l 538 542 q 496 561 511 542 q 344 617 453 617 q 241 593 281 617 q 201 528 201 569 q 221 475 201 493 q 279 446 240 457 q 417 413 318 435 q 590 332 539 386 q 642 200 642 278 q 608 97 642 146 q 510 18 574 49 q 363 -14 446 -12 l 333 -78 q 382 -67 351 -67 q 458 -100 428 -67 q 488 -183 488 -133 q 453 -272 488 -237 q 350 -306 419 -306 q 274 -286 310 -306 q 238 -247 238 -267 q 243 -235 238 -240 l 263 -217 q 281 -208 274 -208 q 307 -222 288 -208 q 350 -235 326 -235 q 410 -186 410 -235 q 350 -137 410 -137 q 315 -144 332 -137 q 293 -150 299 -150 q 275 -140 285 -150 l 251 -115 q 246 -101 246 -110 q 254 -74 246 -90 l 282 -8 q 166 28 217 1 q 88 88 115 54 q 61 153 61 122 q 72 177 61 167 q 99 188 83 188 l 149 188 q 171 185 161 188 q 189 169 181 182 q 351 106 235 106 q 466 133 417 106 q 515 200 515 160 q 491 253 515 233 q 421 287 467 274 q 278 321 375 300 z "},"ŝ":{"ha":703,"x_min":61,"x_max":642,"o":"m 278 321 q 75 528 75 364 q 106 632 75 585 q 197 708 136 679 q 344 736 257 736 q 493 711 431 736 q 588 649 556 686 q 621 576 621 611 q 610 552 621 563 q 583 542 599 542 l 538 542 q 496 561 511 542 q 344 617 453 617 q 241 593 281 617 q 201 528 201 569 q 221 475 201 493 q 279 446 240 457 q 417 413 318 435 q 590 332 539 386 q 642 200 642 278 q 606 94 642 143 q 505 16 571 46 q 351 -14 439 -14 q 199 13 265 -14 q 97 79 133 40 q 61 153 61 118 q 72 177 61 167 q 99 188 83 188 l 149 188 q 171 185 161 188 q 189 169 181 182 q 351 106 235 106 q 466 133 417 106 q 515 200 515 160 q 491 253 515 233 q 421 287 467 274 q 278 321 375 300 m 364 1021 q 390 1015 379 1021 q 415 994 401 1010 l 543 867 q 550 849 550 860 q 528 826 550 826 l 499 826 q 478 830 486 826 q 456 842 469 833 l 350 913 l 244 842 q 222 830 231 833 q 201 826 214 826 l 172 826 q 150 849 150 826 q 157 867 150 860 l 285 994 q 310 1015 299 1010 q 336 1021 321 1021 l 364 1021 z "},"ș":{"ha":703,"x_min":61,"x_max":642,"o":"m 278 321 q 75 528 75 364 q 106 632 75 585 q 197 708 136 679 q 344 736 257 736 q 493 711 431 736 q 588 649 556 686 q 621 576 621 611 q 610 552 621 563 q 583 542 599 542 l 538 542 q 496 561 511 542 q 344 617 453 617 q 241 593 281 617 q 201 528 201 569 q 221 475 201 493 q 279 446 240 457 q 417 413 318 435 q 590 332 539 386 q 642 200 642 278 q 606 94 642 143 q 505 16 571 46 q 351 -14 439 -14 q 199 13 265 -14 q 97 79 133 40 q 61 153 61 118 q 72 177 61 167 q 99 188 83 188 l 149 188 q 171 185 161 188 q 189 169 181 182 q 351 106 235 106 q 466 133 417 106 q 515 200 515 160 q 491 253 515 233 q 421 287 467 274 q 278 321 375 300 m 257 -124 q 276 -85 261 -101 q 317 -69 290 -69 l 389 -69 q 410 -78 401 -69 q 419 -100 419 -87 q 418 -110 419 -106 l 343 -303 q 283 -347 326 -347 l 258 -347 q 237 -338 246 -347 q 228 -317 228 -329 l 228 -314 l 257 -124 z "},"ß":{"ha":814,"x_min":104,"x_max":746,"o":"m 421 119 q 619 290 619 119 q 573 415 619 368 q 421 461 526 461 l 344 461 q 322 469 331 461 q 314 492 314 478 l 314 550 q 322 572 314 564 q 344 581 331 581 l 414 581 q 542 620 501 581 q 583 722 583 660 q 536 826 583 786 q 407 867 489 867 q 276 813 322 867 q 231 654 231 758 l 231 38 q 219 11 231 22 q 193 0 208 0 l 142 0 q 115 11 126 0 q 104 38 104 22 l 104 668 q 142 833 104 760 q 249 946 181 906 q 407 986 318 986 q 563 950 494 986 q 671 855 632 914 q 710 729 710 796 q 621 529 710 604 q 715 429 685 486 q 746 297 746 372 q 671 80 746 160 q 426 0 596 0 l 351 0 q 325 11 336 0 q 314 38 314 22 l 314 82 q 325 108 314 97 q 351 119 336 119 l 421 119 z "},"ſ":{"ha":411,"x_min":26,"x_max":535,"o":"m 307 38 q 296 11 307 22 q 269 0 285 0 l 218 0 q 192 11 203 0 q 181 38 181 22 l 181 603 l 64 603 q 38 614 49 603 q 26 640 26 625 l 26 685 q 38 711 26 700 q 64 722 49 722 l 181 722 l 181 792 q 236 969 181 911 q 410 1028 292 1028 l 497 1028 q 524 1017 513 1028 q 535 990 535 1006 l 535 946 q 524 919 535 931 q 497 908 513 908 l 424 908 q 331 876 356 908 q 307 785 307 844 l 307 38 z "},"t":{"ha":556,"x_min":26,"x_max":521,"o":"m 293 243 q 317 151 293 183 q 410 119 342 119 l 483 119 q 510 108 499 119 q 521 82 521 97 l 521 38 q 510 11 521 22 q 483 0 499 0 l 396 0 q 222 62 278 0 q 167 243 167 124 l 167 603 l 64 603 q 38 614 49 603 q 26 640 26 625 l 26 685 q 38 711 26 700 q 64 722 49 722 l 167 722 l 167 949 q 178 975 167 964 q 204 986 189 986 l 256 986 q 282 975 271 986 q 293 949 293 964 l 293 722 l 469 722 q 496 711 485 722 q 507 685 507 700 l 507 640 q 496 614 507 625 q 469 603 485 603 l 293 603 l 293 243 z "},"ŧ":{"ha":564,"x_min":32,"x_max":526,"o":"m 475 519 q 501 508 490 519 q 513 482 513 497 l 513 438 q 501 411 513 422 q 475 400 490 400 l 299 400 l 299 243 q 323 151 299 183 q 415 119 347 119 l 489 119 q 515 108 504 119 q 526 82 526 97 l 526 38 q 515 11 526 22 q 489 0 504 0 l 401 0 q 228 62 283 0 q 172 243 172 124 l 172 400 l 69 400 q 43 411 54 400 q 32 438 32 422 l 32 482 q 43 508 32 497 q 69 519 54 519 l 172 519 l 172 603 l 69 603 q 43 614 54 603 q 32 640 32 625 l 32 685 q 43 711 32 700 q 69 722 54 722 l 172 722 l 172 949 q 183 975 172 964 q 210 986 194 986 l 261 986 q 288 975 276 986 q 299 949 299 964 l 299 722 l 475 722 q 501 711 490 722 q 513 685 513 700 l 513 640 q 501 614 513 625 q 475 603 490 603 l 299 603 l 299 519 l 475 519 z "},"ť":{"ha":600,"x_min":26,"x_max":726,"o":"m 293 243 q 317 151 293 183 q 410 119 342 119 l 483 119 q 510 108 499 119 q 521 82 521 97 l 521 38 q 510 11 521 22 q 483 0 499 0 l 396 0 q 222 62 278 0 q 167 243 167 124 l 167 603 l 64 603 q 38 614 49 603 q 26 640 26 625 l 26 685 q 38 711 26 700 q 64 722 49 722 l 167 722 l 167 949 q 178 975 167 964 q 204 986 189 986 l 256 986 q 282 975 271 986 q 293 949 293 964 l 293 722 l 469 722 q 496 711 485 722 q 507 685 507 700 l 507 640 q 496 614 507 625 q 469 603 485 603 l 293 603 l 293 243 m 564 932 q 583 970 568 954 q 624 986 597 986 l 696 986 q 717 977 708 986 q 726 956 726 968 q 725 946 726 950 l 650 753 q 590 708 633 708 l 565 708 q 544 717 553 708 q 535 739 535 726 l 535 742 l 564 932 z "},"ț":{"ha":556,"x_min":26,"x_max":521,"o":"m 293 243 q 317 151 293 183 q 410 119 342 119 l 483 119 q 510 108 499 119 q 521 82 521 97 l 521 38 q 510 11 521 22 q 483 0 499 0 l 396 0 q 222 62 278 0 q 167 243 167 124 l 167 603 l 64 603 q 38 614 49 603 q 26 640 26 625 l 26 685 q 38 711 26 700 q 64 722 49 722 l 167 722 l 167 949 q 178 975 167 964 q 204 986 189 986 l 256 986 q 282 975 271 986 q 293 949 293 964 l 293 722 l 469 722 q 496 711 485 722 q 507 685 507 700 l 507 640 q 496 614 507 625 q 469 603 485 603 l 293 603 l 293 243 m 168 -124 q 187 -85 172 -101 q 228 -69 201 -69 l 300 -69 q 322 -78 313 -69 q 331 -100 331 -87 q 329 -110 331 -106 l 254 -303 q 194 -347 238 -347 l 169 -347 q 148 -338 157 -347 q 139 -317 139 -329 l 139 -314 l 168 -124 z "},"u":{"ha":829,"x_min":97,"x_max":725,"o":"m 97 685 q 108 711 97 700 q 135 722 119 722 l 186 722 q 213 711 201 722 q 224 685 224 700 l 224 318 q 272 159 224 213 q 411 106 319 106 q 549 160 500 106 q 599 318 599 214 l 599 685 q 610 711 599 700 q 636 722 621 722 l 688 722 q 714 711 703 722 q 725 685 725 700 l 725 38 q 714 11 725 22 q 688 0 703 0 l 636 0 q 610 11 621 0 q 599 38 599 22 l 599 81 q 390 -14 526 -14 q 177 69 257 -14 q 97 297 97 153 l 97 685 z "},"ú":{"ha":829,"x_min":97,"x_max":725,"o":"m 97 685 q 108 711 97 700 q 135 722 119 722 l 186 722 q 213 711 201 722 q 224 685 224 700 l 224 318 q 272 159 224 213 q 411 106 319 106 q 549 160 500 106 q 599 318 599 214 l 599 685 q 610 711 599 700 q 636 722 621 722 l 688 722 q 714 711 703 722 q 725 685 725 700 l 725 38 q 714 11 725 22 q 688 0 703 0 l 636 0 q 610 11 621 0 q 599 38 599 22 l 599 81 q 390 -14 526 -14 q 177 69 257 -14 q 97 297 97 153 l 97 685 m 447 994 q 472 1016 463 1011 q 499 1021 482 1021 l 601 1021 q 621 1013 614 1021 q 628 993 628 1006 q 621 976 628 983 l 467 850 q 440 832 451 838 q 408 826 428 826 l 357 826 q 335 849 335 826 q 342 867 335 860 l 447 994 z "},"ŭ":{"ha":829,"x_min":97,"x_max":725,"o":"m 97 685 q 108 711 97 700 q 135 722 119 722 l 186 722 q 213 711 201 722 q 224 685 224 700 l 224 318 q 272 159 224 213 q 411 106 319 106 q 549 160 500 106 q 599 318 599 214 l 599 685 q 610 711 599 700 q 636 722 621 722 l 688 722 q 714 711 703 722 q 725 685 725 700 l 725 38 q 714 11 725 22 q 688 0 703 0 l 636 0 q 610 11 621 0 q 599 38 599 22 l 599 81 q 390 -14 526 -14 q 177 69 257 -14 q 97 297 97 153 l 97 685 m 239 994 q 246 1013 239 1006 q 265 1021 253 1021 l 310 1021 q 329 1013 322 1021 q 336 994 336 1006 q 356 935 336 958 q 411 911 376 911 q 466 935 446 911 q 486 994 486 958 q 493 1013 486 1006 q 513 1021 500 1021 l 557 1021 q 576 1013 569 1021 q 583 994 583 1006 q 539 872 583 925 q 411 819 494 819 q 283 872 328 819 q 239 994 239 925 z "},"û":{"ha":829,"x_min":97,"x_max":725,"o":"m 97 685 q 108 711 97 700 q 135 722 119 722 l 186 722 q 213 711 201 722 q 224 685 224 700 l 224 318 q 272 159 224 213 q 411 106 319 106 q 549 160 500 106 q 599 318 599 214 l 599 685 q 610 711 599 700 q 636 722 621 722 l 688 722 q 714 711 703 722 q 725 685 725 700 l 725 38 q 714 11 725 22 q 688 0 703 0 l 636 0 q 610 11 621 0 q 599 38 599 22 l 599 81 q 390 -14 526 -14 q 177 69 257 -14 q 97 297 97 153 l 97 685 m 425 1021 q 451 1015 440 1021 q 476 994 463 1010 l 604 867 q 611 849 611 860 q 589 826 611 826 l 560 826 q 539 830 547 826 q 517 842 531 833 l 411 913 l 306 842 q 283 830 292 833 q 263 826 275 826 l 233 826 q 211 849 211 826 q 218 867 211 860 l 346 994 q 371 1015 360 1010 q 397 1021 382 1021 l 425 1021 z "},"ü":{"ha":829,"x_min":97,"x_max":725,"o":"m 97 685 q 108 711 97 700 q 135 722 119 722 l 186 722 q 213 711 201 722 q 224 685 224 700 l 224 318 q 272 159 224 213 q 411 106 319 106 q 549 160 500 106 q 599 318 599 214 l 599 685 q 610 711 599 700 q 636 722 621 722 l 688 722 q 714 711 703 722 q 725 685 725 700 l 725 38 q 714 11 725 22 q 688 0 703 0 l 636 0 q 610 11 621 0 q 599 38 599 22 l 599 81 q 390 -14 526 -14 q 177 69 257 -14 q 97 297 97 153 l 97 685 m 363 871 q 351 844 363 856 q 325 833 340 833 l 246 833 q 219 844 231 833 q 208 871 208 856 l 208 950 q 219 976 208 965 q 246 988 231 988 l 325 988 q 351 976 340 988 q 363 950 363 965 l 363 871 m 614 871 q 603 844 614 856 q 576 833 592 833 l 497 833 q 471 844 482 833 q 460 871 460 856 l 460 950 q 471 976 460 965 q 497 988 482 988 l 576 988 q 603 976 592 988 q 614 950 614 965 l 614 871 z "},"ù":{"ha":829,"x_min":97,"x_max":725,"o":"m 97 685 q 108 711 97 700 q 135 722 119 722 l 186 722 q 213 711 201 722 q 224 685 224 700 l 224 318 q 272 159 224 213 q 411 106 319 106 q 549 160 500 106 q 599 318 599 214 l 599 685 q 610 711 599 700 q 636 722 621 722 l 688 722 q 714 711 703 722 q 725 685 725 700 l 725 38 q 714 11 725 22 q 688 0 703 0 l 636 0 q 610 11 621 0 q 599 38 599 22 l 599 81 q 390 -14 526 -14 q 177 69 257 -14 q 97 297 97 153 l 97 685 m 472 867 q 479 849 479 860 q 457 826 479 826 l 406 826 q 374 832 386 826 q 347 850 363 838 l 193 976 q 186 993 186 983 q 193 1013 186 1006 q 213 1021 200 1021 l 315 1021 q 342 1016 332 1021 q 367 994 351 1011 l 472 867 z "},"ű":{"ha":829,"x_min":97,"x_max":725,"o":"m 97 685 q 108 711 97 700 q 135 722 119 722 l 186 722 q 213 711 201 722 q 224 685 224 700 l 224 318 q 272 159 224 213 q 411 106 319 106 q 549 160 500 106 q 599 318 599 214 l 599 685 q 610 711 599 700 q 636 722 621 722 l 688 722 q 714 711 703 722 q 725 685 725 700 l 725 38 q 714 11 725 22 q 688 0 703 0 l 636 0 q 610 11 621 0 q 599 38 599 22 l 599 81 q 390 -14 526 -14 q 177 69 257 -14 q 97 297 97 153 l 97 685 m 290 994 q 309 1015 297 1008 q 342 1021 321 1021 l 438 1021 q 458 1014 450 1021 q 465 994 465 1007 q 457 976 465 985 l 336 846 q 289 826 319 826 l 250 826 q 228 849 228 826 q 235 869 228 856 l 290 994 m 536 994 q 555 1015 543 1008 q 588 1021 567 1021 l 683 1021 q 703 1014 696 1021 q 711 994 711 1007 q 703 976 711 985 l 582 846 q 535 826 565 826 l 496 826 q 474 849 474 826 q 481 869 474 856 l 536 994 z "},"ū":{"ha":829,"x_min":97,"x_max":725,"o":"m 97 685 q 108 711 97 700 q 135 722 119 722 l 186 722 q 213 711 201 722 q 224 685 224 700 l 224 318 q 272 159 224 213 q 411 106 319 106 q 549 160 500 106 q 599 318 599 214 l 599 685 q 610 711 599 700 q 636 722 621 722 l 688 722 q 714 711 703 722 q 725 685 725 700 l 725 38 q 714 11 725 22 q 688 0 703 0 l 636 0 q 610 11 621 0 q 599 38 599 22 l 599 81 q 390 -14 526 -14 q 177 69 257 -14 q 97 297 97 153 l 97 685 m 260 840 q 233 851 244 840 q 222 878 222 863 l 222 922 q 233 949 222 938 q 260 960 244 960 l 564 960 q 590 949 579 960 q 601 922 601 938 l 601 878 q 590 851 601 863 q 564 840 579 840 l 260 840 z "},"ų":{"ha":829,"x_min":97,"x_max":725,"o":"m 97 685 q 108 711 97 700 q 135 722 119 722 l 186 722 q 213 711 201 722 q 224 685 224 700 l 224 318 q 272 159 224 213 q 411 106 319 106 q 549 160 500 106 q 599 318 599 214 l 599 685 q 610 711 599 700 q 636 722 621 722 l 688 722 q 714 711 703 722 q 725 685 725 700 l 725 28 q 713 0 725 13 q 676 -26 701 -10 q 628 -65 644 -46 q 613 -117 613 -83 q 632 -183 613 -160 q 686 -206 651 -206 l 694 -206 q 717 -214 708 -206 q 725 -236 725 -222 l 725 -275 q 717 -297 725 -289 q 694 -306 708 -306 l 681 -306 q 548 -256 596 -306 q 500 -117 500 -206 q 599 40 500 -28 l 599 81 q 390 -14 526 -14 q 177 69 257 -14 q 97 297 97 153 l 97 685 z "},"ů":{"ha":829,"x_min":97,"x_max":725,"o":"m 97 685 q 108 711 97 700 q 135 722 119 722 l 186 722 q 213 711 201 722 q 224 685 224 700 l 224 318 q 272 159 224 213 q 411 106 319 106 q 549 160 500 106 q 599 318 599 214 l 599 685 q 610 711 599 700 q 636 722 621 722 l 688 722 q 714 711 703 722 q 725 685 725 700 l 725 38 q 714 11 725 22 q 688 0 703 0 l 636 0 q 610 11 621 0 q 599 38 599 22 l 599 81 q 390 -14 526 -14 q 177 69 257 -14 q 97 297 97 153 l 97 685 m 411 1042 q 495 1010 461 1042 q 529 931 529 979 q 495 851 529 882 q 411 819 461 819 q 327 851 361 819 q 293 931 293 882 q 327 1010 293 979 q 411 1042 361 1042 m 411 889 q 441 901 429 889 q 453 931 453 913 q 441 960 453 949 q 411 972 429 972 q 381 960 393 972 q 369 931 369 949 q 381 901 369 913 q 411 889 393 889 z "},"ũ":{"ha":829,"x_min":97,"x_max":725,"o":"m 97 685 q 108 711 97 700 q 135 722 119 722 l 186 722 q 213 711 201 722 q 224 685 224 700 l 224 318 q 272 159 224 213 q 411 106 319 106 q 549 160 500 106 q 599 318 599 214 l 599 685 q 610 711 599 700 q 636 722 621 722 l 688 722 q 714 711 703 722 q 725 685 725 700 l 725 38 q 714 11 725 22 q 688 0 703 0 l 636 0 q 610 11 621 0 q 599 38 599 22 l 599 81 q 390 -14 526 -14 q 177 69 257 -14 q 97 297 97 153 l 97 685 m 346 864 q 323 858 331 864 q 310 843 315 853 q 299 831 304 835 q 286 826 294 826 l 235 826 q 215 834 222 826 q 208 853 208 842 q 222 909 208 878 q 261 963 235 940 q 328 986 288 986 q 379 979 358 986 q 424 960 400 972 q 450 947 436 953 q 478 942 464 942 q 501 947 493 942 q 514 963 508 953 q 524 975 519 971 q 538 979 529 979 l 589 979 q 608 972 601 979 q 615 953 615 964 q 602 897 615 928 q 563 842 589 865 q 496 819 536 819 q 445 826 465 819 q 397 847 425 833 q 372 859 385 854 q 346 864 358 864 z "},"v":{"ha":778,"x_min":43,"x_max":735,"o":"m 415 0 q 457 35 443 0 l 733 679 q 735 689 735 683 q 725 713 735 703 q 701 722 715 722 l 644 722 q 604 689 617 722 l 389 185 l 174 689 q 128 722 161 722 l 76 722 q 53 713 63 722 q 43 689 43 703 q 44 679 43 683 l 321 35 q 364 0 335 0 l 415 0 z "},"w":{"ha":1117,"x_min":51,"x_max":1065,"o":"m 939 689 q 986 722 951 722 l 1032 722 q 1056 713 1046 722 q 1065 689 1065 703 l 1064 678 l 851 39 q 810 0 839 0 l 767 0 q 740 10 750 0 q 724 39 731 21 l 558 500 l 393 39 q 376 10 386 21 q 350 0 367 0 l 307 0 q 265 39 278 0 l 53 678 l 51 689 q 61 713 51 703 q 85 722 71 722 l 131 722 q 178 689 165 722 l 333 225 l 500 689 q 543 722 513 722 l 574 722 q 617 689 604 722 l 783 225 l 939 689 z "},"ẃ":{"ha":1117,"x_min":51,"x_max":1065,"o":"m 939 689 q 986 722 951 722 l 1032 722 q 1056 713 1046 722 q 1065 689 1065 703 l 1064 678 l 851 39 q 810 0 839 0 l 767 0 q 740 10 750 0 q 724 39 731 21 l 558 500 l 393 39 q 376 10 386 21 q 350 0 367 0 l 307 0 q 265 39 278 0 l 53 678 l 51 689 q 61 713 51 703 q 85 722 71 722 l 131 722 q 178 689 165 722 l 333 225 l 500 689 q 543 722 513 722 l 574 722 q 617 689 604 722 l 783 225 l 939 689 m 604 994 q 629 1016 619 1011 q 656 1021 639 1021 l 758 1021 q 778 1013 771 1021 q 785 993 785 1006 q 778 976 785 983 l 624 850 q 597 832 608 838 q 565 826 585 826 l 514 826 q 492 849 492 826 q 499 867 492 860 l 604 994 z "},"ŵ":{"ha":1117,"x_min":51,"x_max":1065,"o":"m 939 689 q 986 722 951 722 l 1032 722 q 1056 713 1046 722 q 1065 689 1065 703 l 1064 678 l 851 39 q 810 0 839 0 l 767 0 q 740 10 750 0 q 724 39 731 21 l 558 500 l 393 39 q 376 10 386 21 q 350 0 367 0 l 307 0 q 265 39 278 0 l 53 678 l 51 689 q 61 713 51 703 q 85 722 71 722 l 131 722 q 178 689 165 722 l 333 225 l 500 689 q 543 722 513 722 l 574 722 q 617 689 604 722 l 783 225 l 939 689 m 572 1021 q 599 1015 588 1021 q 624 994 610 1010 l 751 867 q 758 849 758 860 q 736 826 758 826 l 707 826 q 686 830 694 826 q 664 842 678 833 l 558 913 l 453 842 q 431 830 439 833 q 410 826 422 826 l 381 826 q 358 849 358 826 q 365 867 358 860 l 493 994 q 518 1015 507 1010 q 544 1021 529 1021 l 572 1021 z "},"ẅ":{"ha":1117,"x_min":51,"x_max":1065,"o":"m 939 689 q 986 722 951 722 l 1032 722 q 1056 713 1046 722 q 1065 689 1065 703 l 1064 678 l 851 39 q 810 0 839 0 l 767 0 q 740 10 750 0 q 724 39 731 21 l 558 500 l 393 39 q 376 10 386 21 q 350 0 367 0 l 307 0 q 265 39 278 0 l 53 678 l 51 689 q 61 713 51 703 q 85 722 71 722 l 131 722 q 178 689 165 722 l 333 225 l 500 689 q 543 722 513 722 l 574 722 q 617 689 604 722 l 783 225 l 939 689 m 510 871 q 499 844 510 856 q 472 833 488 833 l 393 833 q 367 844 378 833 q 356 871 356 856 l 356 950 q 367 976 356 965 q 393 988 378 988 l 472 988 q 499 976 488 988 q 510 950 510 965 l 510 871 m 761 871 q 750 844 761 856 q 724 833 739 833 l 644 833 q 618 844 629 833 q 607 871 607 856 l 607 950 q 618 976 607 965 q 644 988 629 988 l 724 988 q 750 976 739 988 q 761 950 761 965 l 761 871 z "},"ẁ":{"ha":1117,"x_min":51,"x_max":1065,"o":"m 939 689 q 986 722 951 722 l 1032 722 q 1056 713 1046 722 q 1065 689 1065 703 l 1064 678 l 851 39 q 810 0 839 0 l 767 0 q 740 10 750 0 q 724 39 731 21 l 558 500 l 393 39 q 376 10 386 21 q 350 0 367 0 l 307 0 q 265 39 278 0 l 53 678 l 51 689 q 61 713 51 703 q 85 722 71 722 l 131 722 q 178 689 165 722 l 333 225 l 500 689 q 543 722 513 722 l 574 722 q 617 689 604 722 l 783 225 l 939 689 m 614 867 q 621 849 621 860 q 599 826 621 826 l 547 826 q 516 832 528 826 q 489 850 504 838 l 335 976 q 328 993 328 983 q 335 1013 328 1006 q 354 1021 342 1021 l 457 1021 q 483 1016 474 1021 q 508 994 493 1011 l 614 867 z "},"x":{"ha":761,"x_min":40,"x_max":718,"o":"m 182 26 q 163 8 172 15 q 138 0 153 0 l 74 0 q 50 10 60 0 q 40 32 40 19 q 46 51 40 43 l 300 369 l 60 671 q 54 690 54 679 q 64 713 54 703 q 88 722 74 722 l 154 722 q 179 715 169 722 q 199 696 189 707 l 383 464 l 567 696 q 586 715 576 707 q 611 722 596 722 l 675 722 q 699 713 689 722 q 708 690 708 703 q 703 671 708 679 l 461 367 l 713 51 q 718 32 718 43 q 708 10 718 19 q 685 0 699 0 l 618 0 q 593 8 603 0 q 574 26 583 15 l 378 272 l 182 26 z "},"y":{"ha":774,"x_min":44,"x_max":736,"o":"m 317 -231 q 276 -264 304 -264 l 219 -264 q 196 -254 206 -264 q 186 -231 186 -244 q 188 -221 186 -225 l 321 69 l 46 679 q 44 689 44 683 q 54 713 44 703 q 78 722 64 722 l 135 722 q 175 689 163 722 l 389 217 l 606 689 q 646 722 618 722 l 703 722 q 726 713 717 722 q 736 689 736 703 q 735 679 736 683 l 317 -231 z "},"ý":{"ha":774,"x_min":44,"x_max":736,"o":"m 317 -231 q 276 -264 304 -264 l 219 -264 q 196 -254 206 -264 q 186 -231 186 -244 q 188 -221 186 -225 l 321 69 l 46 679 q 44 689 44 683 q 54 713 44 703 q 78 722 64 722 l 135 722 q 175 689 163 722 l 389 217 l 606 689 q 646 722 618 722 l 703 722 q 726 713 717 722 q 736 689 736 703 q 735 679 736 683 l 317 -231 m 428 994 q 453 1016 443 1011 q 479 1021 463 1021 l 582 1021 q 601 1013 594 1021 q 608 993 608 1006 q 601 976 608 983 l 447 850 q 420 832 432 838 q 389 826 408 826 l 338 826 q 315 849 315 826 q 322 867 315 860 l 428 994 z "},"ŷ":{"ha":774,"x_min":44,"x_max":736,"o":"m 317 -231 q 276 -264 304 -264 l 219 -264 q 196 -254 206 -264 q 186 -231 186 -244 q 188 -221 186 -225 l 321 69 l 46 679 q 44 689 44 683 q 54 713 44 703 q 78 722 64 722 l 135 722 q 175 689 163 722 l 389 217 l 606 689 q 646 722 618 722 l 703 722 q 726 713 717 722 q 736 689 736 703 q 735 679 736 683 l 317 -231 m 403 1021 q 429 1015 418 1021 q 454 994 440 1010 l 582 867 q 589 849 589 860 q 567 826 589 826 l 538 826 q 517 830 525 826 q 494 842 508 833 l 389 913 l 283 842 q 261 830 269 833 q 240 826 253 826 l 211 826 q 189 849 189 826 q 196 867 189 860 l 324 994 q 349 1015 338 1010 q 375 1021 360 1021 l 403 1021 z "},"ÿ":{"ha":774,"x_min":44,"x_max":736,"o":"m 317 -231 q 276 -264 304 -264 l 219 -264 q 196 -254 206 -264 q 186 -231 186 -244 q 188 -221 186 -225 l 321 69 l 46 679 q 44 689 44 683 q 54 713 44 703 q 78 722 64 722 l 135 722 q 175 689 163 722 l 389 217 l 606 689 q 646 722 618 722 l 703 722 q 726 713 717 722 q 736 689 736 703 q 735 679 736 683 l 317 -231 m 340 871 q 329 844 340 856 q 303 833 318 833 l 224 833 q 197 844 208 833 q 186 871 186 856 l 186 950 q 197 976 186 965 q 224 988 208 988 l 303 988 q 329 976 318 988 q 340 950 340 965 l 340 871 m 592 871 q 581 844 592 856 q 554 833 569 833 l 475 833 q 449 844 460 833 q 438 871 438 856 l 438 950 q 449 976 438 965 q 475 988 460 988 l 554 988 q 581 976 569 988 q 592 950 592 965 l 592 871 z "},"ỳ":{"ha":774,"x_min":44,"x_max":736,"o":"m 317 -231 q 276 -264 304 -264 l 219 -264 q 196 -254 206 -264 q 186 -231 186 -244 q 188 -221 186 -225 l 321 69 l 46 679 q 44 689 44 683 q 54 713 44 703 q 78 722 64 722 l 135 722 q 175 689 163 722 l 389 217 l 606 689 q 646 722 618 722 l 703 722 q 726 713 717 722 q 736 689 736 703 q 735 679 736 683 l 317 -231 m 450 867 q 457 849 457 860 q 435 826 457 826 l 383 826 q 352 832 364 826 q 325 850 340 838 l 171 976 q 164 993 164 983 q 171 1013 164 1006 q 190 1021 178 1021 l 293 1021 q 319 1016 310 1021 q 344 994 329 1011 l 450 867 z "},"z":{"ha":710,"x_min":58,"x_max":658,"o":"m 621 119 q 647 108 636 119 q 658 82 658 97 l 658 38 q 647 11 658 22 q 621 0 636 0 l 96 0 q 69 11 81 0 q 58 38 58 22 l 58 92 q 78 132 58 108 l 460 603 l 110 603 q 83 614 94 603 q 72 640 72 625 l 72 685 q 83 711 72 700 q 110 722 94 722 l 593 722 q 619 711 608 722 q 631 685 631 700 l 631 631 q 622 606 631 617 q 611 590 614 594 l 226 119 l 621 119 z "},"ź":{"ha":710,"x_min":58,"x_max":658,"o":"m 621 119 q 647 108 636 119 q 658 82 658 97 l 658 38 q 647 11 658 22 q 621 0 636 0 l 96 0 q 69 11 81 0 q 58 38 58 22 l 58 92 q 78 132 58 108 l 460 603 l 110 603 q 83 614 94 603 q 72 640 72 625 l 72 685 q 83 711 72 700 q 110 722 94 722 l 593 722 q 619 711 608 722 q 631 685 631 700 l 631 631 q 622 606 631 617 q 611 590 614 594 l 226 119 l 621 119 m 401 994 q 426 1016 417 1011 q 453 1021 436 1021 l 556 1021 q 575 1013 568 1021 q 582 993 582 1006 q 575 976 582 983 l 421 850 q 394 832 406 838 q 363 826 382 826 l 311 826 q 289 849 289 826 q 296 867 289 860 l 401 994 z "},"ž":{"ha":710,"x_min":58,"x_max":658,"o":"m 621 119 q 647 108 636 119 q 658 82 658 97 l 658 38 q 647 11 658 22 q 621 0 636 0 l 96 0 q 69 11 81 0 q 58 38 58 22 l 58 92 q 78 132 58 108 l 460 603 l 110 603 q 83 614 94 603 q 72 640 72 625 l 72 685 q 83 711 72 700 q 110 722 94 722 l 593 722 q 619 711 608 722 q 631 685 631 700 l 631 631 q 622 606 631 617 q 611 590 614 594 l 226 119 l 621 119 m 344 826 q 318 832 329 826 q 293 853 307 838 l 165 981 q 158 999 158 988 q 181 1021 158 1021 l 210 1021 q 231 1017 222 1021 q 253 1006 239 1014 l 358 935 l 464 1006 q 486 1017 478 1014 q 507 1021 494 1021 l 536 1021 q 558 999 558 1021 q 551 981 558 988 l 424 853 q 399 832 410 838 q 372 826 388 826 l 344 826 z "},"ż":{"ha":710,"x_min":58,"x_max":658,"o":"m 621 119 q 647 108 636 119 q 658 82 658 97 l 658 38 q 647 11 658 22 q 621 0 636 0 l 96 0 q 69 11 81 0 q 58 38 58 22 l 58 92 q 78 132 58 108 l 460 603 l 110 603 q 83 614 94 603 q 72 640 72 625 l 72 685 q 83 711 72 700 q 110 722 94 722 l 593 722 q 619 711 608 722 q 631 685 631 700 l 631 631 q 622 606 631 617 q 611 590 614 594 l 226 119 l 621 119 m 436 871 q 425 844 436 856 q 399 833 414 833 l 319 833 q 293 844 304 833 q 282 871 282 856 l 282 950 q 293 976 282 965 q 319 988 304 988 l 399 988 q 425 976 414 988 q 436 950 436 965 l 436 871 z "},"ﬁ":{"ha":788,"x_min":26,"x_max":683,"o":"m 683 38 q 672 11 683 22 q 646 0 661 0 l 594 0 q 568 11 579 0 q 557 38 557 22 l 557 603 l 306 603 l 306 38 q 294 11 306 22 q 268 0 283 0 l 217 0 q 190 11 201 0 q 179 38 179 22 l 179 603 l 64 603 q 38 614 49 603 q 26 640 26 625 l 26 685 q 38 711 26 700 q 64 722 49 722 l 179 722 l 179 792 q 235 969 179 911 q 408 1028 290 1028 l 646 1028 q 672 1017 661 1028 q 683 990 683 1006 l 683 946 q 672 919 683 931 q 646 908 661 908 l 422 908 q 330 876 354 908 q 306 785 306 844 l 306 722 l 646 722 q 672 711 661 722 q 683 685 683 700 l 683 38 z "},"ﬂ":{"ha":831,"x_min":26,"x_max":726,"o":"m 726 38 q 715 11 726 22 q 689 0 704 0 l 638 0 q 611 11 622 0 q 600 38 600 22 l 600 603 l 307 603 l 307 38 q 296 11 307 22 q 269 0 285 0 l 218 0 q 192 11 203 0 q 181 38 181 22 l 181 603 l 64 603 q 38 614 49 603 q 26 640 26 625 l 26 685 q 38 711 26 700 q 64 722 49 722 l 181 722 l 181 792 q 236 969 181 911 q 410 1028 292 1028 l 497 1028 q 524 1017 513 1028 q 535 990 535 1006 l 535 946 q 524 919 535 931 q 497 908 513 908 l 424 908 q 331 876 356 908 q 307 785 307 844 l 307 722 l 600 722 l 600 990 q 611 1017 600 1006 q 638 1028 622 1028 l 689 1028 q 715 1017 704 1028 q 726 990 726 1006 l 726 38 z "},"ª":{"ha":507,"x_min":68,"x_max":417,"o":"m 317 643 q 272 610 306 624 q 200 596 238 596 q 105 629 142 596 q 68 706 68 663 q 115 792 68 758 q 232 836 163 826 l 317 849 q 304 880 317 865 q 254 894 292 894 q 225 890 236 894 q 201 878 214 886 q 171 867 185 867 l 128 867 q 97 888 97 867 q 117 924 97 903 q 174 963 138 946 q 260 979 211 979 q 376 942 335 979 q 417 838 417 904 l 417 633 q 408 611 417 619 q 386 603 400 603 l 347 603 q 325 611 333 603 q 317 633 317 619 l 317 643 m 254 761 q 194 741 210 754 q 179 710 179 728 q 219 679 179 679 q 291 707 265 679 q 317 771 317 735 l 254 761 z "},"º":{"ha":494,"x_min":72,"x_max":422,"o":"m 247 596 q 125 635 172 596 q 74 750 78 675 l 72 788 l 74 825 q 127 939 78 899 q 247 979 176 979 q 367 939 318 979 q 421 825 417 899 q 422 788 422 818 q 421 750 422 757 q 369 635 417 675 q 247 596 322 596 m 247 685 q 315 757 311 685 q 317 788 317 764 q 315 818 317 811 q 295 872 314 853 q 247 890 276 890 q 199 872 218 890 q 179 818 181 853 l 178 788 l 179 757 q 247 685 183 685 z "},"А":{"ha":944,"x_min":22,"x_max":921,"o":"m 231 219 l 158 35 q 104 0 146 0 l 53 0 q 31 9 40 0 q 22 31 22 18 q 28 50 22 38 l 368 926 q 431 972 386 972 l 514 972 q 576 926 558 972 l 915 50 q 921 31 921 38 q 912 9 921 18 q 890 0 903 0 l 839 0 q 785 35 797 0 l 713 219 l 231 219 m 664 344 l 472 840 l 279 344 l 664 344 z "},"Б":{"ha":893,"x_min":119,"x_max":836,"o":"m 542 589 q 700 550 633 589 q 801 444 767 511 q 836 294 836 376 q 801 145 836 213 q 700 39 767 78 q 542 0 633 0 l 157 0 q 131 11 142 0 q 119 38 119 22 l 119 935 q 131 961 119 950 q 157 972 142 972 l 738 972 q 763 961 753 972 q 774 935 774 950 l 774 885 q 763 858 774 869 q 738 847 753 847 l 251 847 l 251 589 l 542 589 m 251 464 l 251 125 l 521 125 q 656 173 608 125 q 704 294 704 221 q 656 416 704 368 q 521 464 608 464 l 251 464 z "},"В":{"ha":928,"x_min":119,"x_max":854,"o":"m 119 935 q 131 961 119 950 q 157 972 142 972 l 529 972 q 707 930 639 972 q 804 828 775 888 q 833 711 833 768 q 796 585 833 633 q 722 515 758 538 q 817 416 781 476 q 854 282 854 356 q 819 145 854 210 q 714 40 783 81 q 549 0 644 0 l 157 0 q 131 11 142 0 q 119 38 119 22 l 119 935 m 251 567 l 515 567 q 654 603 607 567 q 701 707 701 639 q 654 811 701 775 q 515 847 607 847 l 251 847 l 251 567 m 251 125 l 535 125 q 673 170 624 125 q 722 282 722 215 q 675 396 722 350 q 535 442 628 442 l 251 442 l 251 125 z "},"Г":{"ha":776,"x_min":119,"x_max":753,"o":"m 715 972 q 742 961 731 972 q 753 935 753 950 l 753 885 q 742 858 753 869 q 715 847 731 847 l 251 847 l 251 38 q 240 11 251 22 q 214 0 229 0 l 157 0 q 131 11 142 0 q 119 38 119 22 l 119 935 q 131 961 119 950 q 157 972 142 972 l 715 972 z "},"Ѓ":{"ha":776,"x_min":119,"x_max":753,"o":"m 715 972 q 742 961 731 972 q 753 935 753 950 l 753 885 q 742 858 753 869 q 715 847 731 847 l 251 847 l 251 38 q 240 11 251 22 q 214 0 229 0 l 157 0 q 131 11 142 0 q 119 38 119 22 l 119 935 q 131 961 119 950 q 157 972 142 972 l 715 972 m 486 1210 q 511 1231 501 1226 q 538 1236 521 1236 l 647 1236 q 667 1228 660 1236 q 674 1208 674 1221 q 667 1192 674 1199 l 513 1065 q 485 1047 497 1053 q 454 1042 474 1042 l 396 1042 q 374 1064 374 1042 q 381 1082 374 1075 l 486 1210 z "},"Ґ":{"ha":778,"x_min":119,"x_max":753,"o":"m 251 38 q 240 11 251 22 q 214 0 229 0 l 157 0 q 131 11 142 0 q 119 38 119 22 l 119 935 q 131 961 119 950 q 157 972 142 972 l 621 972 l 621 1088 q 632 1114 621 1103 q 658 1125 643 1125 l 715 1125 q 742 1114 731 1125 q 753 1088 753 1103 l 753 885 q 742 858 753 869 q 715 847 731 847 l 251 847 l 251 38 z "},"Д":{"ha":979,"x_min":22,"x_max":910,"o":"m 193 935 q 204 961 193 950 q 231 972 215 972 l 803 972 q 829 961 818 972 q 840 935 840 950 l 840 125 l 872 125 q 899 114 888 125 q 910 88 910 103 l 910 -115 q 899 -142 910 -131 q 872 -153 888 -153 l 815 -153 q 789 -142 800 -153 q 778 -115 778 -131 l 778 0 l 154 0 l 154 -115 q 143 -142 154 -131 q 117 -153 132 -153 l 60 -153 q 33 -142 44 -153 q 22 -115 22 -131 l 22 88 q 33 114 22 103 q 60 125 44 125 l 82 125 q 168 160 143 125 q 193 290 193 194 l 193 935 m 325 267 q 294 125 325 164 l 708 125 l 708 847 l 325 847 l 325 267 z "},"Е":{"ha":822,"x_min":119,"x_max":756,"o":"m 251 429 l 676 429 q 703 440 692 429 q 714 467 714 451 l 714 517 q 703 543 714 532 q 676 554 692 554 l 251 554 l 251 847 l 707 847 q 733 858 722 847 q 744 885 744 869 l 744 935 q 733 961 744 950 q 707 972 722 972 l 157 972 q 131 961 142 972 q 119 935 119 950 l 119 38 q 131 11 119 22 q 157 0 142 0 l 718 0 q 744 11 733 0 q 756 38 756 22 l 756 88 q 744 114 756 103 q 718 125 733 125 l 251 125 l 251 429 z "},"Ѐ":{"ha":822,"x_min":119,"x_max":756,"o":"m 251 429 l 676 429 q 703 440 692 429 q 714 467 714 451 l 714 517 q 703 543 714 532 q 676 554 692 554 l 251 554 l 251 847 l 707 847 q 733 858 722 847 q 744 885 744 869 l 744 935 q 733 961 744 950 q 707 972 722 972 l 157 972 q 131 961 142 972 q 119 935 119 950 l 119 38 q 131 11 119 22 q 157 0 142 0 l 718 0 q 744 11 733 0 q 756 38 756 22 l 756 88 q 744 114 756 103 q 718 125 733 125 l 251 125 l 251 429 m 504 1082 q 511 1064 511 1075 q 489 1042 511 1042 l 431 1042 q 399 1047 411 1042 q 372 1065 388 1053 l 218 1192 q 211 1208 211 1199 q 218 1228 211 1221 q 238 1236 225 1236 l 347 1236 q 374 1231 364 1236 q 399 1210 383 1226 l 504 1082 z "},"Ё":{"ha":822,"x_min":119,"x_max":756,"o":"m 368 1079 q 357 1053 368 1064 q 331 1042 346 1042 l 251 1042 q 225 1053 236 1042 q 214 1079 214 1064 l 214 1158 q 225 1185 214 1174 q 251 1196 236 1196 l 331 1196 q 357 1185 346 1196 q 368 1158 368 1174 l 368 1079 m 661 1079 q 650 1053 661 1064 q 624 1042 639 1042 l 544 1042 q 518 1053 529 1042 q 507 1079 507 1064 l 507 1158 q 518 1185 507 1174 q 544 1196 529 1196 l 624 1196 q 650 1185 639 1196 q 661 1158 661 1174 l 661 1079 m 251 429 l 676 429 q 703 440 692 429 q 714 467 714 451 l 714 517 q 703 543 714 532 q 676 554 692 554 l 251 554 l 251 847 l 707 847 q 733 858 722 847 q 744 885 744 869 l 744 935 q 733 961 744 950 q 707 972 722 972 l 157 972 q 131 961 142 972 q 119 935 119 950 l 119 38 q 131 11 119 22 q 157 0 142 0 l 718 0 q 744 11 733 0 q 756 38 756 22 l 756 88 q 744 114 756 103 q 718 125 733 125 l 251 125 l 251 429 z "},"Ж":{"ha":985,"x_min":32,"x_max":953,"o":"m 426 371 l 179 32 q 157 8 168 17 q 122 0 146 0 l 63 0 q 41 9 50 0 q 32 31 32 18 q 36 46 32 39 l 364 496 l 50 926 q 46 942 46 935 q 55 963 46 954 q 76 972 64 972 l 142 972 q 177 963 165 972 q 200 938 189 953 l 426 626 l 426 935 q 438 961 426 950 q 464 972 449 972 l 521 972 q 547 961 536 972 q 558 935 558 950 l 558 626 l 785 938 q 808 963 796 953 q 843 972 819 972 l 908 972 q 930 963 921 972 q 939 942 939 954 q 935 926 939 935 l 621 496 l 949 46 q 953 31 953 39 q 944 9 953 18 q 922 0 935 0 l 863 0 q 828 8 839 0 q 806 32 817 17 l 558 371 l 558 38 q 547 11 558 22 q 521 0 536 0 l 464 0 q 438 11 449 0 q 426 38 426 22 l 426 371 z "},"З":{"ha":882,"x_min":50,"x_max":810,"o":"m 782 713 q 753 594 782 646 q 674 506 725 542 q 774 410 738 468 q 810 275 810 351 q 759 119 810 185 q 622 20 708 54 q 426 -14 535 -14 q 226 29 310 -14 q 98 133 142 72 q 51 244 54 193 q 60 266 50 257 q 82 275 69 275 l 146 275 q 167 267 157 275 q 182 244 176 258 q 265 151 200 190 q 426 111 331 111 q 606 155 533 111 q 678 275 678 199 q 610 393 678 350 q 438 439 542 436 l 356 439 q 329 450 340 439 q 318 476 318 461 l 318 526 q 329 553 318 542 q 356 564 340 564 l 428 564 q 587 603 524 564 q 650 713 650 643 q 587 822 650 782 q 428 861 524 861 q 285 822 342 861 q 211 728 229 783 q 196 706 206 714 q 175 697 186 697 l 111 697 q 89 706 99 697 q 81 728 79 715 q 123 840 83 779 q 240 944 163 901 q 428 986 318 986 q 608 954 528 986 q 735 861 689 922 q 782 713 782 800 z "},"И":{"ha":964,"x_min":119,"x_max":844,"o":"m 157 0 q 131 11 142 0 q 119 38 119 22 l 119 935 q 131 961 119 950 q 157 972 142 972 l 214 972 q 240 961 229 972 q 251 935 251 950 l 251 251 l 703 931 q 728 961 715 950 q 758 972 740 972 l 807 972 q 833 961 822 972 q 844 935 844 950 l 844 38 q 833 11 844 22 q 807 0 822 0 l 750 0 q 724 11 735 0 q 713 38 713 22 l 713 721 l 261 42 q 236 11 249 22 q 206 0 224 0 l 157 0 z "},"Й":{"ha":964,"x_min":119,"x_max":844,"o":"m 303 1210 q 310 1228 303 1221 q 329 1236 317 1236 l 374 1236 q 393 1228 386 1236 q 400 1210 400 1221 q 422 1150 400 1174 q 482 1126 444 1126 q 542 1150 519 1126 q 564 1210 564 1174 q 571 1228 564 1221 q 590 1236 578 1236 l 635 1236 q 654 1228 647 1236 q 661 1210 661 1221 q 615 1087 661 1139 q 482 1035 569 1035 q 349 1087 394 1035 q 303 1210 303 1139 m 157 0 q 131 11 142 0 q 119 38 119 22 l 119 935 q 131 961 119 950 q 157 972 142 972 l 214 972 q 240 961 229 972 q 251 935 251 950 l 251 251 l 703 931 q 728 961 715 950 q 758 972 740 972 l 807 972 q 833 961 822 972 q 844 935 844 950 l 844 38 q 833 11 844 22 q 807 0 822 0 l 750 0 q 724 11 735 0 q 713 38 713 22 l 713 721 l 261 42 q 236 11 249 22 q 206 0 224 0 l 157 0 z "},"Ѝ":{"ha":964,"x_min":119,"x_max":844,"o":"m 533 1082 q 540 1064 540 1075 q 518 1042 540 1042 l 460 1042 q 428 1047 440 1042 q 401 1065 417 1053 l 247 1192 q 240 1208 240 1199 q 247 1228 240 1221 q 267 1236 254 1236 l 376 1236 q 403 1231 393 1236 q 428 1210 413 1226 l 533 1082 m 157 0 q 131 11 142 0 q 119 38 119 22 l 119 935 q 131 961 119 950 q 157 972 142 972 l 214 972 q 240 961 229 972 q 251 935 251 950 l 251 251 l 703 931 q 728 961 715 950 q 758 972 740 972 l 807 972 q 833 961 822 972 q 844 935 844 950 l 844 38 q 833 11 844 22 q 807 0 822 0 l 750 0 q 724 11 735 0 q 713 38 713 22 l 713 721 l 261 42 q 236 11 249 22 q 206 0 224 0 l 157 0 z "},"К":{"ha":832,"x_min":119,"x_max":811,"o":"m 797 56 q 811 31 811 42 q 802 9 811 18 q 781 0 793 0 l 694 0 q 644 21 665 0 l 251 396 l 251 38 q 240 11 251 22 q 214 0 229 0 l 157 0 q 131 11 142 0 q 119 38 119 22 l 119 935 q 131 961 119 950 q 157 972 142 972 l 214 972 q 240 961 229 972 q 251 935 251 950 l 251 611 l 622 951 q 672 972 643 972 l 753 972 q 774 963 765 972 q 783 942 783 954 q 769 917 783 931 l 324 507 l 797 56 z "},"Ќ":{"ha":832,"x_min":119,"x_max":811,"o":"m 475 1210 q 500 1231 490 1226 q 526 1236 510 1236 l 636 1236 q 656 1228 649 1236 q 663 1208 663 1221 q 656 1192 663 1199 l 501 1065 q 474 1047 486 1053 q 443 1042 463 1042 l 385 1042 q 363 1064 363 1042 q 369 1082 363 1075 l 475 1210 m 797 56 q 811 31 811 42 q 802 9 811 18 q 781 0 793 0 l 694 0 q 644 21 665 0 l 251 396 l 251 38 q 240 11 251 22 q 214 0 229 0 l 157 0 q 131 11 142 0 q 119 38 119 22 l 119 935 q 131 961 119 950 q 157 972 142 972 l 214 972 q 240 961 229 972 q 251 935 251 950 l 251 611 l 622 951 q 672 972 643 972 l 753 972 q 774 963 765 972 q 783 942 783 954 q 769 917 783 931 l 324 507 l 797 56 z "},"Л":{"ha":969,"x_min":19,"x_max":850,"o":"m 813 972 q 839 961 828 972 q 850 935 850 950 l 850 38 q 839 11 850 22 q 813 0 828 0 l 756 0 q 729 11 740 0 q 718 38 718 22 l 718 847 l 332 847 l 332 250 q 268 62 332 138 q 74 -14 204 -14 l 57 -14 q 31 -3 42 -14 q 19 24 19 8 l 19 74 q 31 100 19 89 q 57 111 42 111 l 68 111 q 200 256 200 111 l 200 935 q 211 961 200 950 q 238 972 222 972 l 813 972 z "},"М":{"ha":1103,"x_min":119,"x_max":983,"o":"m 832 928 q 893 972 854 972 l 946 972 q 972 961 961 972 q 983 935 983 950 l 983 38 q 972 11 983 22 q 946 0 961 0 l 889 0 q 863 11 874 0 q 851 38 851 22 l 851 696 l 635 278 q 610 244 624 256 q 578 233 597 233 l 525 233 q 492 244 506 233 q 468 278 479 256 l 251 696 l 251 38 q 240 11 251 22 q 214 0 229 0 l 157 0 q 131 11 142 0 q 119 38 119 22 l 119 935 q 131 961 119 950 q 157 972 142 972 l 210 972 q 271 928 249 972 l 551 385 l 832 928 z "},"Н":{"ha":992,"x_min":119,"x_max":872,"o":"m 835 972 q 861 961 850 972 q 872 935 872 950 l 872 38 q 861 11 872 22 q 835 0 850 0 l 778 0 q 751 11 763 0 q 740 38 740 22 l 740 429 l 251 429 l 251 38 q 240 11 251 22 q 214 0 229 0 l 157 0 q 131 10 142 0 q 119 38 119 21 l 119 935 q 131 961 119 950 q 157 972 142 972 l 214 972 q 240 961 229 972 q 251 935 251 950 l 251 554 l 740 554 l 740 935 q 751 961 740 950 q 778 972 763 972 l 835 972 z "},"О":{"ha":933,"x_min":82,"x_max":853,"o":"m 467 986 q 671 936 585 986 q 802 801 757 886 q 850 610 847 715 q 853 486 853 526 q 850 363 853 446 q 801 172 846 257 q 670 36 756 86 q 467 -14 585 -14 q 263 36 349 -14 q 133 172 178 86 q 83 363 88 257 q 82 486 82 404 q 83 610 82 568 q 131 801 86 715 q 263 936 176 886 q 467 986 349 986 m 467 861 q 288 796 356 861 q 215 603 219 731 q 214 486 214 561 q 215 369 214 411 q 288 176 219 242 q 467 111 356 111 q 646 176 578 111 q 718 369 714 242 q 721 486 721 453 q 718 603 721 519 q 646 796 714 731 q 467 861 578 861 z "},"П":{"ha":992,"x_min":119,"x_max":872,"o":"m 835 972 q 861 961 850 972 q 872 935 872 950 l 872 38 q 861 11 872 22 q 835 0 850 0 l 778 0 q 751 11 763 0 q 740 38 740 22 l 740 847 l 251 847 l 251 38 q 240 11 251 22 q 214 0 229 0 l 157 0 q 131 11 142 0 q 119 38 119 22 l 119 935 q 131 961 119 950 q 157 972 142 972 l 835 972 z "},"Р":{"ha":889,"x_min":119,"x_max":842,"o":"m 507 972 q 747 897 651 972 q 842 678 842 822 q 797 513 842 581 q 676 411 751 444 q 507 378 600 378 l 251 378 l 251 38 q 240 11 251 22 q 214 0 229 0 l 157 0 q 131 11 142 0 q 119 38 119 22 l 119 935 q 131 961 119 950 q 157 972 142 972 l 507 972 m 500 503 q 656 547 601 503 q 710 678 710 590 q 500 847 710 847 l 251 847 l 251 503 l 500 503 z "}}}
